<?xml version="1.0" encoding="utf-8" standalone="no"?>
<!DOCTYPE svg PUBLIC "-//W3C//DTD SVG 1.1//EN"
  "http://www.w3.org/Graphics/SVG/1.1/DTD/svg11.dtd">
<svg xmlns:xlink="http://www.w3.org/1999/xlink" width="1512pt" height="144pt" viewBox="0 0 1512 144" xmlns="http://www.w3.org/2000/svg" version="1.1">
 <metadata>
  <rdf:RDF xmlns:dc="http://purl.org/dc/elements/1.1/" xmlns:cc="http://creativecommons.org/ns#" xmlns:rdf="http://www.w3.org/1999/02/22-rdf-syntax-ns#">
   <cc:Work>
    <dc:type rdf:resource="http://purl.org/dc/dcmitype/StillImage"/>
    <dc:date>2024-01-23T10:41:59.420981</dc:date>
    <dc:format>image/svg+xml</dc:format>
    <dc:creator>
     <cc:Agent>
      <dc:title>Matplotlib v3.6.3, https://matplotlib.org/</dc:title>
     </cc:Agent>
    </dc:creator>
   </cc:Work>
  </rdf:RDF>
 </metadata>
 <defs>
  <style type="text/css">*{stroke-linejoin: round; stroke-linecap: butt}</style>
 </defs>
 <g id="figure_1">
  <g id="patch_1">
   <path d="M 0 144 
L 1512 144 
L 1512 0 
L 0 0 
L 0 144 
z
" style="fill: none"/>
  </g>
  <g id="axes_1">
   <g id="patch_2">
    <path d="M 189 128.16 
L 331.902439 128.16 
L 331.902439 17.28 
L 189 17.28 
L 189 128.16 
z
" style="fill: none"/>
   </g>
   <g id="matplotlib.axis_1">
    <g id="xtick_1">
     <g id="line2d_1">
      <defs>
       <path id="m538e9b3032" d="M 0 0 
L 0 3.5 
" style="stroke: #000000; stroke-width: 0.8"/>
      </defs>
      <g>
       <use xlink:href="#m538e9b3032" x="231.870732" y="128.16" style="stroke: #000000; stroke-width: 0.8"/>
      </g>
     </g>
     <g id="text_1">
      <!-- $\mathdefault{0.4}$ -->
      <g transform="translate(223.145441 144.845876) scale(0.14 -0.14)">
       <defs>
        <path id="CMR17-30" d="M 2688 2025 
C 2688 2416 2682 3080 2413 3591 
C 2176 4039 1798 4198 1466 4198 
C 1158 4198 768 4058 525 3597 
C 269 3118 243 2524 243 2025 
C 243 1661 250 1106 448 619 
C 723 -39 1216 -128 1466 -128 
C 1760 -128 2208 -7 2470 600 
C 2662 1042 2688 1559 2688 2025 
z
M 1466 -26 
C 1056 -26 813 325 723 812 
C 653 1188 653 1738 653 2096 
C 653 2588 653 2997 736 3387 
C 858 3929 1216 4096 1466 4096 
C 1728 4096 2067 3923 2189 3400 
C 2272 3036 2278 2607 2278 2096 
C 2278 1680 2278 1169 2202 792 
C 2067 95 1690 -26 1466 -26 
z
" transform="scale(0.015625)"/>
        <path id="CMMI12-3a" d="M 1178 307 
C 1178 492 1024 619 870 619 
C 685 619 557 466 557 313 
C 557 128 710 0 864 0 
C 1050 0 1178 153 1178 307 
z
" transform="scale(0.015625)"/>
        <path id="CMR17-34" d="M 2150 4122 
C 2150 4256 2144 4256 2029 4256 
L 128 1254 
L 128 1088 
L 1779 1088 
L 1779 457 
C 1779 224 1766 160 1318 160 
L 1197 160 
L 1197 0 
C 1402 0 1747 0 1965 0 
C 2182 0 2528 0 2733 0 
L 2733 160 
L 2611 160 
C 2163 160 2150 224 2150 457 
L 2150 1088 
L 2803 1088 
L 2803 1254 
L 2150 1254 
L 2150 4122 
z
M 1798 3703 
L 1798 1254 
L 256 1254 
L 1798 3703 
z
" transform="scale(0.015625)"/>
       </defs>
       <use xlink:href="#CMR17-30" transform="scale(0.996264)"/>
       <use xlink:href="#CMMI12-3a" transform="translate(45.690477 0) scale(0.996264)"/>
       <use xlink:href="#CMR17-34" transform="translate(72.787654 0) scale(0.996264)"/>
      </g>
     </g>
    </g>
    <g id="xtick_2">
     <g id="line2d_2">
      <g>
       <use xlink:href="#m538e9b3032" x="289.031707" y="128.16" style="stroke: #000000; stroke-width: 0.8"/>
      </g>
     </g>
     <g id="text_2">
      <!-- $\mathdefault{0.5}$ -->
      <g transform="translate(280.306416 144.845876) scale(0.14 -0.14)">
       <defs>
        <path id="CMR17-35" d="M 730 3692 
C 794 3666 1056 3584 1325 3584 
C 1920 3584 2246 3911 2432 4100 
C 2432 4157 2432 4192 2394 4192 
C 2387 4192 2374 4192 2323 4163 
C 2099 4058 1837 3973 1517 3973 
C 1325 3973 1037 3999 723 4139 
C 653 4171 640 4171 634 4171 
C 602 4171 595 4164 595 4037 
L 595 2203 
C 595 2089 595 2057 659 2057 
C 691 2057 704 2070 736 2114 
C 941 2401 1222 2522 1542 2522 
C 1766 2522 2246 2382 2246 1289 
C 2246 1085 2246 715 2054 421 
C 1894 159 1645 25 1370 25 
C 947 25 518 320 403 814 
C 429 807 480 795 506 795 
C 589 795 749 840 749 1038 
C 749 1210 627 1280 506 1280 
C 358 1280 262 1190 262 1011 
C 262 454 704 -128 1382 -128 
C 2042 -128 2669 440 2669 1264 
C 2669 2030 2170 2624 1549 2624 
C 1222 2624 947 2503 730 2274 
L 730 3692 
z
" transform="scale(0.015625)"/>
       </defs>
       <use xlink:href="#CMR17-30" transform="scale(0.996264)"/>
       <use xlink:href="#CMMI12-3a" transform="translate(45.690477 0) scale(0.996264)"/>
       <use xlink:href="#CMR17-35" transform="translate(72.787654 0) scale(0.996264)"/>
      </g>
     </g>
    </g>
    <g id="text_3">
     <!-- $a_0$ -->
     <g transform="translate(253.565055 162.627493) scale(0.16 -0.16)">
      <defs>
       <path id="CMMI12-61" d="M 1926 760 
C 1894 651 1894 639 1805 517 
C 1664 338 1382 64 1082 64 
C 819 64 672 300 672 677 
C 672 1028 870 1743 992 2012 
C 1210 2459 1510 2689 1760 2689 
C 2182 2689 2266 2165 2266 2114 
C 2266 2108 2246 2024 2240 2012 
L 1926 760 
z
M 2336 2395 
C 2266 2561 2093 2816 1760 2816 
C 1037 2816 256 1884 256 939 
C 256 307 627 -64 1062 -64 
C 1414 -64 1715 211 1894 422 
C 1958 45 2259 -64 2451 -64 
C 2643 -64 2797 51 2912 281 
C 3014 498 3104 888 3104 913 
C 3104 945 3078 971 3040 971 
C 2982 971 2976 939 2950 843 
C 2854 466 2733 64 2470 64 
C 2285 64 2272 230 2272 358 
C 2272 505 2291 575 2349 824 
C 2394 984 2426 1124 2477 1309 
C 2714 2267 2771 2497 2771 2535 
C 2771 2625 2701 2695 2605 2695 
C 2400 2695 2349 2472 2336 2395 
z
" transform="scale(0.015625)"/>
      </defs>
      <use xlink:href="#CMMI12-61" transform="scale(0.996264)"/>
      <use xlink:href="#CMR17-30" transform="translate(51.207858 -14.943915) scale(0.697382)"/>
     </g>
    </g>
   </g>
   <g id="matplotlib.axis_2">
    <g id="ytick_1">
     <g id="line2d_3">
      <defs>
       <path id="m8a90f94d29" d="M 0 0 
L -3.5 0 
" style="stroke: #000000; stroke-width: 0.8"/>
      </defs>
      <g>
       <use xlink:href="#m8a90f94d29" x="189" y="100.44" style="stroke: #000000; stroke-width: 0.8"/>
      </g>
     </g>
     <g id="text_4">
      <!-- $\mathdefault{0.1}$ -->
      <g transform="translate(164.549418 105.282938) scale(0.14 -0.14)">
       <defs>
        <path id="CMR17-31" d="M 1702 4058 
C 1702 4192 1696 4192 1606 4192 
C 1357 3916 979 3827 621 3827 
C 602 3827 570 3827 563 3808 
C 557 3795 557 3782 557 3648 
C 755 3648 1088 3686 1344 3839 
L 1344 461 
C 1344 236 1331 160 781 160 
L 589 160 
L 589 0 
C 896 0 1216 0 1523 0 
C 1830 0 2150 0 2458 0 
L 2458 160 
L 2266 160 
C 1715 160 1702 230 1702 458 
L 1702 4058 
z
" transform="scale(0.015625)"/>
       </defs>
       <use xlink:href="#CMR17-30" transform="scale(0.996264)"/>
       <use xlink:href="#CMMI12-3a" transform="translate(45.690477 0) scale(0.996264)"/>
       <use xlink:href="#CMR17-31" transform="translate(72.787654 0) scale(0.996264)"/>
      </g>
     </g>
    </g>
    <g id="ytick_2">
     <g id="line2d_4">
      <g>
       <use xlink:href="#m8a90f94d29" x="189" y="45" style="stroke: #000000; stroke-width: 0.8"/>
      </g>
     </g>
     <g id="text_5">
      <!-- $\mathdefault{0.2}$ -->
      <g transform="translate(164.549418 49.842938) scale(0.14 -0.14)">
       <defs>
        <path id="CMR17-32" d="M 2669 989 
L 2554 989 
C 2490 536 2438 459 2413 420 
C 2381 369 1920 369 1830 369 
L 602 369 
C 832 619 1280 1072 1824 1597 
C 2214 1967 2669 2402 2669 3035 
C 2669 3790 2067 4224 1395 4224 
C 691 4224 262 3604 262 3030 
C 262 2780 448 2748 525 2748 
C 589 2748 781 2787 781 3010 
C 781 3207 614 3264 525 3264 
C 486 3264 448 3258 422 3245 
C 544 3790 915 4058 1306 4058 
C 1862 4058 2227 3617 2227 3035 
C 2227 2479 1901 2000 1536 1584 
L 262 146 
L 262 0 
L 2515 0 
L 2669 989 
z
" transform="scale(0.015625)"/>
       </defs>
       <use xlink:href="#CMR17-30" transform="scale(0.996264)"/>
       <use xlink:href="#CMMI12-3a" transform="translate(45.690477 0) scale(0.996264)"/>
       <use xlink:href="#CMR17-32" transform="translate(72.787654 0) scale(0.996264)"/>
      </g>
     </g>
    </g>
    <g id="text_6">
     <!-- RMSE -->
     <g transform="translate(157.449942 95.259341) rotate(-90) scale(0.16 -0.16)">
      <defs>
       <path id="CMR17-52" d="M 2509 2146 
C 3117 2268 3629 2676 3629 3186 
C 3629 3785 2950 4326 2054 4326 
L 333 4326 
L 333 4160 
C 774 4160 845 4160 845 3873 
L 845 415 
C 845 128 774 128 333 128 
L 333 -26 
C 518 -26 851 -26 1050 -26 
C 1248 -26 1581 -26 1766 -26 
L 1766 128 
C 1325 128 1254 128 1254 417 
L 1254 2112 
L 2003 2112 
C 2368 2112 2573 1964 2662 1881 
C 2918 1632 2918 1459 2918 1024 
C 2918 595 2918 377 3110 160 
C 3354 -102 3680 -128 3821 -128 
C 4294 -128 4365 396 4365 503 
C 4365 540 4365 585 4307 585 
C 4256 585 4250 547 4250 522 
C 4218 112 4032 -26 3834 -26 
C 3482 -26 3443 375 3405 764 
C 3386 898 3373 993 3360 1133 
C 3322 1452 3270 1917 2509 2146 
z
M 1984 2214 
L 1254 2214 
L 1254 3913 
C 1254 4129 1267 4160 1523 4160 
L 1990 4160 
C 2522 4160 3142 3977 3142 3190 
C 3142 2372 2464 2214 1984 2214 
z
" transform="scale(0.015625)"/>
       <path id="CMR17-4d" d="M 1338 4224 
C 1299 4320 1293 4320 1158 4320 
L 339 4320 
L 339 4160 
C 781 4160 851 4160 851 3875 
L 851 610 
C 851 451 851 153 339 153 
L 339 -13 
C 486 0 755 0 915 0 
C 1075 0 1344 0 1491 -13 
L 1491 153 
C 979 153 979 451 979 610 
L 979 4135 
L 986 4135 
L 2490 89 
C 2515 25 2528 -13 2579 -13 
C 2630 -13 2643 25 2669 89 
L 4186 4166 
L 4192 4166 
L 4192 438 
C 4192 153 4122 153 3680 153 
L 3680 -13 
C 3853 0 4198 0 4384 0 
C 4570 0 4922 0 5094 -13 
L 5094 153 
C 4653 153 4582 153 4582 438 
L 4582 3875 
C 4582 4160 4653 4160 5094 4160 
L 5094 4320 
L 4282 4320 
C 4147 4320 4141 4314 4102 4218 
L 2720 502 
L 1338 4224 
z
" transform="scale(0.015625)"/>
       <path id="CMR17-53" d="M 2803 4290 
C 2803 4404 2797 4411 2758 4411 
C 2720 4411 2707 4385 2682 4328 
L 2490 3907 
C 2246 4257 1875 4416 1472 4416 
C 819 4416 294 3901 294 3253 
C 294 3056 339 2776 557 2510 
C 794 2218 1018 2167 1530 2033 
C 1722 1982 2042 1899 2106 1874 
C 2470 1722 2662 1341 2662 985 
C 2662 527 2336 38 1779 38 
C 1094 38 454 419 410 1311 
C 403 1413 397 1419 352 1419 
C 301 1419 294 1413 294 1285 
L 294 -1 
C 294 -115 301 -122 339 -122 
C 384 -122 397 -90 486 108 
C 493 127 493 140 614 381 
C 934 -39 1472 -128 1779 -128 
C 2477 -128 2970 451 2970 1124 
C 2970 1454 2848 1708 2778 1823 
C 2509 2230 2221 2306 1914 2382 
C 1869 2402 1856 2402 1498 2490 
C 1152 2579 1005 2624 845 2796 
C 666 2992 602 3196 602 3399 
C 602 3812 934 4263 1478 4263 
C 2157 4263 2579 3786 2675 2993 
C 2694 2878 2701 2872 2746 2872 
C 2803 2872 2803 2891 2803 2999 
L 2803 4290 
z
" transform="scale(0.015625)"/>
       <path id="CMR17-45" d="M 3885 1615 
L 3770 1615 
C 3629 676 3546 166 2419 166 
L 1530 166 
C 1274 166 1261 197 1261 414 
L 1261 2176 
L 1862 2176 
C 2464 2176 2522 1960 2522 1430 
L 2637 1430 
L 2637 3081 
L 2522 3081 
C 2522 2557 2464 2342 1862 2342 
L 1261 2342 
L 1261 3913 
C 1261 4128 1274 4160 1530 4160 
L 2406 4160 
C 3398 4160 3514 3769 3603 2929 
L 3718 2929 
L 3565 4325 
L 326 4325 
L 326 4160 
C 768 4160 838 4160 838 3874 
L 838 451 
C 838 166 768 166 326 166 
L 326 0 
L 3654 0 
L 3885 1615 
z
" transform="scale(0.015625)"/>
      </defs>
      <use xlink:href="#CMR17-52" transform="scale(0.996264)"/>
      <use xlink:href="#CMR17-4d" transform="translate(67.791102 0) scale(0.996264)"/>
      <use xlink:href="#CMR17-53" transform="translate(152.478043 0) scale(0.996264)"/>
      <use xlink:href="#CMR17-45" transform="translate(203.373412 0) scale(0.996264)"/>
     </g>
    </g>
   </g>
   <g id="line2d_5">
    <path d="M 189 102.088231 
L 191.858049 102.891002 
L 194.716098 103.629463 
L 197.574146 104.306386 
L 200.432195 111.257453 
L 203.290244 105.51276 
L 206.148293 111.478104 
L 209.006341 111.566808 
L 211.86439 111.644424 
L 214.722439 111.711506 
L 217.580488 111.769718 
L 220.438537 111.820169 
L 223.296585 111.864521 
L 226.154634 111.904992 
L 229.012683 111.941582 
L 231.870732 111.974846 
L 234.72878 112.005893 
L 237.586829 112.034167 
L 240.444878 112.05967 
L 243.302927 112.083509 
L 246.160976 112.105685 
L 249.019024 112.126198 
L 251.877073 112.145047 
L 254.735122 112.162234 
L 257.593171 112.178311 
L 260.45122 112.19328 
L 263.309268 112.20714 
L 266.167317 112.220446 
L 269.025366 112.232088 
L 271.883415 112.24373 
L 274.741463 112.254264 
L 277.599512 112.263689 
L 280.457561 112.273114 
L 283.31561 112.28143 
L 286.173659 112.289191 
L 289.031707 112.296953 
L 291.889756 112.303606 
L 294.747805 112.310258 
L 297.605854 112.316357 
L 300.463902 112.321901 
L 303.321951 112.327445 
L 306.18 112.332434 
L 309.038049 112.33687 
L 311.896098 112.341305 
L 314.754146 112.34574 
L 317.612195 112.349621 
L 320.470244 112.353502 
L 323.328293 112.356828 
L 326.186341 112.360154 
L 329.04439 112.362926 
L 331.902439 112.365698 
" clip-path="url(#p85f35958ba)" style="fill: none; stroke: #482878; stroke-width: 3; stroke-linecap: square"/>
   </g>
   <g id="line2d_6">
    <path d="M 189 102.088231 
L 191.858049 102.891002 
L 194.716098 103.623919 
L 197.574146 104.297515 
L 200.432195 104.921215 
L 203.290244 105.497791 
L 206.148293 106.029461 
L 209.006341 109.080878 
L 211.86439 109.612548 
L 214.722439 110.035001 
L 217.580488 110.348791 
L 220.438537 110.56667 
L 223.296585 110.752949 
L 226.154634 110.919269 
L 229.012683 111.069511 
L 231.870732 111.205894 
L 234.72878 111.329525 
L 237.586829 111.443731 
L 240.444878 111.155998 
L 243.302927 111.313447 
L 246.160976 111.443177 
L 249.019024 111.553502 
L 251.877073 111.647196 
L 254.735122 111.725366 
L 257.593171 111.789677 
L 260.45122 111.841236 
L 263.309268 111.882816 
L 266.167317 111.913862 
L 269.025366 111.936593 
L 271.883415 111.952116 
L 274.741463 111.967085 
L 277.599512 111.981499 
L 280.457561 111.995359 
L 283.31561 112.00811 
L 286.173659 112.019753 
L 289.031707 112.030286 
L 291.889756 112.039711 
L 294.747805 112.048027 
L 297.605854 112.055789 
L 300.463902 112.062442 
L 303.321951 112.06854 
L 306.18 112.074084 
L 309.038049 112.079074 
L 311.896098 112.083509 
L 314.754146 112.08739 
L 317.612195 112.09127 
L 320.470244 112.094597 
L 323.328293 112.097923 
L 326.186341 112.100695 
L 329.04439 112.220446 
L 331.902439 112.222663 
" clip-path="url(#p85f35958ba)" style="fill: none; stroke: #31688e; stroke-width: 3; stroke-linecap: square"/>
   </g>
   <g id="line2d_7">
    <path d="M 189 103.645541 
L 191.858049 104.870765 
L 194.716098 105.993979 
L 197.574146 107.01463 
L 200.432195 107.932162 
L 203.290244 108.746575 
L 206.148293 109.458425 
L 209.006341 110.06771 
L 211.86439 110.575541 
L 214.722439 110.983579 
L 217.580488 111.293489 
L 220.438537 111.508042 
L 223.296585 111.636662 
L 226.154634 111.739781 
L 229.012683 111.831257 
L 231.870732 111.909982 
L 234.72878 111.975401 
L 237.586829 112.025851 
L 240.444878 112.05967 
L 243.302927 112.083509 
L 246.160976 112.105685 
L 249.019024 112.126198 
L 251.877073 112.145047 
L 254.735122 112.162234 
L 257.593171 112.178311 
L 260.45122 112.19328 
L 263.309268 112.20714 
L 266.167317 112.220446 
L 269.025366 112.232088 
L 271.883415 112.24373 
L 274.741463 112.254264 
L 277.599512 112.263689 
L 280.457561 112.273114 
L 283.31561 112.28143 
L 286.173659 112.289191 
L 289.031707 112.296953 
L 291.889756 112.303606 
L 294.747805 112.310258 
L 297.605854 112.316357 
L 300.463902 112.321346 
L 303.321951 112.318574 
L 306.18 112.306378 
L 309.038049 112.282538 
L 311.896098 112.245948 
L 314.754146 112.195498 
L 317.612195 112.130633 
L 320.470244 112.051354 
L 323.328293 111.956551 
L 326.186341 111.84678 
L 329.04439 111.723149 
L 331.902439 111.586212 
" clip-path="url(#p85f35958ba)" style="fill: none; stroke: #1f9e89; stroke-width: 3; stroke-linecap: square"/>
   </g>
   <g id="line2d_8">
    <path d="M 189 100.512072 
L 191.858049 101.481163 
L 194.716098 102.405348 
L 197.574146 103.287398 
L 200.432195 104.137848 
L 203.290244 104.964458 
L 206.148293 105.736183 
L 209.006341 106.431401 
L 211.86439 107.052883 
L 214.722439 108.065772 
L 217.580488 108.540893 
L 220.438537 109.053713 
L 223.296585 109.696262 
L 226.154634 110.074363 
L 229.012683 110.254543 
L 231.870732 110.564453 
L 234.72878 110.887668 
L 237.586829 110.856622 
L 240.444878 111.307903 
L 243.302927 111.424327 
L 246.160976 111.49529 
L 249.019024 111.503052 
L 251.877073 111.883925 
L 254.735122 111.693766 
L 257.593171 111.835138 
L 260.45122 111.937147 
L 263.309268 111.912754 
L 266.167317 112.004784 
L 269.025366 105.106385 
L 271.883415 111.871728 
L 274.741463 111.926614 
L 277.599512 112.031395 
L 280.457561 111.867847 
L 283.31561 112.046364 
L 286.173659 110.32218 
L 289.031707 111.656621 
L 291.889756 111.753086 
L 294.747805 112.061887 
L 297.605854 111.904438 
L 300.463902 101.855938 
L 303.321951 112.17942 
L 306.18 107.506937 
L 309.038049 102.09821 
L 311.896098 110.170829 
L 314.754146 106.553369 
L 317.612195 88.2432 
L 320.470244 102.307219 
L 323.328293 91.785816 
L 326.186341 104.405069 
L 329.04439 105.488921 
L 331.902439 111.413239 
" clip-path="url(#p85f35958ba)" style="fill: none; stroke: #6ece58; stroke-width: 3; stroke-linecap: square"/>
   </g>
   <g id="LineCollection_1">
    <path d="M 260.45122 145 
L 260.45122 -1 
" clip-path="url(#p85f35958ba)" style="fill: none; stroke-dasharray: 5.55,2.4; stroke-dashoffset: 0; stroke: #cb1b4f; stroke-width: 1.5"/>
   </g>
   <g id="patch_3">
    <path d="M 189 128.16 
L 189 17.28 
" style="fill: none; stroke: #000000; stroke-width: 0.8; stroke-linejoin: miter; stroke-linecap: square"/>
   </g>
   <g id="patch_4">
    <path d="M 331.902439 128.16 
L 331.902439 17.28 
" style="fill: none; stroke: #000000; stroke-width: 0.8; stroke-linejoin: miter; stroke-linecap: square"/>
   </g>
   <g id="patch_5">
    <path d="M 189 128.16 
L 331.902439 128.16 
" style="fill: none; stroke: #000000; stroke-width: 0.8; stroke-linejoin: miter; stroke-linecap: square"/>
   </g>
   <g id="patch_6">
    <path d="M 189 17.28 
L 331.902439 17.28 
" style="fill: none; stroke: #000000; stroke-width: 0.8; stroke-linejoin: miter; stroke-linecap: square"/>
   </g>
  </g>
  <g id="axes_2">
   <g id="patch_7">
    <path d="M 360.482927 128.16 
L 503.385366 128.16 
L 503.385366 17.28 
L 360.482927 17.28 
L 360.482927 128.16 
z
" style="fill: none"/>
   </g>
   <g id="matplotlib.axis_3">
    <g id="xtick_3">
     <g id="line2d_9">
      <g>
       <use xlink:href="#m538e9b3032" x="397.637561" y="128.16" style="stroke: #000000; stroke-width: 0.8"/>
      </g>
     </g>
     <g id="text_7">
      <!-- $\mathdefault{0.1}$ -->
      <g transform="translate(388.91227 144.845876) scale(0.14 -0.14)">
       <use xlink:href="#CMR17-30" transform="scale(0.996264)"/>
       <use xlink:href="#CMMI12-3a" transform="translate(45.690477 0) scale(0.996264)"/>
       <use xlink:href="#CMR17-31" transform="translate(72.787654 0) scale(0.996264)"/>
      </g>
     </g>
    </g>
    <g id="xtick_4">
     <g id="line2d_10">
      <g>
       <use xlink:href="#m538e9b3032" x="454.798537" y="128.16" style="stroke: #000000; stroke-width: 0.8"/>
      </g>
     </g>
     <g id="text_8">
      <!-- $\mathdefault{0.2}$ -->
      <g transform="translate(446.073246 144.845876) scale(0.14 -0.14)">
       <use xlink:href="#CMR17-30" transform="scale(0.996264)"/>
       <use xlink:href="#CMMI12-3a" transform="translate(45.690477 0) scale(0.996264)"/>
       <use xlink:href="#CMR17-32" transform="translate(72.787654 0) scale(0.996264)"/>
      </g>
     </g>
    </g>
    <g id="text_9">
     <!-- $a_2$ -->
     <g transform="translate(425.047982 162.627493) scale(0.16 -0.16)">
      <use xlink:href="#CMMI12-61" transform="scale(0.996264)"/>
      <use xlink:href="#CMR17-32" transform="translate(51.207858 -14.943915) scale(0.697382)"/>
     </g>
    </g>
   </g>
   <g id="matplotlib.axis_4">
    <g id="ytick_3">
     <g id="line2d_11">
      <g>
       <use xlink:href="#m8a90f94d29" x="360.482927" y="100.44" style="stroke: #000000; stroke-width: 0.8"/>
      </g>
     </g>
    </g>
    <g id="ytick_4">
     <g id="line2d_12">
      <g>
       <use xlink:href="#m8a90f94d29" x="360.482927" y="45" style="stroke: #000000; stroke-width: 0.8"/>
      </g>
     </g>
    </g>
   </g>
   <g id="line2d_13">
    <path d="M 360.482927 112.639018 
L 363.340976 112.510951 
L 366.199024 112.397299 
L 369.057073 112.296953 
L 371.915122 112.208803 
L 374.773171 112.131742 
L 377.63122 112.065768 
L 380.489268 112.009774 
L 383.347317 111.963204 
L 386.205366 111.926614 
L 389.063415 111.900557 
L 391.921463 111.887806 
L 394.779512 111.88836 
L 397.637561 111.89335 
L 400.49561 111.900002 
L 403.353659 111.90721 
L 406.211707 111.914417 
L 409.069756 111.922178 
L 411.927805 111.92994 
L 414.785854 111.937147 
L 417.643902 111.944909 
L 420.501951 111.95267 
L 423.36 111.959878 
L 426.218049 111.967639 
L 429.076098 111.975401 
L 431.934146 111.982608 
L 434.792195 111.99037 
L 437.650244 111.998131 
L 440.508293 112.005893 
L 443.366341 110.542277 
L 446.22439 110.527862 
L 449.082439 110.51123 
L 451.940488 110.491826 
L 454.798537 112.046364 
L 457.656585 110.442485 
L 460.514634 110.411993 
L 463.372683 110.37762 
L 466.230732 110.335486 
L 469.08878 110.273947 
L 471.946829 110.185798 
L 474.804878 112.058006 
L 477.662927 109.974571 
L 480.520976 109.853158 
L 483.379024 109.718438 
L 486.237073 109.568196 
L 489.095122 109.400213 
L 491.953171 109.210608 
L 494.81122 108.99661 
L 497.669268 108.754891 
L 500.527317 108.482126 
L 503.385366 108.174434 
" clip-path="url(#p1dd198e631)" style="fill: none; stroke: #482878; stroke-width: 3; stroke-linecap: square"/>
   </g>
   <g id="line2d_14">
    <path d="M 360.482927 111.866184 
L 363.340976 112.025297 
L 366.199024 112.13285 
L 369.057073 112.142275 
L 371.915122 112.111783 
L 374.773171 112.078519 
L 377.63122 112.043038 
L 380.489268 112.004784 
L 383.347317 111.963204 
L 386.205366 111.926614 
L 389.063415 111.900557 
L 391.921463 111.887806 
L 394.779512 111.88836 
L 397.637561 111.89335 
L 400.49561 111.900002 
L 403.353659 111.90721 
L 406.211707 111.914417 
L 409.069756 111.922178 
L 411.927805 111.92994 
L 414.785854 111.937147 
L 417.643902 111.944909 
L 420.501951 111.95267 
L 423.36 111.959878 
L 426.218049 111.967639 
L 429.076098 111.975401 
L 431.934146 111.982608 
L 434.792195 111.99037 
L 437.650244 111.998131 
L 440.508293 112.005893 
L 443.366341 112.013654 
L 446.22439 112.021416 
L 449.082439 112.028623 
L 451.940488 112.029732 
L 454.798537 112.022525 
L 457.656585 112.00423 
L 460.514634 111.919406 
L 463.372683 110.744078 
L 466.230732 106.912066 
L 469.08878 101.404102 
L 471.946829 95.167656 
L 474.804878 88.764336 
L 477.662927 82.488528 
L 480.520976 76.501008 
L 483.379024 71.16768 
L 486.237073 67.392216 
L 489.095122 63.722088 
L 491.953171 60.140664 
L 494.81122 56.686752 
L 497.669268 53.410248 
L 500.527317 50.305608 
L 503.385366 47.339568 
" clip-path="url(#p1dd198e631)" style="fill: none; stroke: #31688e; stroke-width: 3; stroke-linecap: square"/>
   </g>
   <g id="line2d_15">
    <path d="M 360.482927 112.639018 
L 363.340976 112.510951 
L 366.199024 112.397299 
L 369.057073 112.296953 
L 371.915122 112.208803 
L 374.773171 112.131742 
L 377.63122 112.065768 
L 380.489268 112.009774 
L 383.347317 111.963204 
L 386.205366 111.926614 
L 389.063415 111.900557 
L 391.921463 111.887806 
L 394.779512 111.88836 
L 397.637561 111.89335 
L 400.49561 111.900002 
L 403.353659 111.90721 
L 406.211707 111.914417 
L 409.069756 111.922178 
L 411.927805 111.92994 
L 414.785854 111.937147 
L 417.643902 111.944909 
L 420.501951 111.95267 
L 423.36 111.959878 
L 426.218049 111.967639 
L 429.076098 111.975401 
L 431.934146 111.982608 
L 434.792195 111.99037 
L 437.650244 111.998131 
L 440.508293 112.005338 
L 443.366341 112.011991 
L 446.22439 112.018644 
L 449.082439 112.014209 
L 451.940488 111.993696 
L 454.798537 111.954334 
L 457.656585 111.893904 
L 460.514634 111.809635 
L 463.372683 111.701527 
L 466.230732 111.570134 
L 469.08878 111.414348 
L 471.946829 111.233059 
L 474.804878 111.018506 
L 477.662927 110.7657 
L 480.520976 110.47464 
L 483.379024 110.144218 
L 486.237073 109.776096 
L 489.095122 109.368612 
L 491.953171 108.915113 
L 494.81122 108.415044 
L 497.669268 107.868406 
L 500.527317 107.261338 
L 503.385366 106.376515 
" clip-path="url(#p1dd198e631)" style="fill: none; stroke: #1f9e89; stroke-width: 3; stroke-linecap: square"/>
   </g>
   <g id="line2d_16">
    <path d="M 360.482927 111.866184 
L 363.340976 112.025297 
L 366.199024 112.13285 
L 369.057073 112.142275 
L 371.915122 112.111783 
L 374.773171 112.078519 
L 377.63122 112.043038 
L 380.489268 112.004784 
L 383.347317 111.963204 
L 386.205366 111.926614 
L 389.063415 111.900557 
L 391.921463 111.887806 
L 394.779512 111.88836 
L 397.637561 111.89335 
L 400.49561 111.900002 
L 403.353659 111.90721 
L 406.211707 111.914417 
L 409.069756 111.922178 
L 411.927805 111.92994 
L 414.785854 111.937147 
L 417.643902 111.944909 
L 420.501951 111.95267 
L 423.36 111.959878 
L 426.218049 111.967639 
L 429.076098 111.975401 
L 431.934146 111.982608 
L 434.792195 111.99037 
L 437.650244 111.997577 
L 440.508293 112.004784 
L 443.366341 112.011991 
L 446.22439 112.003121 
L 449.082439 111.575678 
L 451.940488 110.520101 
L 454.798537 108.814212 
L 457.656585 106.472426 
L 460.514634 103.496962 
L 463.372683 99.680472 
L 466.230732 95.261904 
L 469.08878 90.510696 
L 471.946829 85.626432 
L 474.804878 80.459424 
L 477.662927 75.087288 
L 480.520976 69.72624 
L 483.379024 64.331928 
L 486.237073 48.032568 
L 489.095122 53.770608 
L 491.953171 43.83576 
L 494.81122 35.885664 
L 497.669268 38.219688 
L 500.527317 18.33336 
L 503.385366 3.009744 
" clip-path="url(#p1dd198e631)" style="fill: none; stroke: #6ece58; stroke-width: 3; stroke-linecap: square"/>
   </g>
   <g id="LineCollection_2">
    <path d="M 431.934146 145 
L 431.934146 -1 
" clip-path="url(#p1dd198e631)" style="fill: none; stroke-dasharray: 5.55,2.4; stroke-dashoffset: 0; stroke: #cb1b4f; stroke-width: 1.5"/>
   </g>
   <g id="patch_8">
    <path d="M 360.482927 128.16 
L 360.482927 17.28 
" style="fill: none; stroke: #000000; stroke-width: 0.8; stroke-linejoin: miter; stroke-linecap: square"/>
   </g>
   <g id="patch_9">
    <path d="M 503.385366 128.16 
L 503.385366 17.28 
" style="fill: none; stroke: #000000; stroke-width: 0.8; stroke-linejoin: miter; stroke-linecap: square"/>
   </g>
   <g id="patch_10">
    <path d="M 360.482927 128.16 
L 503.385366 128.16 
" style="fill: none; stroke: #000000; stroke-width: 0.8; stroke-linejoin: miter; stroke-linecap: square"/>
   </g>
   <g id="patch_11">
    <path d="M 360.482927 17.28 
L 503.385366 17.28 
" style="fill: none; stroke: #000000; stroke-width: 0.8; stroke-linejoin: miter; stroke-linecap: square"/>
   </g>
  </g>
  <g id="axes_3">
   <g id="patch_12">
    <path d="M 531.965854 128.16 
L 674.868293 128.16 
L 674.868293 17.28 
L 531.965854 17.28 
L 531.965854 128.16 
z
" style="fill: none"/>
   </g>
   <g id="matplotlib.axis_5">
    <g id="xtick_5">
     <g id="line2d_17">
      <g>
       <use xlink:href="#m538e9b3032" x="574.836585" y="128.16" style="stroke: #000000; stroke-width: 0.8"/>
      </g>
     </g>
     <g id="text_10">
      <!-- $\mathdefault{0.1}$ -->
      <g transform="translate(566.111294 144.845876) scale(0.14 -0.14)">
       <use xlink:href="#CMR17-30" transform="scale(0.996264)"/>
       <use xlink:href="#CMMI12-3a" transform="translate(45.690477 0) scale(0.996264)"/>
       <use xlink:href="#CMR17-31" transform="translate(72.787654 0) scale(0.996264)"/>
      </g>
     </g>
    </g>
    <g id="xtick_6">
     <g id="line2d_18">
      <g>
       <use xlink:href="#m538e9b3032" x="631.997561" y="128.16" style="stroke: #000000; stroke-width: 0.8"/>
      </g>
     </g>
     <g id="text_11">
      <!-- $\mathdefault{0.2}$ -->
      <g transform="translate(623.27227 144.845876) scale(0.14 -0.14)">
       <use xlink:href="#CMR17-30" transform="scale(0.996264)"/>
       <use xlink:href="#CMMI12-3a" transform="translate(45.690477 0) scale(0.996264)"/>
       <use xlink:href="#CMR17-32" transform="translate(72.787654 0) scale(0.996264)"/>
      </g>
     </g>
    </g>
    <g id="text_12">
     <!-- $a_3$ -->
     <g transform="translate(596.530909 162.627493) scale(0.16 -0.16)">
      <defs>
       <path id="CMR17-33" d="M 1414 2157 
C 1984 2157 2234 1662 2234 1090 
C 2234 320 1824 25 1453 25 
C 1114 25 563 194 390 693 
C 422 680 454 680 486 680 
C 640 680 755 782 755 948 
C 755 1133 614 1216 486 1216 
C 378 1216 211 1165 211 926 
C 211 335 787 -128 1466 -128 
C 2176 -128 2720 430 2720 1085 
C 2720 1707 2208 2157 1600 2227 
C 2086 2328 2554 2756 2554 3329 
C 2554 3820 2048 4179 1472 4179 
C 890 4179 378 3829 378 3329 
C 378 3110 544 3072 627 3072 
C 762 3072 877 3155 877 3321 
C 877 3486 762 3569 627 3569 
C 602 3569 570 3569 544 3557 
C 730 3959 1235 4032 1459 4032 
C 1683 4032 2106 3925 2106 3320 
C 2106 3143 2080 2828 1862 2550 
C 1670 2304 1453 2304 1242 2284 
C 1210 2284 1062 2269 1037 2269 
C 992 2263 966 2257 966 2208 
C 966 2163 973 2157 1101 2157 
L 1414 2157 
z
" transform="scale(0.015625)"/>
      </defs>
      <use xlink:href="#CMMI12-61" transform="scale(0.996264)"/>
      <use xlink:href="#CMR17-33" transform="translate(51.207858 -14.943915) scale(0.697382)"/>
     </g>
    </g>
   </g>
   <g id="matplotlib.axis_6">
    <g id="ytick_5">
     <g id="line2d_19">
      <g>
       <use xlink:href="#m8a90f94d29" x="531.965854" y="100.44" style="stroke: #000000; stroke-width: 0.8"/>
      </g>
     </g>
    </g>
    <g id="ytick_6">
     <g id="line2d_20">
      <g>
       <use xlink:href="#m8a90f94d29" x="531.965854" y="45" style="stroke: #000000; stroke-width: 0.8"/>
      </g>
     </g>
    </g>
   </g>
   <g id="line2d_21">
    <path d="M 531.965854 112.074638 
L 537.681951 112.080737 
L 543.398049 112.085726 
L 549.114146 112.090716 
L 554.830244 112.084618 
L 560.546341 112.074084 
L 566.262439 109.099174 
L 571.978537 112.05468 
L 577.694634 112.045255 
L 583.410732 110.060503 
L 589.126829 112.027514 
L 594.842927 110.385936 
L 600.559024 112.010328 
L 606.275122 110.465215 
L 611.99122 111.993696 
L 617.707317 111.985934 
L 623.423415 111.977618 
L 629.139512 110.549484 
L 634.85561 110.561126 
L 640.571707 111.953225 
L 646.287805 110.57665 
L 652.003902 111.936038 
L 657.72 111.927722 
L 663.436098 111.918852 
L 669.152195 111.909982 
L 674.868293 111.900557 
" clip-path="url(#p3fdca06564)" style="fill: none; stroke: #482878; stroke-width: 3; stroke-linecap: square"/>
   </g>
   <g id="line2d_22">
    <path d="M 531.965854 111.923287 
L 537.681951 111.93881 
L 543.398049 111.953779 
L 549.114146 111.969857 
L 554.830244 111.98538 
L 560.546341 112.000903 
L 566.262439 112.015318 
L 571.978537 112.025297 
L 577.694634 112.029732 
L 583.410732 112.029732 
L 589.126829 112.025851 
L 594.842927 112.018644 
L 600.559024 112.010328 
L 606.275122 112.002012 
L 611.99122 111.993696 
L 617.707317 111.985934 
L 623.423415 111.977618 
L 629.139512 111.969302 
L 634.85561 111.960986 
L 640.571707 111.953225 
L 646.287805 111.944909 
L 652.003902 111.936038 
L 657.72 111.927722 
L 663.436098 112.000349 
L 669.152195 112.030841 
L 674.868293 112.058561 
" clip-path="url(#p3fdca06564)" style="fill: none; stroke: #31688e; stroke-width: 3; stroke-linecap: square"/>
   </g>
   <g id="line2d_23">
    <path d="M 531.965854 108.587462 
L 537.681951 109.666879 
L 543.398049 110.486282 
L 549.114146 111.085034 
L 554.830244 111.493627 
L 560.546341 111.7359 
L 566.262439 111.84179 
L 571.978537 111.903329 
L 577.694634 111.947681 
L 583.410732 111.980945 
L 589.126829 112.006447 
L 594.842927 112.016981 
L 600.559024 112.009219 
L 606.275122 112.002012 
L 611.99122 111.993696 
L 617.707317 111.985934 
L 623.423415 111.977618 
L 629.139512 112.162234 
L 634.85561 112.185518 
L 640.571707 112.206586 
L 646.287805 112.225435 
L 652.003902 112.242622 
L 657.72 112.258699 
L 663.436098 112.273114 
L 669.152195 112.286419 
L 674.868293 112.296398 
" clip-path="url(#p3fdca06564)" style="fill: none; stroke: #1f9e89; stroke-width: 3; stroke-linecap: square"/>
   </g>
   <g id="line2d_24">
    <path d="M 531.965854 106.203542 
L 537.681951 108.148932 
L 543.398049 109.517746 
L 549.114146 110.491826 
L 554.830244 111.152117 
L 560.546341 111.557383 
L 566.262439 111.752532 
L 571.978537 111.85177 
L 577.694634 111.918852 
L 583.410732 111.964867 
L 589.126829 111.998131 
L 594.842927 112.016426 
L 600.559024 112.009219 
L 606.275122 112.002012 
L 611.99122 111.993696 
L 617.707317 111.985934 
L 623.423415 111.977618 
L 629.139512 111.968748 
L 634.85561 111.960986 
L 640.571707 111.953225 
L 646.287805 111.944354 
L 652.003902 111.919961 
L 657.72 111.956551 
L 663.436098 111.984826 
L 669.152195 112.030841 
L 674.868293 112.058006 
" clip-path="url(#p3fdca06564)" style="fill: none; stroke: #6ece58; stroke-width: 3; stroke-linecap: square"/>
   </g>
   <g id="LineCollection_3">
    <path d="M 603.417073 145 
L 603.417073 -1 
" clip-path="url(#p3fdca06564)" style="fill: none; stroke-dasharray: 5.55,2.4; stroke-dashoffset: 0; stroke: #cb1b4f; stroke-width: 1.5"/>
   </g>
   <g id="patch_13">
    <path d="M 531.965854 128.16 
L 531.965854 17.28 
" style="fill: none; stroke: #000000; stroke-width: 0.8; stroke-linejoin: miter; stroke-linecap: square"/>
   </g>
   <g id="patch_14">
    <path d="M 674.868293 128.16 
L 674.868293 17.28 
" style="fill: none; stroke: #000000; stroke-width: 0.8; stroke-linejoin: miter; stroke-linecap: square"/>
   </g>
   <g id="patch_15">
    <path d="M 531.965854 128.16 
L 674.868293 128.16 
" style="fill: none; stroke: #000000; stroke-width: 0.8; stroke-linejoin: miter; stroke-linecap: square"/>
   </g>
   <g id="patch_16">
    <path d="M 531.965854 17.28 
L 674.868293 17.28 
" style="fill: none; stroke: #000000; stroke-width: 0.8; stroke-linejoin: miter; stroke-linecap: square"/>
   </g>
  </g>
  <g id="axes_4">
   <g id="patch_17">
    <path d="M 703.44878 128.16 
L 846.35122 128.16 
L 846.35122 17.28 
L 703.44878 17.28 
L 703.44878 128.16 
z
" style="fill: none"/>
   </g>
   <g id="matplotlib.axis_7">
    <g id="xtick_7">
     <g id="line2d_25">
      <g>
       <use xlink:href="#m538e9b3032" x="746.319512" y="128.16" style="stroke: #000000; stroke-width: 0.8"/>
      </g>
     </g>
     <g id="text_13">
      <!-- $\mathdefault{0.1}$ -->
      <g transform="translate(737.594221 144.845876) scale(0.14 -0.14)">
       <use xlink:href="#CMR17-30" transform="scale(0.996264)"/>
       <use xlink:href="#CMMI12-3a" transform="translate(45.690477 0) scale(0.996264)"/>
       <use xlink:href="#CMR17-31" transform="translate(72.787654 0) scale(0.996264)"/>
      </g>
     </g>
    </g>
    <g id="xtick_8">
     <g id="line2d_26">
      <g>
       <use xlink:href="#m538e9b3032" x="803.480488" y="128.16" style="stroke: #000000; stroke-width: 0.8"/>
      </g>
     </g>
     <g id="text_14">
      <!-- $\mathdefault{0.2}$ -->
      <g transform="translate(794.755197 144.845876) scale(0.14 -0.14)">
       <use xlink:href="#CMR17-30" transform="scale(0.996264)"/>
       <use xlink:href="#CMMI12-3a" transform="translate(45.690477 0) scale(0.996264)"/>
       <use xlink:href="#CMR17-32" transform="translate(72.787654 0) scale(0.996264)"/>
      </g>
     </g>
    </g>
    <g id="text_15">
     <!-- $a_4$ -->
     <g transform="translate(768.013836 162.627493) scale(0.16 -0.16)">
      <use xlink:href="#CMMI12-61" transform="scale(0.996264)"/>
      <use xlink:href="#CMR17-34" transform="translate(51.207858 -14.943915) scale(0.697382)"/>
     </g>
    </g>
   </g>
   <g id="matplotlib.axis_8">
    <g id="ytick_7">
     <g id="line2d_27">
      <g>
       <use xlink:href="#m8a90f94d29" x="703.44878" y="100.44" style="stroke: #000000; stroke-width: 0.8"/>
      </g>
     </g>
    </g>
    <g id="ytick_8">
     <g id="line2d_28">
      <g>
       <use xlink:href="#m8a90f94d29" x="703.44878" y="45" style="stroke: #000000; stroke-width: 0.8"/>
      </g>
     </g>
    </g>
   </g>
   <g id="line2d_29">
    <path d="M 703.44878 105.9147 
L 709.164878 106.360992 
L 714.880976 106.783999 
L 720.597073 107.183722 
L 726.313171 107.561268 
L 732.029268 107.916638 
L 737.745366 108.251496 
L 743.461463 108.570276 
L 749.177561 110.376511 
L 754.893659 111.611714 
L 760.609756 112.088498 
L 766.325854 112.019198 
L 772.041951 111.964867 
L 777.758049 111.923287 
L 783.474146 111.893904 
L 789.190244 111.890023 
L 794.906341 111.933821 
L 800.622439 112.016426 
L 806.338537 112.121208 
L 812.054634 112.238186 
L 817.770732 112.19827 
L 823.486829 111.253018 
L 829.202927 110.092658 
L 834.919024 109.338674 
L 840.635122 108.573048 
L 846.35122 107.798551 
" clip-path="url(#p112d42ef1d)" style="fill: none; stroke: #482878; stroke-width: 3; stroke-linecap: square"/>
   </g>
   <g id="line2d_30">
    <path d="M 749.477317 -1 
L 754.893659 105.460646 
L 760.609756 111.793558 
L 766.325854 112.019198 
L 772.041951 111.964867 
L 777.758049 111.923287 
L 783.474146 111.893904 
L 789.190244 111.890023 
L 794.906341 111.933821 
L 800.622439 112.016426 
L 806.338537 112.093488 
L 812.054634 112.139503 
L 817.770732 101.837088 
L 823.486829 110.817259 
L 829.202927 100.207152 
L 834.919024 98.654832 
L 840.635122 92.395656 
L 846.35122 83.187072 
" clip-path="url(#p112d42ef1d)" style="fill: none; stroke: #31688e; stroke-width: 3; stroke-linecap: square"/>
   </g>
   <g id="line2d_31">
    <path d="M 703.44878 104.081299 
L 709.164878 104.760439 
L 714.880976 105.419621 
L 720.597073 106.060507 
L 726.313171 106.683653 
L 732.029268 107.29183 
L 737.745366 107.889473 
L 743.461463 108.4788 
L 749.177561 110.043871 
L 754.893659 111.346157 
L 760.609756 111.867847 
L 766.325854 112.0131 
L 772.041951 111.964867 
L 777.758049 111.923287 
L 783.474146 111.893904 
L 789.190244 111.890023 
L 794.906341 111.933821 
L 800.622439 112.016426 
L 806.338537 112.121208 
L 812.054634 112.238186 
L 817.770732 112.19827 
L 823.486829 111.124397 
L 829.202927 109.391342 
L 834.919024 107.603957 
L 840.635122 105.855934 
L 846.35122 103.836254 
" clip-path="url(#p112d42ef1d)" style="fill: none; stroke: #1f9e89; stroke-width: 3; stroke-linecap: square"/>
   </g>
   <g id="line2d_32">
    <path d="M 752.543866 -1 
L 754.893659 98.865504 
L 760.609756 110.625991 
L 766.325854 112.0131 
L 772.041951 111.964867 
L 777.758049 111.923287 
L 783.474146 111.893904 
L 789.190244 111.890023 
L 794.906341 111.933821 
L 800.622439 112.016426 
L 806.338537 112.093488 
L 812.054634 112.139503 
L 817.770732 111.645533 
L 823.486829 110.357107 
L 829.202927 108.020866 
L 834.919024 91.73592 
L 840.635122 86.679792 
L 846.35122 77.077584 
" clip-path="url(#p112d42ef1d)" style="fill: none; stroke: #6ece58; stroke-width: 3; stroke-linecap: square"/>
   </g>
   <g id="LineCollection_4">
    <path d="M 774.9 145 
L 774.9 -1 
" clip-path="url(#p112d42ef1d)" style="fill: none; stroke-dasharray: 5.55,2.4; stroke-dashoffset: 0; stroke: #cb1b4f; stroke-width: 1.5"/>
   </g>
   <g id="patch_18">
    <path d="M 703.44878 128.16 
L 703.44878 17.28 
" style="fill: none; stroke: #000000; stroke-width: 0.8; stroke-linejoin: miter; stroke-linecap: square"/>
   </g>
   <g id="patch_19">
    <path d="M 846.35122 128.16 
L 846.35122 17.28 
" style="fill: none; stroke: #000000; stroke-width: 0.8; stroke-linejoin: miter; stroke-linecap: square"/>
   </g>
   <g id="patch_20">
    <path d="M 703.44878 128.16 
L 846.35122 128.16 
" style="fill: none; stroke: #000000; stroke-width: 0.8; stroke-linejoin: miter; stroke-linecap: square"/>
   </g>
   <g id="patch_21">
    <path d="M 703.44878 17.28 
L 846.35122 17.28 
" style="fill: none; stroke: #000000; stroke-width: 0.8; stroke-linejoin: miter; stroke-linecap: square"/>
   </g>
  </g>
  <g id="axes_5">
   <g id="patch_22">
    <path d="M 874.931707 128.16 
L 1017.834146 128.16 
L 1017.834146 17.28 
L 874.931707 17.28 
L 874.931707 128.16 
z
" style="fill: none"/>
   </g>
   <g id="matplotlib.axis_9">
    <g id="xtick_9">
     <g id="line2d_33">
      <g>
       <use xlink:href="#m538e9b3032" x="939.237805" y="128.16" style="stroke: #000000; stroke-width: 0.8"/>
      </g>
     </g>
     <g id="text_16">
      <!-- $\mathdefault{0.1}$ -->
      <g transform="translate(930.512514 144.845876) scale(0.14 -0.14)">
       <use xlink:href="#CMR17-30" transform="scale(0.996264)"/>
       <use xlink:href="#CMMI12-3a" transform="translate(45.690477 0) scale(0.996264)"/>
       <use xlink:href="#CMR17-31" transform="translate(72.787654 0) scale(0.996264)"/>
      </g>
     </g>
    </g>
    <g id="xtick_10">
     <g id="line2d_34">
      <g>
       <use xlink:href="#m538e9b3032" x="1010.689024" y="128.16" style="stroke: #000000; stroke-width: 0.8"/>
      </g>
     </g>
     <g id="text_17">
      <!-- $\mathdefault{0.2}$ -->
      <g transform="translate(1001.963733 144.845876) scale(0.14 -0.14)">
       <use xlink:href="#CMR17-30" transform="scale(0.996264)"/>
       <use xlink:href="#CMMI12-3a" transform="translate(45.690477 0) scale(0.996264)"/>
       <use xlink:href="#CMR17-32" transform="translate(72.787654 0) scale(0.996264)"/>
      </g>
     </g>
    </g>
    <g id="text_18">
     <!-- $a_5$ -->
     <g transform="translate(939.496763 162.627493) scale(0.16 -0.16)">
      <use xlink:href="#CMMI12-61" transform="scale(0.996264)"/>
      <use xlink:href="#CMR17-35" transform="translate(51.207858 -14.943915) scale(0.697382)"/>
     </g>
    </g>
   </g>
   <g id="matplotlib.axis_10">
    <g id="ytick_9">
     <g id="line2d_35">
      <g>
       <use xlink:href="#m8a90f94d29" x="874.931707" y="100.44" style="stroke: #000000; stroke-width: 0.8"/>
      </g>
     </g>
    </g>
    <g id="ytick_10">
     <g id="line2d_36">
      <g>
       <use xlink:href="#m8a90f94d29" x="874.931707" y="45" style="stroke: #000000; stroke-width: 0.8"/>
      </g>
     </g>
    </g>
   </g>
   <g id="line2d_37">
    <path d="M 885.149773 -1 
L 889.221951 86.674248 
L 896.367073 95.295168 
L 903.512195 103.00909 
L 910.657317 108.735487 
L 917.802439 110.465215 
L 924.947561 110.53895 
L 932.092683 112.090716 
L 939.237805 112.009219 
L 946.382927 111.947681 
L 953.528049 111.903329 
L 960.673171 111.88836 
L 967.818293 111.953779 
L 974.963415 112.074084 
L 982.108537 112.218782 
L 989.253659 112.105685 
L 996.39878 110.324398 
L 1003.543902 109.239437 
L 1010.689024 108.146714 
L 1017.834146 107.06508 
" clip-path="url(#p3975c45043)" style="fill: none; stroke: #482878; stroke-width: 3; stroke-linecap: square"/>
   </g>
   <g id="line2d_38">
    <path d="M 930.554011 -1 
L 932.092683 111.74976 
L 939.237805 112.009219 
L 946.382927 111.947681 
L 953.528049 111.903329 
L 960.673171 111.88836 
L 967.818293 103.465915 
L 974.963415 112.061333 
L 982.108537 101.041524 
L 989.253659 111.47755 
L 996.39878 110.300558 
L 1003.543902 108.50153 
L 1010.689024 98.372088 
L 1017.834146 67.81356 
" clip-path="url(#p3975c45043)" style="fill: none; stroke: #31688e; stroke-width: 3; stroke-linecap: square"/>
   </g>
   <g id="line2d_39">
    <path d="M 896.154358 -1 
L 896.367073 8.43732 
L 903.512195 40.448376 
L 910.657317 83.785824 
L 917.802439 101.602022 
L 924.947561 108.874087 
L 932.092683 111.75475 
L 939.237805 112.005893 
L 946.382927 111.947681 
L 953.528049 111.903329 
L 960.673171 111.88836 
L 967.818293 111.953779 
L 974.963415 112.074084 
L 982.108537 112.218782 
L 989.253659 112.086281 
L 996.39878 109.916914 
L 1003.543902 107.457595 
L 1010.689024 104.948935 
L 1017.834146 101.80327 
" clip-path="url(#p3975c45043)" style="fill: none; stroke: #1f9e89; stroke-width: 3; stroke-linecap: square"/>
   </g>
   <g id="line2d_40">
    <path d="M 932.092683 -1 
L 932.092683 108.914004 
L 939.237805 112.005893 
L 946.382927 111.947681 
L 953.528049 111.903329 
L 960.673171 111.888914 
L 967.818293 111.953779 
L 974.963415 112.061333 
L 982.108537 112.136177 
L 989.253659 111.47755 
L 996.39878 109.460088 
L 1003.543902 106.013383 
L 1010.689024 97.401888 
L 1017.834146 81.512784 
" clip-path="url(#p3975c45043)" style="fill: none; stroke: #6ece58; stroke-width: 3; stroke-linecap: square"/>
   </g>
   <g id="LineCollection_5">
    <path d="M 946.382927 145 
L 946.382927 -1 
" clip-path="url(#p3975c45043)" style="fill: none; stroke-dasharray: 5.55,2.4; stroke-dashoffset: 0; stroke: #cb1b4f; stroke-width: 1.5"/>
   </g>
   <g id="patch_23">
    <path d="M 874.931707 128.16 
L 874.931707 17.28 
" style="fill: none; stroke: #000000; stroke-width: 0.8; stroke-linejoin: miter; stroke-linecap: square"/>
   </g>
   <g id="patch_24">
    <path d="M 1017.834146 128.16 
L 1017.834146 17.28 
" style="fill: none; stroke: #000000; stroke-width: 0.8; stroke-linejoin: miter; stroke-linecap: square"/>
   </g>
   <g id="patch_25">
    <path d="M 874.931707 128.16 
L 1017.834146 128.16 
" style="fill: none; stroke: #000000; stroke-width: 0.8; stroke-linejoin: miter; stroke-linecap: square"/>
   </g>
   <g id="patch_26">
    <path d="M 874.931707 17.28 
L 1017.834146 17.28 
" style="fill: none; stroke: #000000; stroke-width: 0.8; stroke-linejoin: miter; stroke-linecap: square"/>
   </g>
  </g>
  <g id="axes_6">
   <g id="patch_27">
    <path d="M 1046.414634 128.16 
L 1189.317073 128.16 
L 1189.317073 17.28 
L 1046.414634 17.28 
L 1046.414634 128.16 
z
" style="fill: none"/>
   </g>
   <g id="matplotlib.axis_11">
    <g id="xtick_11">
     <g id="line2d_41">
      <g>
       <use xlink:href="#m538e9b3032" x="1060.704878" y="128.16" style="stroke: #000000; stroke-width: 0.8"/>
      </g>
     </g>
     <g id="text_19">
      <!-- $\mathdefault{0.07}$ -->
      <g transform="translate(1048.565343 144.845876) scale(0.14 -0.14)">
       <defs>
        <path id="CMR17-37" d="M 2886 3941 
L 2886 4081 
L 1382 4081 
C 634 4081 621 4165 595 4288 
L 480 4288 
L 294 3094 
L 410 3094 
C 429 3215 474 3540 550 3661 
C 589 3712 1062 3712 1171 3712 
L 2579 3712 
L 1869 2661 
C 1395 1954 1069 999 1069 165 
C 1069 89 1069 -128 1299 -128 
C 1530 -128 1530 89 1530 171 
L 1530 465 
C 1530 1508 1709 2196 2003 2636 
L 2886 3941 
z
" transform="scale(0.015625)"/>
       </defs>
       <use xlink:href="#CMR17-30" transform="scale(0.996264)"/>
       <use xlink:href="#CMMI12-3a" transform="translate(45.690477 0) scale(0.996264)"/>
       <use xlink:href="#CMR17-30" transform="translate(72.787654 0) scale(0.996264)"/>
       <use xlink:href="#CMR17-37" transform="translate(118.478131 0) scale(0.996264)"/>
      </g>
     </g>
    </g>
    <g id="xtick_12">
     <g id="line2d_42">
      <g>
       <use xlink:href="#m538e9b3032" x="1117.865854" y="128.16" style="stroke: #000000; stroke-width: 0.8"/>
      </g>
     </g>
     <g id="text_20">
      <!-- $\mathdefault{0.08}$ -->
      <g transform="translate(1105.726318 144.845876) scale(0.14 -0.14)">
       <defs>
        <path id="CMR17-38" d="M 1741 2264 
C 2144 2467 2554 2773 2554 3263 
C 2554 3841 1990 4179 1472 4179 
C 890 4179 378 3759 378 3180 
C 378 3021 416 2747 666 2505 
C 730 2442 998 2251 1171 2130 
C 883 1983 211 1634 211 934 
C 211 279 838 -128 1459 -128 
C 2144 -128 2720 362 2720 1010 
C 2720 1590 2330 1857 2074 2029 
L 1741 2264 
z
M 902 2822 
C 851 2854 595 3051 595 3351 
C 595 3739 998 4032 1459 4032 
C 1965 4032 2336 3676 2336 3262 
C 2336 2669 1670 2331 1638 2331 
C 1632 2331 1626 2331 1574 2370 
L 902 2822 
z
M 2080 1519 
C 2176 1449 2483 1240 2483 851 
C 2483 381 2010 25 1472 25 
C 890 25 448 438 448 940 
C 448 1443 838 1862 1280 2060 
L 2080 1519 
z
" transform="scale(0.015625)"/>
       </defs>
       <use xlink:href="#CMR17-30" transform="scale(0.996264)"/>
       <use xlink:href="#CMMI12-3a" transform="translate(45.690477 0) scale(0.996264)"/>
       <use xlink:href="#CMR17-30" transform="translate(72.787654 0) scale(0.996264)"/>
       <use xlink:href="#CMR17-38" transform="translate(118.478131 0) scale(0.996264)"/>
      </g>
     </g>
    </g>
    <g id="xtick_13">
     <g id="line2d_43">
      <g>
       <use xlink:href="#m538e9b3032" x="1175.026829" y="128.16" style="stroke: #000000; stroke-width: 0.8"/>
      </g>
     </g>
     <g id="text_21">
      <!-- $\mathdefault{0.09}$ -->
      <g transform="translate(1162.887294 144.845876) scale(0.14 -0.14)">
       <defs>
        <path id="CMR17-39" d="M 2253 1864 
C 2253 464 1670 31 1190 31 
C 1043 31 685 31 538 294 
C 704 268 826 357 826 518 
C 826 692 685 749 595 749 
C 538 749 365 723 365 506 
C 365 71 742 -128 1203 -128 
C 1939 -128 2688 674 2688 2073 
C 2688 3817 1971 4179 1485 4179 
C 851 4179 243 3628 243 2778 
C 243 1991 762 1408 1414 1408 
C 1952 1408 2189 1903 2253 2112 
L 2253 1864 
z
M 1427 1510 
C 1254 1510 1011 1542 813 1922 
C 678 2169 678 2461 678 2771 
C 678 3146 678 3405 858 3684 
C 947 3817 1114 4032 1485 4032 
C 2240 4032 2240 2885 2240 2632 
C 2240 2182 2035 1510 1427 1510 
z
" transform="scale(0.015625)"/>
       </defs>
       <use xlink:href="#CMR17-30" transform="scale(0.996264)"/>
       <use xlink:href="#CMMI12-3a" transform="translate(45.690477 0) scale(0.996264)"/>
       <use xlink:href="#CMR17-30" transform="translate(72.787654 0) scale(0.996264)"/>
       <use xlink:href="#CMR17-39" transform="translate(118.478131 0) scale(0.996264)"/>
      </g>
     </g>
    </g>
    <g id="text_22">
     <!-- $a_7$ -->
     <g transform="translate(1110.979689 162.627493) scale(0.16 -0.16)">
      <use xlink:href="#CMMI12-61" transform="scale(0.996264)"/>
      <use xlink:href="#CMR17-37" transform="translate(51.207858 -14.943915) scale(0.697382)"/>
     </g>
    </g>
   </g>
   <g id="matplotlib.axis_12">
    <g id="ytick_11">
     <g id="line2d_44">
      <g>
       <use xlink:href="#m8a90f94d29" x="1046.414634" y="100.44" style="stroke: #000000; stroke-width: 0.8"/>
      </g>
     </g>
    </g>
    <g id="ytick_12">
     <g id="line2d_45">
      <g>
       <use xlink:href="#m8a90f94d29" x="1046.414634" y="45" style="stroke: #000000; stroke-width: 0.8"/>
      </g>
     </g>
    </g>
   </g>
   <g id="line2d_46">
    <path d="M 1046.414634 112.296398 
L 1052.130732 111.954334 
L 1057.846829 112.292518 
L 1063.562927 112.287528 
L 1069.279024 112.28143 
L 1074.995122 112.274222 
L 1080.71122 112.267015 
L 1086.427317 112.259254 
L 1092.143415 112.251492 
L 1097.859512 112.243176 
L 1103.57561 112.23486 
L 1109.291707 112.22599 
L 1115.007805 112.217119 
L 1120.723902 112.208249 
L 1126.44 112.198824 
L 1132.156098 112.188845 
L 1137.872195 112.178866 
L 1143.588293 112.168332 
L 1149.30439 112.157798 
L 1155.020488 112.14671 
L 1160.736585 112.135622 
L 1166.452683 112.12398 
L 1172.16878 112.111783 
L 1177.884878 112.099586 
L 1183.600976 112.086835 
L 1189.317073 112.074084 
" clip-path="url(#pc1812b1041)" style="fill: none; stroke: #482878; stroke-width: 3; stroke-linecap: square"/>
   </g>
   <g id="line2d_47">
    <path d="M 1046.414634 111.974846 
L 1052.130732 111.969302 
L 1057.846829 111.964313 
L 1063.562927 111.958769 
L 1069.279024 111.95267 
L 1074.995122 111.946572 
L 1080.71122 111.940474 
L 1086.427317 111.933821 
L 1092.143415 111.927168 
L 1097.859512 111.919961 
L 1103.57561 111.912199 
L 1109.291707 111.904438 
L 1115.007805 111.895567 
L 1120.723902 111.886697 
L 1126.44 111.877826 
L 1132.156098 111.867847 
L 1137.872195 112.112892 
L 1143.588293 112.102358 
L 1149.30439 112.091825 
L 1155.020488 112.080737 
L 1160.736585 112.069094 
L 1166.452683 112.057452 
L 1172.16878 111.771936 
L 1177.884878 111.75475 
L 1183.600976 111.736454 
L 1189.317073 112.005338 
" clip-path="url(#pc1812b1041)" style="fill: none; stroke: #31688e; stroke-width: 3; stroke-linecap: square"/>
   </g>
   <g id="line2d_48">
    <path d="M 1046.414634 112.296398 
L 1052.130732 112.29529 
L 1057.846829 112.292518 
L 1063.562927 112.287528 
L 1069.279024 112.28143 
L 1074.995122 112.274222 
L 1080.71122 112.267015 
L 1086.427317 112.259254 
L 1092.143415 112.251492 
L 1097.859512 112.243176 
L 1103.57561 112.23486 
L 1109.291707 112.22599 
L 1115.007805 112.217119 
L 1120.723902 112.208249 
L 1126.44 112.198824 
L 1132.156098 112.188845 
L 1137.872195 112.178866 
L 1143.588293 112.168332 
L 1149.30439 112.157798 
L 1155.020488 112.14671 
L 1160.736585 112.135622 
L 1166.452683 112.12398 
L 1172.16878 112.111783 
L 1177.884878 112.099586 
L 1183.600976 112.086835 
L 1189.317073 112.074084 
" clip-path="url(#pc1812b1041)" style="fill: none; stroke: #1f9e89; stroke-width: 3; stroke-linecap: square"/>
   </g>
   <g id="line2d_49">
    <path d="M 1046.414634 96.282 
L 1052.130732 111.581222 
L 1057.846829 111.84179 
L 1063.562927 89.6292 
L 1069.279024 111.580114 
L 1074.995122 111.851215 
L 1080.71122 111.875054 
L 1086.427317 111.858977 
L 1092.143415 111.913308 
L 1097.859512 112.014209 
L 1103.57561 111.876718 
L 1109.291707 112.020307 
L 1115.007805 112.07741 
L 1120.723902 112.137286 
L 1126.44 112.100695 
L 1132.156098 112.122317 
L 1137.872195 112.109566 
L 1143.588293 112.102358 
L 1149.30439 112.090716 
L 1155.020488 112.080737 
L 1160.736585 112.069094 
L 1166.452683 112.057452 
L 1172.16878 112.045255 
L 1177.884878 112.03195 
L 1183.600976 112.019198 
L 1189.317073 112.005338 
" clip-path="url(#pc1812b1041)" style="fill: none; stroke: #6ece58; stroke-width: 3; stroke-linecap: square"/>
   </g>
   <g id="LineCollection_6">
    <path d="M 1117.865854 145 
L 1117.865854 -1 
" clip-path="url(#pc1812b1041)" style="fill: none; stroke-dasharray: 5.55,2.4; stroke-dashoffset: 0; stroke: #cb1b4f; stroke-width: 1.5"/>
   </g>
   <g id="patch_28">
    <path d="M 1046.414634 128.16 
L 1046.414634 17.28 
" style="fill: none; stroke: #000000; stroke-width: 0.8; stroke-linejoin: miter; stroke-linecap: square"/>
   </g>
   <g id="patch_29">
    <path d="M 1189.317073 128.16 
L 1189.317073 17.28 
" style="fill: none; stroke: #000000; stroke-width: 0.8; stroke-linejoin: miter; stroke-linecap: square"/>
   </g>
   <g id="patch_30">
    <path d="M 1046.414634 128.16 
L 1189.317073 128.16 
" style="fill: none; stroke: #000000; stroke-width: 0.8; stroke-linejoin: miter; stroke-linecap: square"/>
   </g>
   <g id="patch_31">
    <path d="M 1046.414634 17.28 
L 1189.317073 17.28 
" style="fill: none; stroke: #000000; stroke-width: 0.8; stroke-linejoin: miter; stroke-linecap: square"/>
   </g>
  </g>
  <g id="axes_7">
   <g id="patch_32">
    <path d="M 1217.897561 128.16 
L 1360.8 128.16 
L 1360.8 17.28 
L 1217.897561 17.28 
L 1217.897561 128.16 
z
" style="fill: none"/>
   </g>
   <g id="matplotlib.axis_13">
    <g id="xtick_14">
     <g id="line2d_50">
      <g>
       <use xlink:href="#m538e9b3032" x="1232.187805" y="128.16" style="stroke: #000000; stroke-width: 0.8"/>
      </g>
     </g>
     <g id="text_23">
      <!-- $\mathdefault{0.04}$ -->
      <g transform="translate(1220.04827 144.845876) scale(0.14 -0.14)">
       <use xlink:href="#CMR17-30" transform="scale(0.996264)"/>
       <use xlink:href="#CMMI12-3a" transform="translate(45.690477 0) scale(0.996264)"/>
       <use xlink:href="#CMR17-30" transform="translate(72.787654 0) scale(0.996264)"/>
       <use xlink:href="#CMR17-34" transform="translate(118.478131 0) scale(0.996264)"/>
      </g>
     </g>
    </g>
    <g id="xtick_15">
     <g id="line2d_51">
      <g>
       <use xlink:href="#m538e9b3032" x="1289.34878" y="128.16" style="stroke: #000000; stroke-width: 0.8"/>
      </g>
     </g>
     <g id="text_24">
      <!-- $\mathdefault{0.05}$ -->
      <g transform="translate(1277.209245 144.845876) scale(0.14 -0.14)">
       <use xlink:href="#CMR17-30" transform="scale(0.996264)"/>
       <use xlink:href="#CMMI12-3a" transform="translate(45.690477 0) scale(0.996264)"/>
       <use xlink:href="#CMR17-30" transform="translate(72.787654 0) scale(0.996264)"/>
       <use xlink:href="#CMR17-35" transform="translate(118.478131 0) scale(0.996264)"/>
      </g>
     </g>
    </g>
    <g id="xtick_16">
     <g id="line2d_52">
      <g>
       <use xlink:href="#m538e9b3032" x="1346.509756" y="128.16" style="stroke: #000000; stroke-width: 0.8"/>
      </g>
     </g>
     <g id="text_25">
      <!-- $\mathdefault{0.06}$ -->
      <g transform="translate(1334.370221 144.845876) scale(0.14 -0.14)">
       <defs>
        <path id="CMR17-36" d="M 678 2176 
C 678 3690 1395 4032 1811 4032 
C 1946 4032 2272 4009 2400 3776 
C 2298 3776 2106 3776 2106 3553 
C 2106 3381 2246 3323 2336 3323 
C 2394 3323 2566 3348 2566 3560 
C 2566 3954 2246 4179 1805 4179 
C 1043 4179 243 3390 243 1984 
C 243 253 966 -128 1478 -128 
C 2099 -128 2688 427 2688 1283 
C 2688 2081 2170 2662 1517 2662 
C 1126 2662 838 2407 678 1960 
L 678 2176 
z
M 1478 25 
C 691 25 691 1200 691 1436 
C 691 1896 909 2560 1504 2560 
C 1613 2560 1926 2560 2138 2120 
C 2253 1870 2253 1609 2253 1289 
C 2253 944 2253 690 2118 434 
C 1978 171 1773 25 1478 25 
z
" transform="scale(0.015625)"/>
       </defs>
       <use xlink:href="#CMR17-30" transform="scale(0.996264)"/>
       <use xlink:href="#CMMI12-3a" transform="translate(45.690477 0) scale(0.996264)"/>
       <use xlink:href="#CMR17-30" transform="translate(72.787654 0) scale(0.996264)"/>
       <use xlink:href="#CMR17-36" transform="translate(118.478131 0) scale(0.996264)"/>
      </g>
     </g>
    </g>
    <g id="text_26">
     <!-- $a_9$ -->
     <g transform="translate(1282.462616 162.627493) scale(0.16 -0.16)">
      <use xlink:href="#CMMI12-61" transform="scale(0.996264)"/>
      <use xlink:href="#CMR17-39" transform="translate(51.207858 -14.943915) scale(0.697382)"/>
     </g>
    </g>
   </g>
   <g id="matplotlib.axis_14">
    <g id="ytick_13">
     <g id="line2d_53">
      <g>
       <use xlink:href="#m8a90f94d29" x="1217.897561" y="100.44" style="stroke: #000000; stroke-width: 0.8"/>
      </g>
     </g>
    </g>
    <g id="ytick_14">
     <g id="line2d_54">
      <g>
       <use xlink:href="#m8a90f94d29" x="1217.897561" y="45" style="stroke: #000000; stroke-width: 0.8"/>
      </g>
     </g>
    </g>
   </g>
   <g id="line2d_55">
    <path d="M 1217.897561 112.197161 
L 1223.613659 112.219891 
L 1229.329756 112.240404 
L 1235.045854 112.25759 
L 1240.761951 112.272005 
L 1246.478049 112.283093 
L 1252.194146 112.290854 
L 1257.910244 112.295844 
L 1263.626341 112.296398 
L 1269.342439 112.294181 
L 1275.058537 112.287528 
L 1280.774634 112.278103 
L 1286.490732 112.267015 
L 1292.206829 112.255373 
L 1297.922927 112.24373 
L 1303.639024 112.230979 
L 1309.355122 112.217674 
L 1315.07122 112.203814 
L 1320.787317 112.189399 
L 1326.503415 112.173876 
L 1332.219512 112.157798 
L 1337.93561 112.141166 
L 1343.651707 112.12398 
L 1349.367805 112.105685 
L 1355.083902 112.086835 
L 1360.8 112.067431 
" clip-path="url(#pf3931461e6)" style="fill: none; stroke: #482878; stroke-width: 3; stroke-linecap: square"/>
   </g>
   <g id="line2d_56">
    <path d="M 1217.897561 111.99924 
L 1223.613659 111.99425 
L 1229.329756 111.988706 
L 1235.045854 111.983162 
L 1240.761951 111.977064 
L 1246.478049 111.970966 
L 1252.194146 111.964867 
L 1257.910244 111.95766 
L 1263.626341 111.951007 
L 1269.342439 111.943246 
L 1275.058537 111.935484 
L 1280.774634 111.927722 
L 1286.490732 111.918852 
L 1292.206829 111.909427 
L 1297.922927 111.900002 
L 1303.639024 111.889469 
L 1309.355122 111.878935 
L 1315.07122 112.136177 
L 1320.787317 112.122317 
L 1326.503415 112.107348 
L 1332.219512 112.091825 
L 1337.93561 112.074638 
L 1343.651707 112.056898 
L 1349.367805 112.038048 
L 1355.083902 112.01809 
L 1360.8 111.997577 
" clip-path="url(#pf3931461e6)" style="fill: none; stroke: #31688e; stroke-width: 3; stroke-linecap: square"/>
   </g>
   <g id="line2d_57">
    <path d="M 1217.897561 112.126198 
L 1223.613659 112.18441 
L 1229.329756 112.233197 
L 1235.045854 112.25759 
L 1240.761951 112.272005 
L 1246.478049 112.283093 
L 1252.194146 112.290854 
L 1257.910244 112.295844 
L 1263.626341 112.296398 
L 1269.342439 112.294181 
L 1275.058537 112.287528 
L 1280.774634 112.278103 
L 1286.490732 112.267015 
L 1292.206829 112.255373 
L 1297.922927 112.24373 
L 1303.639024 112.230979 
L 1309.355122 112.217674 
L 1315.07122 112.203814 
L 1320.787317 112.189399 
L 1326.503415 112.173876 
L 1332.219512 112.157798 
L 1337.93561 112.141166 
L 1343.651707 112.12398 
L 1349.367805 112.105685 
L 1355.083902 112.086835 
L 1360.8 112.067431 
" clip-path="url(#pf3931461e6)" style="fill: none; stroke: #1f9e89; stroke-width: 3; stroke-linecap: square"/>
   </g>
   <g id="line2d_58">
    <path d="M 1217.897561 111.99924 
L 1223.613659 111.99425 
L 1229.329756 111.988706 
L 1235.045854 111.983162 
L 1240.761951 111.977064 
L 1246.478049 111.970966 
L 1252.194146 111.964867 
L 1257.910244 111.95766 
L 1263.626341 111.951007 
L 1269.342439 111.943246 
L 1275.058537 111.935484 
L 1280.774634 111.927722 
L 1286.490732 111.918852 
L 1292.206829 111.909427 
L 1297.922927 112.098478 
L 1303.639024 111.889469 
L 1309.355122 111.878935 
L 1315.07122 112.136177 
L 1320.787317 112.122317 
L 1326.503415 112.107348 
L 1332.219512 112.091825 
L 1337.93561 112.074638 
L 1343.651707 112.056898 
L 1349.367805 112.038048 
L 1355.083902 112.01809 
L 1360.8 111.997577 
" clip-path="url(#pf3931461e6)" style="fill: none; stroke: #6ece58; stroke-width: 3; stroke-linecap: square"/>
   </g>
   <g id="LineCollection_7">
    <path d="M 1289.34878 145 
L 1289.34878 -1 
" clip-path="url(#pf3931461e6)" style="fill: none; stroke-dasharray: 5.55,2.4; stroke-dashoffset: 0; stroke: #cb1b4f; stroke-width: 1.5"/>
   </g>
   <g id="patch_33">
    <path d="M 1217.897561 128.16 
L 1217.897561 17.28 
" style="fill: none; stroke: #000000; stroke-width: 0.8; stroke-linejoin: miter; stroke-linecap: square"/>
   </g>
   <g id="patch_34">
    <path d="M 1360.8 128.16 
L 1360.8 17.28 
" style="fill: none; stroke: #000000; stroke-width: 0.8; stroke-linejoin: miter; stroke-linecap: square"/>
   </g>
   <g id="patch_35">
    <path d="M 1217.897561 128.16 
L 1360.8 128.16 
" style="fill: none; stroke: #000000; stroke-width: 0.8; stroke-linejoin: miter; stroke-linecap: square"/>
   </g>
   <g id="patch_36">
    <path d="M 1217.897561 17.28 
L 1360.8 17.28 
" style="fill: none; stroke: #000000; stroke-width: 0.8; stroke-linejoin: miter; stroke-linecap: square"/>
   </g>
  </g>
 </g>
 <defs>
  <clipPath id="p85f35958ba">
   <rect x="189" y="17.28" width="142.902439" height="110.88"/>
  </clipPath>
  <clipPath id="p1dd198e631">
   <rect x="360.482927" y="17.28" width="142.902439" height="110.88"/>
  </clipPath>
  <clipPath id="p3fdca06564">
   <rect x="531.965854" y="17.28" width="142.902439" height="110.88"/>
  </clipPath>
  <clipPath id="p112d42ef1d">
   <rect x="703.44878" y="17.28" width="142.902439" height="110.88"/>
  </clipPath>
  <clipPath id="p3975c45043">
   <rect x="874.931707" y="17.28" width="142.902439" height="110.88"/>
  </clipPath>
  <clipPath id="pc1812b1041">
   <rect x="1046.414634" y="17.28" width="142.902439" height="110.88"/>
  </clipPath>
  <clipPath id="pf3931461e6">
   <rect x="1217.897561" y="17.28" width="142.902439" height="110.88"/>
  </clipPath>
 </defs>
</svg>
