<?xml version="1.0" encoding="utf-8" standalone="no"?>
<!DOCTYPE svg PUBLIC "-//W3C//DTD SVG 1.1//EN"
  "http://www.w3.org/Graphics/SVG/1.1/DTD/svg11.dtd">
<svg xmlns:xlink="http://www.w3.org/1999/xlink" width="1512pt" height="144pt" viewBox="0 0 1512 144" xmlns="http://www.w3.org/2000/svg" version="1.1">
 <metadata>
  <rdf:RDF xmlns:dc="http://purl.org/dc/elements/1.1/" xmlns:cc="http://creativecommons.org/ns#" xmlns:rdf="http://www.w3.org/1999/02/22-rdf-syntax-ns#">
   <cc:Work>
    <dc:type rdf:resource="http://purl.org/dc/dcmitype/StillImage"/>
    <dc:date>2024-01-25T22:48:53.397455</dc:date>
    <dc:format>image/svg+xml</dc:format>
    <dc:creator>
     <cc:Agent>
      <dc:title>Matplotlib v3.7.1, https://matplotlib.org/</dc:title>
     </cc:Agent>
    </dc:creator>
   </cc:Work>
  </rdf:RDF>
 </metadata>
 <defs>
  <style type="text/css">*{stroke-linejoin: round; stroke-linecap: butt}</style>
 </defs>
 <g id="figure_1">
  <g id="patch_1">
   <path d="M 0 144 
L 1512 144 
L 1512 0 
L 0 0 
L 0 144 
z
" style="fill: none"/>
  </g>
  <g id="axes_1">
   <g id="patch_2">
    <path d="M 189 128.16 
L 299.54717 128.16 
L 299.54717 17.28 
L 189 17.28 
L 189 128.16 
z
" style="fill: none"/>
   </g>
   <g id="matplotlib.axis_1">
    <g id="xtick_1">
     <g id="line2d_1">
      <defs>
       <path id="mc9144f57d4" d="M 0 0 
L 0 3.5 
" style="stroke: #000000; stroke-width: 0.8"/>
      </defs>
      <g>
       <use xlink:href="#mc9144f57d4" x="208.898491" y="128.16" style="stroke: #000000; stroke-width: 0.8"/>
      </g>
     </g>
     <g id="text_1">
      <!-- $\mathdefault{0.1}$ -->
      <g transform="translate(200.1732 144.845876) scale(0.14 -0.14)">
       <defs>
        <path id="CMR17-30" d="M 2688 2025 
C 2688 2416 2682 3080 2413 3591 
C 2176 4039 1798 4198 1466 4198 
C 1158 4198 768 4058 525 3597 
C 269 3118 243 2524 243 2025 
C 243 1661 250 1106 448 619 
C 723 -39 1216 -128 1466 -128 
C 1760 -128 2208 -7 2470 600 
C 2662 1042 2688 1559 2688 2025 
z
M 1466 -26 
C 1056 -26 813 325 723 812 
C 653 1188 653 1738 653 2096 
C 653 2588 653 2997 736 3387 
C 858 3929 1216 4096 1466 4096 
C 1728 4096 2067 3923 2189 3400 
C 2272 3036 2278 2607 2278 2096 
C 2278 1680 2278 1169 2202 792 
C 2067 95 1690 -26 1466 -26 
z
" transform="scale(0.015625)"/>
        <path id="CMMI12-3a" d="M 1178 307 
C 1178 492 1024 619 870 619 
C 685 619 557 466 557 313 
C 557 128 710 0 864 0 
C 1050 0 1178 153 1178 307 
z
" transform="scale(0.015625)"/>
        <path id="CMR17-31" d="M 1702 4058 
C 1702 4192 1696 4192 1606 4192 
C 1357 3916 979 3827 621 3827 
C 602 3827 570 3827 563 3808 
C 557 3795 557 3782 557 3648 
C 755 3648 1088 3686 1344 3839 
L 1344 461 
C 1344 236 1331 160 781 160 
L 589 160 
L 589 0 
C 896 0 1216 0 1523 0 
C 1830 0 2150 0 2458 0 
L 2458 160 
L 2266 160 
C 1715 160 1702 230 1702 458 
L 1702 4058 
z
" transform="scale(0.015625)"/>
       </defs>
       <use xlink:href="#CMR17-30" transform="scale(0.996264)"/>
       <use xlink:href="#CMMI12-3a" transform="translate(45.690477 0) scale(0.996264)"/>
       <use xlink:href="#CMR17-31" transform="translate(72.787654 0) scale(0.996264)"/>
      </g>
     </g>
    </g>
    <g id="xtick_2">
     <g id="line2d_2">
      <g>
       <use xlink:href="#mc9144f57d4" x="253.117358" y="128.16" style="stroke: #000000; stroke-width: 0.8"/>
      </g>
     </g>
     <g id="text_2">
      <!-- $\mathdefault{0.2}$ -->
      <g transform="translate(244.392067 144.845876) scale(0.14 -0.14)">
       <defs>
        <path id="CMR17-32" d="M 2669 989 
L 2554 989 
C 2490 536 2438 459 2413 420 
C 2381 369 1920 369 1830 369 
L 602 369 
C 832 619 1280 1072 1824 1597 
C 2214 1967 2669 2402 2669 3035 
C 2669 3790 2067 4224 1395 4224 
C 691 4224 262 3604 262 3030 
C 262 2780 448 2748 525 2748 
C 589 2748 781 2787 781 3010 
C 781 3207 614 3264 525 3264 
C 486 3264 448 3258 422 3245 
C 544 3790 915 4058 1306 4058 
C 1862 4058 2227 3617 2227 3035 
C 2227 2479 1901 2000 1536 1584 
L 262 146 
L 262 0 
L 2515 0 
L 2669 989 
z
" transform="scale(0.015625)"/>
       </defs>
       <use xlink:href="#CMR17-30" transform="scale(0.996264)"/>
       <use xlink:href="#CMMI12-3a" transform="translate(45.690477 0) scale(0.996264)"/>
       <use xlink:href="#CMR17-32" transform="translate(72.787654 0) scale(0.996264)"/>
      </g>
     </g>
    </g>
    <g id="xtick_3">
     <g id="line2d_3">
      <g>
       <use xlink:href="#mc9144f57d4" x="297.336226" y="128.16" style="stroke: #000000; stroke-width: 0.8"/>
      </g>
     </g>
     <g id="text_3">
      <!-- $\mathdefault{0.3}$ -->
      <g transform="translate(288.610935 144.845876) scale(0.14 -0.14)">
       <defs>
        <path id="CMR17-33" d="M 1414 2157 
C 1984 2157 2234 1662 2234 1090 
C 2234 320 1824 25 1453 25 
C 1114 25 563 194 390 693 
C 422 680 454 680 486 680 
C 640 680 755 782 755 948 
C 755 1133 614 1216 486 1216 
C 378 1216 211 1165 211 926 
C 211 335 787 -128 1466 -128 
C 2176 -128 2720 430 2720 1085 
C 2720 1707 2208 2157 1600 2227 
C 2086 2328 2554 2756 2554 3329 
C 2554 3820 2048 4179 1472 4179 
C 890 4179 378 3829 378 3329 
C 378 3110 544 3072 627 3072 
C 762 3072 877 3155 877 3321 
C 877 3486 762 3569 627 3569 
C 602 3569 570 3569 544 3557 
C 730 3959 1235 4032 1459 4032 
C 1683 4032 2106 3925 2106 3320 
C 2106 3143 2080 2828 1862 2550 
C 1670 2304 1453 2304 1242 2284 
C 1210 2284 1062 2269 1037 2269 
C 992 2263 966 2257 966 2208 
C 966 2163 973 2157 1101 2157 
L 1414 2157 
z
" transform="scale(0.015625)"/>
       </defs>
       <use xlink:href="#CMR17-30" transform="scale(0.996264)"/>
       <use xlink:href="#CMMI12-3a" transform="translate(45.690477 0) scale(0.996264)"/>
       <use xlink:href="#CMR17-33" transform="translate(72.787654 0) scale(0.996264)"/>
      </g>
     </g>
    </g>
    <g id="text_4">
     <!-- $a_1$ -->
     <g transform="translate(237.387421 162.627493) scale(0.16 -0.16)">
      <defs>
       <path id="CMMI12-61" d="M 1926 760 
C 1894 651 1894 639 1805 517 
C 1664 338 1382 64 1082 64 
C 819 64 672 300 672 677 
C 672 1028 870 1743 992 2012 
C 1210 2459 1510 2689 1760 2689 
C 2182 2689 2266 2165 2266 2114 
C 2266 2108 2246 2024 2240 2012 
L 1926 760 
z
M 2336 2395 
C 2266 2561 2093 2816 1760 2816 
C 1037 2816 256 1884 256 939 
C 256 307 627 -64 1062 -64 
C 1414 -64 1715 211 1894 422 
C 1958 45 2259 -64 2451 -64 
C 2643 -64 2797 51 2912 281 
C 3014 498 3104 888 3104 913 
C 3104 945 3078 971 3040 971 
C 2982 971 2976 939 2950 843 
C 2854 466 2733 64 2470 64 
C 2285 64 2272 230 2272 358 
C 2272 505 2291 575 2349 824 
C 2394 984 2426 1124 2477 1309 
C 2714 2267 2771 2497 2771 2535 
C 2771 2625 2701 2695 2605 2695 
C 2400 2695 2349 2472 2336 2395 
z
" transform="scale(0.015625)"/>
      </defs>
      <use xlink:href="#CMMI12-61" transform="scale(0.996264)"/>
      <use xlink:href="#CMR17-31" transform="translate(51.207858 -14.943915) scale(0.697382)"/>
     </g>
    </g>
   </g>
   <g id="matplotlib.axis_2">
    <g id="ytick_1">
     <g id="line2d_4">
      <defs>
       <path id="m7de6a0e27b" d="M 0 0 
L -3.5 0 
" style="stroke: #000000; stroke-width: 0.8"/>
      </defs>
      <g>
       <use xlink:href="#m7de6a0e27b" x="189" y="96.48" style="stroke: #000000; stroke-width: 0.8"/>
      </g>
     </g>
     <g id="text_5">
      <!-- $\mathdefault{0.15}$ -->
      <g transform="translate(157.720929 101.322938) scale(0.14 -0.14)">
       <defs>
        <path id="CMR17-35" d="M 730 3692 
C 794 3666 1056 3584 1325 3584 
C 1920 3584 2246 3911 2432 4100 
C 2432 4157 2432 4192 2394 4192 
C 2387 4192 2374 4192 2323 4163 
C 2099 4058 1837 3973 1517 3973 
C 1325 3973 1037 3999 723 4139 
C 653 4171 640 4171 634 4171 
C 602 4171 595 4164 595 4037 
L 595 2203 
C 595 2089 595 2057 659 2057 
C 691 2057 704 2070 736 2114 
C 941 2401 1222 2522 1542 2522 
C 1766 2522 2246 2382 2246 1289 
C 2246 1085 2246 715 2054 421 
C 1894 159 1645 25 1370 25 
C 947 25 518 320 403 814 
C 429 807 480 795 506 795 
C 589 795 749 840 749 1038 
C 749 1210 627 1280 506 1280 
C 358 1280 262 1190 262 1011 
C 262 454 704 -128 1382 -128 
C 2042 -128 2669 440 2669 1264 
C 2669 2030 2170 2624 1549 2624 
C 1222 2624 947 2503 730 2274 
L 730 3692 
z
" transform="scale(0.015625)"/>
       </defs>
       <use xlink:href="#CMR17-30" transform="scale(0.996264)"/>
       <use xlink:href="#CMMI12-3a" transform="translate(45.690477 0) scale(0.996264)"/>
       <use xlink:href="#CMR17-31" transform="translate(72.787654 0) scale(0.996264)"/>
       <use xlink:href="#CMR17-35" transform="translate(118.478131 0) scale(0.996264)"/>
      </g>
     </g>
    </g>
    <g id="ytick_2">
     <g id="line2d_5">
      <g>
       <use xlink:href="#m7de6a0e27b" x="189" y="56.88" style="stroke: #000000; stroke-width: 0.8"/>
      </g>
     </g>
     <g id="text_6">
      <!-- $\mathdefault{0.20}$ -->
      <g transform="translate(157.720929 61.722938) scale(0.14 -0.14)">
       <use xlink:href="#CMR17-30" transform="scale(0.996264)"/>
       <use xlink:href="#CMMI12-3a" transform="translate(45.690477 0) scale(0.996264)"/>
       <use xlink:href="#CMR17-32" transform="translate(72.787654 0) scale(0.996264)"/>
       <use xlink:href="#CMR17-30" transform="translate(118.478131 0) scale(0.996264)"/>
      </g>
     </g>
    </g>
    <g id="ytick_3">
     <g id="line2d_6">
      <g>
       <use xlink:href="#m7de6a0e27b" x="189" y="17.28" style="stroke: #000000; stroke-width: 0.8"/>
      </g>
     </g>
     <g id="text_7">
      <!-- $\mathdefault{0.25}$ -->
      <g transform="translate(157.720929 22.122938) scale(0.14 -0.14)">
       <use xlink:href="#CMR17-30" transform="scale(0.996264)"/>
       <use xlink:href="#CMMI12-3a" transform="translate(45.690477 0) scale(0.996264)"/>
       <use xlink:href="#CMR17-32" transform="translate(72.787654 0) scale(0.996264)"/>
       <use xlink:href="#CMR17-35" transform="translate(118.478131 0) scale(0.996264)"/>
      </g>
     </g>
    </g>
    <g id="text_8">
     <!-- RMSE -->
     <g transform="translate(150.621453 95.259341) rotate(-90) scale(0.16 -0.16)">
      <defs>
       <path id="CMR17-52" d="M 2509 2146 
C 3117 2268 3629 2676 3629 3186 
C 3629 3785 2950 4326 2054 4326 
L 333 4326 
L 333 4160 
C 774 4160 845 4160 845 3873 
L 845 415 
C 845 128 774 128 333 128 
L 333 -26 
C 518 -26 851 -26 1050 -26 
C 1248 -26 1581 -26 1766 -26 
L 1766 128 
C 1325 128 1254 128 1254 417 
L 1254 2112 
L 2003 2112 
C 2368 2112 2573 1964 2662 1881 
C 2918 1632 2918 1459 2918 1024 
C 2918 595 2918 377 3110 160 
C 3354 -102 3680 -128 3821 -128 
C 4294 -128 4365 396 4365 503 
C 4365 540 4365 585 4307 585 
C 4256 585 4250 547 4250 522 
C 4218 112 4032 -26 3834 -26 
C 3482 -26 3443 375 3405 764 
C 3386 898 3373 993 3360 1133 
C 3322 1452 3270 1917 2509 2146 
z
M 1984 2214 
L 1254 2214 
L 1254 3913 
C 1254 4129 1267 4160 1523 4160 
L 1990 4160 
C 2522 4160 3142 3977 3142 3190 
C 3142 2372 2464 2214 1984 2214 
z
" transform="scale(0.015625)"/>
       <path id="CMR17-4d" d="M 1338 4224 
C 1299 4320 1293 4320 1158 4320 
L 339 4320 
L 339 4160 
C 781 4160 851 4160 851 3875 
L 851 610 
C 851 451 851 153 339 153 
L 339 -13 
C 486 0 755 0 915 0 
C 1075 0 1344 0 1491 -13 
L 1491 153 
C 979 153 979 451 979 610 
L 979 4135 
L 986 4135 
L 2490 89 
C 2515 25 2528 -13 2579 -13 
C 2630 -13 2643 25 2669 89 
L 4186 4166 
L 4192 4166 
L 4192 438 
C 4192 153 4122 153 3680 153 
L 3680 -13 
C 3853 0 4198 0 4384 0 
C 4570 0 4922 0 5094 -13 
L 5094 153 
C 4653 153 4582 153 4582 438 
L 4582 3875 
C 4582 4160 4653 4160 5094 4160 
L 5094 4320 
L 4282 4320 
C 4147 4320 4141 4314 4102 4218 
L 2720 502 
L 1338 4224 
z
" transform="scale(0.015625)"/>
       <path id="CMR17-53" d="M 2803 4290 
C 2803 4404 2797 4411 2758 4411 
C 2720 4411 2707 4385 2682 4328 
L 2490 3907 
C 2246 4257 1875 4416 1472 4416 
C 819 4416 294 3901 294 3253 
C 294 3056 339 2776 557 2510 
C 794 2218 1018 2167 1530 2033 
C 1722 1982 2042 1899 2106 1874 
C 2470 1722 2662 1341 2662 985 
C 2662 527 2336 38 1779 38 
C 1094 38 454 419 410 1311 
C 403 1413 397 1419 352 1419 
C 301 1419 294 1413 294 1285 
L 294 -1 
C 294 -115 301 -122 339 -122 
C 384 -122 397 -90 486 108 
C 493 127 493 140 614 381 
C 934 -39 1472 -128 1779 -128 
C 2477 -128 2970 451 2970 1124 
C 2970 1454 2848 1708 2778 1823 
C 2509 2230 2221 2306 1914 2382 
C 1869 2402 1856 2402 1498 2490 
C 1152 2579 1005 2624 845 2796 
C 666 2992 602 3196 602 3399 
C 602 3812 934 4263 1478 4263 
C 2157 4263 2579 3786 2675 2993 
C 2694 2878 2701 2872 2746 2872 
C 2803 2872 2803 2891 2803 2999 
L 2803 4290 
z
" transform="scale(0.015625)"/>
       <path id="CMR17-45" d="M 3885 1615 
L 3770 1615 
C 3629 676 3546 166 2419 166 
L 1530 166 
C 1274 166 1261 197 1261 414 
L 1261 2176 
L 1862 2176 
C 2464 2176 2522 1960 2522 1430 
L 2637 1430 
L 2637 3081 
L 2522 3081 
C 2522 2557 2464 2342 1862 2342 
L 1261 2342 
L 1261 3913 
C 1261 4128 1274 4160 1530 4160 
L 2406 4160 
C 3398 4160 3514 3769 3603 2929 
L 3718 2929 
L 3565 4325 
L 326 4325 
L 326 4160 
C 768 4160 838 4160 838 3874 
L 838 451 
C 838 166 768 166 326 166 
L 326 0 
L 3654 0 
L 3885 1615 
z
" transform="scale(0.015625)"/>
      </defs>
      <use xlink:href="#CMR17-52" transform="scale(0.996264)"/>
      <use xlink:href="#CMR17-4d" transform="translate(67.791102 0) scale(0.996264)"/>
      <use xlink:href="#CMR17-53" transform="translate(152.478043 0) scale(0.996264)"/>
      <use xlink:href="#CMR17-45" transform="translate(203.373412 0) scale(0.996264)"/>
     </g>
    </g>
   </g>
   <g id="line2d_7">
    <path d="M 189 118.70352 
L 191.210943 119.38464 
L 193.421887 119.63016 
L 195.63283 120.05784 
L 197.843774 120.27168 
L 200.054717 120.40632 
L 202.26566 120.89736 
L 204.476604 121.0716 
L 206.687547 121.07952 
L 208.898491 121.19832 
L 211.109434 121.35672 
L 213.320377 121.41216 
L 215.531321 121.24584 
L 217.742264 121.2696 
L 219.953208 121.23 
L 222.164151 121.5468 
L 224.375094 121.75272 
L 226.586038 121.65768 
L 228.796981 121.93488 
L 231.007925 121.68936 
L 233.218868 121.80816 
L 235.429811 121.91112 
L 237.640755 122.27544 
L 239.851698 122.21208 
L 242.062642 122.33088 
L 244.273585 122.34672 
L 246.484528 122.32296 
L 248.695472 122.35464 
L 250.906415 122.48136 
L 253.117358 122.39424 
L 255.328302 122.4576 
L 257.539245 122.40216 
L 259.750189 122.41008 
L 261.961132 122.37048 
L 264.172075 122.31504 
L 266.383019 122.20416 
L 268.593962 122.08536 
L 270.804906 121.89528 
L 273.015849 121.72896 
L 275.226792 121.53096 
L 277.437736 121.29336 
L 279.648679 121.05576 
L 281.859623 120.78648 
L 284.070566 120.5172 
L 286.281509 120.22416 
L 288.492453 119.93112 
L 290.703396 119.62224 
L 292.91434 119.30544 
L 295.125283 118.98864 
L 297.336226 118.656 
L 299.54717 118.33128 
" clip-path="url(#p8d801dab6e)" style="fill: none; stroke: #482878; stroke-width: 3; stroke-linecap: square"/>
   </g>
   <g id="line2d_8">
    <path d="M 189 119.14704 
L 191.210943 118.52136 
L 193.421887 119.448 
L 195.63283 120.23208 
L 197.843774 120.31128 
L 200.054717 120.76272 
L 202.26566 120.81816 
L 204.476604 121.06368 
L 206.687547 121.28544 
L 208.898491 121.5072 
L 211.109434 121.60224 
L 213.320377 121.7844 
L 215.531321 121.87152 
L 217.742264 121.95864 
L 219.953208 122.05368 
L 222.164151 122.13288 
L 224.375094 122.1804 
L 226.586038 122.22792 
L 228.796981 122.29128 
L 231.007925 122.31504 
L 233.218868 122.3388 
L 235.429811 122.38632 
L 237.640755 122.418 
L 239.851698 122.44176 
L 242.062642 122.44968 
L 244.273585 122.4576 
L 246.484528 122.48928 
L 248.695472 122.4972 
L 250.906415 122.50512 
L 253.117358 122.50512 
L 255.328302 122.4972 
L 257.539245 122.48136 
L 259.750189 122.4576 
L 261.961132 122.41008 
L 264.172075 122.3388 
L 266.383019 122.22792 
L 268.593962 122.09328 
L 270.804906 121.93488 
L 273.015849 121.7448 
L 275.226792 121.53096 
L 277.437736 121.30128 
L 279.648679 121.05576 
L 281.859623 120.7944 
L 284.070566 120.46968 
L 286.281509 120.02616 
L 288.492453 119.47176 
L 290.703396 118.83816 
L 292.91434 118.1016 
L 295.125283 117.28584 
L 297.336226 116.38296 
L 299.54717 115.4088 
" clip-path="url(#p8d801dab6e)" style="fill: none; stroke: #31688e; stroke-width: 3; stroke-linecap: square"/>
   </g>
   <g id="line2d_9">
    <path d="M 189 119.2896 
L 191.210943 119.646 
L 193.421887 119.98656 
L 195.63283 120.27168 
L 197.843774 120.57264 
L 200.054717 120.81024 
L 202.26566 121.03992 
L 204.476604 121.23792 
L 206.687547 121.40424 
L 208.898491 121.56264 
L 211.109434 121.68144 
L 213.320377 121.80024 
L 215.531321 121.91112 
L 217.742264 121.99032 
L 219.953208 122.06952 
L 222.164151 122.1012 
L 224.375094 122.10912 
L 226.586038 122.2596 
L 228.796981 122.2992 
L 231.007925 122.3388 
L 233.218868 122.37048 
L 235.429811 122.39424 
L 237.640755 122.41008 
L 239.851698 122.42592 
L 242.062642 122.43384 
L 244.273585 122.43384 
L 246.484528 122.40216 
L 248.695472 122.2992 
L 250.906415 122.10912 
L 253.117358 121.83192 
L 255.328302 121.28544 
L 257.539245 120.46968 
L 259.750189 119.4084 
L 261.961132 118.11744 
L 264.172075 116.64432 
L 266.383019 115.00488 
L 268.593962 113.21496 
L 270.804906 111.30624 
L 273.015849 109.29456 
L 275.226792 107.19576 
L 277.437736 105.01776 
L 279.648679 102.79224 
L 281.859623 100.51128 
L 284.070566 98.19864 
L 286.281509 95.86224 
L 288.492453 93.50208 
L 290.703396 91.12608 
L 292.91434 88.75008 
L 295.125283 86.37408 
L 297.336226 84.006 
L 299.54717 81.63792 
" clip-path="url(#p8d801dab6e)" style="fill: none; stroke: #1f9e89; stroke-width: 3; stroke-linecap: square"/>
   </g>
   <g id="line2d_10">
    <path d="M 189 119.28168 
L 191.210943 119.63016 
L 193.421887 119.97072 
L 195.63283 120.28752 
L 197.843774 120.56472 
L 200.054717 120.81024 
L 202.26566 121.032 
L 204.476604 121.21416 
L 206.687547 121.39632 
L 208.898491 121.53096 
L 211.109434 121.65768 
L 213.320377 121.73688 
L 215.531321 121.88736 
L 217.742264 121.95072 
L 219.953208 121.87944 
L 222.164151 122.09328 
L 224.375094 122.05368 
L 226.586038 122.1012 
L 228.796981 121.88736 
L 231.007925 121.91112 
L 233.218868 122.16456 
L 235.429811 122.022 
L 237.640755 121.92696 
L 239.851698 122.01408 
L 242.062642 121.71312 
L 244.273585 121.69728 
L 246.484528 121.5864 
L 248.695472 121.44384 
L 250.906415 121.4676 
L 253.117358 119.448 
L 255.328302 118.14912 
L 257.539245 118.68768 
L 259.750189 116.9928 
L 261.961132 115.79688 
L 264.172075 115.34544 
L 266.383019 111.19536 
L 268.593962 111.02904 
L 270.804906 108.14616 
L 273.015849 108.18576 
L 275.226792 104.004 
L 277.437736 102.84768 
L 279.648679 99.67968 
L 281.859623 98.79264 
L 284.070566 95.37912 
L 286.281509 92.70216 
L 288.492453 92.34576 
L 290.703396 88.21152 
L 292.91434 85.43952 
L 295.125283 85.05144 
L 297.336226 80.58456 
L 299.54717 79.16688 
" clip-path="url(#p8d801dab6e)" style="fill: none; stroke: #6ece58; stroke-width: 3; stroke-linecap: square"/>
   </g>
   <g id="LineCollection_1">
    <path d="M 244.273585 145 
L 244.273585 -1 
" clip-path="url(#p8d801dab6e)" style="fill: none; stroke-dasharray: 5.55,2.4; stroke-dashoffset: 0; stroke: #cb1b4f; stroke-width: 1.5"/>
   </g>
   <g id="patch_3">
    <path d="M 189 128.16 
L 189 17.28 
" style="fill: none; stroke: #000000; stroke-width: 0.8; stroke-linejoin: miter; stroke-linecap: square"/>
   </g>
   <g id="patch_4">
    <path d="M 299.54717 128.16 
L 299.54717 17.28 
" style="fill: none; stroke: #000000; stroke-width: 0.8; stroke-linejoin: miter; stroke-linecap: square"/>
   </g>
   <g id="patch_5">
    <path d="M 189 128.16 
L 299.54717 128.16 
" style="fill: none; stroke: #000000; stroke-width: 0.8; stroke-linejoin: miter; stroke-linecap: square"/>
   </g>
   <g id="patch_6">
    <path d="M 189 17.28 
L 299.54717 17.28 
" style="fill: none; stroke: #000000; stroke-width: 0.8; stroke-linejoin: miter; stroke-linecap: square"/>
   </g>
  </g>
  <g id="axes_2">
   <g id="patch_7">
    <path d="M 321.656604 128.16 
L 432.203774 128.16 
L 432.203774 17.28 
L 321.656604 17.28 
L 321.656604 128.16 
z
" style="fill: none"/>
   </g>
   <g id="matplotlib.axis_3">
    <g id="xtick_4">
     <g id="line2d_11">
      <g>
       <use xlink:href="#mc9144f57d4" x="350.398868" y="128.16" style="stroke: #000000; stroke-width: 0.8"/>
      </g>
     </g>
     <g id="text_9">
      <!-- $\mathdefault{0.1}$ -->
      <g transform="translate(341.673577 144.845876) scale(0.14 -0.14)">
       <use xlink:href="#CMR17-30" transform="scale(0.996264)"/>
       <use xlink:href="#CMMI12-3a" transform="translate(45.690477 0) scale(0.996264)"/>
       <use xlink:href="#CMR17-31" transform="translate(72.787654 0) scale(0.996264)"/>
      </g>
     </g>
    </g>
    <g id="xtick_5">
     <g id="line2d_12">
      <g>
       <use xlink:href="#mc9144f57d4" x="394.617736" y="128.16" style="stroke: #000000; stroke-width: 0.8"/>
      </g>
     </g>
     <g id="text_10">
      <!-- $\mathdefault{0.2}$ -->
      <g transform="translate(385.892445 144.845876) scale(0.14 -0.14)">
       <use xlink:href="#CMR17-30" transform="scale(0.996264)"/>
       <use xlink:href="#CMMI12-3a" transform="translate(45.690477 0) scale(0.996264)"/>
       <use xlink:href="#CMR17-32" transform="translate(72.787654 0) scale(0.996264)"/>
      </g>
     </g>
    </g>
    <g id="text_11">
     <!-- $a_2$ -->
     <g transform="translate(370.044024 162.627493) scale(0.16 -0.16)">
      <use xlink:href="#CMMI12-61" transform="scale(0.996264)"/>
      <use xlink:href="#CMR17-32" transform="translate(51.207858 -14.943915) scale(0.697382)"/>
     </g>
    </g>
   </g>
   <g id="matplotlib.axis_4">
    <g id="ytick_4">
     <g id="line2d_13">
      <g>
       <use xlink:href="#m7de6a0e27b" x="321.656604" y="96.48" style="stroke: #000000; stroke-width: 0.8"/>
      </g>
     </g>
    </g>
    <g id="ytick_5">
     <g id="line2d_14">
      <g>
       <use xlink:href="#m7de6a0e27b" x="321.656604" y="56.88" style="stroke: #000000; stroke-width: 0.8"/>
      </g>
     </g>
    </g>
    <g id="ytick_6">
     <g id="line2d_15">
      <g>
       <use xlink:href="#m7de6a0e27b" x="321.656604" y="17.28" style="stroke: #000000; stroke-width: 0.8"/>
      </g>
     </g>
    </g>
   </g>
   <g id="line2d_16">
    <path d="M 321.656604 25.3584 
L 323.867547 39.97872 
L 326.078491 53.93376 
L 328.289434 66.9384 
L 330.500377 78.6996 
L 332.711321 89.05896 
L 334.922264 97.96896 
L 337.133208 105.1524 
L 339.344151 110.43504 
L 341.555094 113.76936 
L 343.766038 115.4088 
L 345.976981 116.62848 
L 348.187925 117.666 
L 350.398868 118.52136 
L 352.609811 119.17872 
L 354.820755 119.66976 
L 357.031698 120.07368 
L 359.242642 120.42216 
L 361.453585 120.73896 
L 363.664528 121.03992 
L 365.875472 121.3092 
L 368.086415 121.53888 
L 370.297358 121.7448 
L 372.508302 121.5468 
L 374.719245 121.8636 
L 376.930189 121.80024 
L 379.141132 121.25376 
L 381.352075 121.18248 
L 383.563019 120.77856 
L 385.773962 121.28544 
L 387.984906 121.9428 
L 390.195849 121.5072 
L 392.406792 122.07744 
L 394.617736 121.9032 
L 396.828679 122.1804 
L 399.039623 122.07744 
L 401.250566 121.92696 
L 403.461509 122.022 
L 405.672453 122.01408 
L 407.883396 121.7844 
L 410.09434 121.95072 
L 412.305283 121.80816 
L 414.516226 121.73688 
L 416.72717 121.6656 
L 418.938113 121.48344 
L 421.149057 121.57848 
L 423.36 121.48344 
L 425.570943 121.3884 
L 427.781887 121.36464 
L 429.99283 121.35672 
L 432.203774 121.14288 
" clip-path="url(#pf45929c4a0)" style="fill: none; stroke: #482878; stroke-width: 3; stroke-linecap: square"/>
   </g>
   <g id="line2d_17">
    <path d="M 321.656604 25.3584 
L 323.867547 39.97872 
L 326.078491 53.93376 
L 328.289434 66.9384 
L 330.500377 78.6996 
L 332.711321 89.05896 
L 334.922264 97.96896 
L 337.133208 105.1524 
L 339.344151 110.43504 
L 341.555094 113.76936 
L 343.766038 115.4088 
L 345.976981 116.62848 
L 348.187925 117.65808 
L 350.398868 118.48176 
L 352.609811 119.15496 
L 354.820755 119.646 
L 357.031698 120.03408 
L 359.242642 120.3984 
L 361.453585 120.65184 
L 363.664528 120.73104 
L 365.875472 121.23792 
L 368.086415 121.3092 
L 370.297358 120.97656 
L 372.508302 121.69728 
L 374.719245 120.9528 
L 376.930189 121.80024 
L 379.141132 122.2992 
L 381.352075 122.3388 
L 383.563019 122.418 
L 385.773962 122.47344 
L 387.984906 122.48136 
L 390.195849 122.4576 
L 392.406792 122.41008 
L 394.617736 122.38632 
L 396.828679 122.34672 
L 399.039623 122.2992 
L 401.250566 122.25168 
L 403.461509 122.20416 
L 405.672453 122.14872 
L 407.883396 122.08536 
L 410.09434 121.9824 
L 412.305283 121.79232 
L 414.516226 121.53096 
L 416.72717 121.1904 
L 418.938113 120.77064 
L 421.149057 120.31128 
L 423.36 119.78856 
L 425.570943 119.20248 
L 427.781887 118.6164 
L 429.99283 117.9828 
L 432.203774 117.18288 
" clip-path="url(#pf45929c4a0)" style="fill: none; stroke: #31688e; stroke-width: 3; stroke-linecap: square"/>
   </g>
   <g id="line2d_18">
    <path d="M 329.161601 -1 
L 330.500377 46.65528 
L 332.711321 55.81872 
L 334.922264 63.4536 
L 337.133208 69.74208 
L 339.344151 75.81672 
L 341.555094 82.00224 
L 343.766038 88.14024 
L 345.976981 94.05648 
L 348.187925 99.57672 
L 350.398868 104.56632 
L 352.609811 108.92232 
L 354.820755 112.5972 
L 357.031698 115.55928 
L 359.242642 117.8244 
L 361.453585 119.43216 
L 363.664528 120.438 
L 365.875472 121.03992 
L 368.086415 121.48344 
L 370.297358 121.79232 
L 372.508302 121.9824 
L 374.719245 122.1408 
L 376.930189 122.26752 
L 379.141132 122.37048 
L 381.352075 122.43384 
L 383.563019 122.42592 
L 385.773962 122.39424 
L 387.984906 122.34672 
L 390.195849 122.27544 
L 392.406792 122.18832 
L 394.617736 122.08536 
L 396.828679 121.95072 
L 399.039623 121.7844 
L 401.250566 121.5864 
L 403.461509 121.33296 
L 405.672453 121.02408 
L 407.883396 120.65976 
L 410.09434 120.24 
L 412.305283 119.77272 
L 414.516226 119.25792 
L 416.72717 118.68768 
L 418.938113 118.08576 
L 421.149057 117.44424 
L 423.36 116.77896 
L 425.570943 116.082 
L 427.781887 115.33752 
L 429.99283 114.52176 
L 432.203774 113.65056 
" clip-path="url(#pf45929c4a0)" style="fill: none; stroke: #1f9e89; stroke-width: 3; stroke-linecap: square"/>
   </g>
   <g id="line2d_19">
    <path d="M 331.281729 -1 
L 332.711321 9.86688 
L 334.922264 26.47512 
L 337.133208 42.56064 
L 339.344151 57.50568 
L 341.555094 70.83504 
L 343.766038 82.57248 
L 345.976981 92.31408 
L 348.187925 99.52128 
L 350.398868 104.56632 
L 352.609811 108.92232 
L 354.820755 112.58928 
L 357.031698 115.55136 
L 359.242642 117.81648 
L 361.453585 119.43216 
L 363.664528 120.438 
L 365.875472 121.03992 
L 368.086415 121.48344 
L 370.297358 121.79232 
L 372.508302 121.9824 
L 374.719245 122.1408 
L 376.930189 122.26752 
L 379.141132 122.37048 
L 381.352075 122.43384 
L 383.563019 122.42592 
L 385.773962 122.39424 
L 387.984906 122.34672 
L 390.195849 122.28336 
L 392.406792 122.18832 
L 394.617736 122.08536 
L 396.828679 121.95072 
L 399.039623 121.7844 
L 401.250566 121.5864 
L 403.461509 121.33296 
L 405.672453 121.02408 
L 407.883396 120.65976 
L 410.09434 120.24 
L 412.305283 119.77272 
L 414.516226 119.25792 
L 416.72717 118.68768 
L 418.938113 118.08576 
L 421.149057 117.43632 
L 423.36 116.76312 
L 425.570943 116.0424 
L 427.781887 115.10784 
L 429.99283 113.88816 
L 432.203774 112.37544 
" clip-path="url(#pf45929c4a0)" style="fill: none; stroke: #6ece58; stroke-width: 3; stroke-linecap: square"/>
   </g>
   <g id="LineCollection_2">
    <path d="M 376.930189 145 
L 376.930189 -1 
" clip-path="url(#pf45929c4a0)" style="fill: none; stroke-dasharray: 5.55,2.4; stroke-dashoffset: 0; stroke: #cb1b4f; stroke-width: 1.5"/>
   </g>
   <g id="patch_8">
    <path d="M 321.656604 128.16 
L 321.656604 17.28 
" style="fill: none; stroke: #000000; stroke-width: 0.8; stroke-linejoin: miter; stroke-linecap: square"/>
   </g>
   <g id="patch_9">
    <path d="M 432.203774 128.16 
L 432.203774 17.28 
" style="fill: none; stroke: #000000; stroke-width: 0.8; stroke-linejoin: miter; stroke-linecap: square"/>
   </g>
   <g id="patch_10">
    <path d="M 321.656604 128.16 
L 432.203774 128.16 
" style="fill: none; stroke: #000000; stroke-width: 0.8; stroke-linejoin: miter; stroke-linecap: square"/>
   </g>
   <g id="patch_11">
    <path d="M 321.656604 17.28 
L 432.203774 17.28 
" style="fill: none; stroke: #000000; stroke-width: 0.8; stroke-linejoin: miter; stroke-linecap: square"/>
   </g>
  </g>
  <g id="axes_3">
   <g id="patch_12">
    <path d="M 454.313208 128.16 
L 564.860377 128.16 
L 564.860377 17.28 
L 454.313208 17.28 
L 454.313208 128.16 
z
" style="fill: none"/>
   </g>
   <g id="matplotlib.axis_5">
    <g id="xtick_6">
     <g id="line2d_20">
      <g>
       <use xlink:href="#mc9144f57d4" x="487.477358" y="128.16" style="stroke: #000000; stroke-width: 0.8"/>
      </g>
     </g>
     <g id="text_12">
      <!-- $\mathdefault{0.1}$ -->
      <g transform="translate(478.752067 144.845876) scale(0.14 -0.14)">
       <use xlink:href="#CMR17-30" transform="scale(0.996264)"/>
       <use xlink:href="#CMMI12-3a" transform="translate(45.690477 0) scale(0.996264)"/>
       <use xlink:href="#CMR17-31" transform="translate(72.787654 0) scale(0.996264)"/>
      </g>
     </g>
    </g>
    <g id="xtick_7">
     <g id="line2d_21">
      <g>
       <use xlink:href="#mc9144f57d4" x="531.696226" y="128.16" style="stroke: #000000; stroke-width: 0.8"/>
      </g>
     </g>
     <g id="text_13">
      <!-- $\mathdefault{0.2}$ -->
      <g transform="translate(522.970935 144.845876) scale(0.14 -0.14)">
       <use xlink:href="#CMR17-30" transform="scale(0.996264)"/>
       <use xlink:href="#CMMI12-3a" transform="translate(45.690477 0) scale(0.996264)"/>
       <use xlink:href="#CMR17-32" transform="translate(72.787654 0) scale(0.996264)"/>
      </g>
     </g>
    </g>
    <g id="text_14">
     <!-- $a_3$ -->
     <g transform="translate(502.700628 162.627493) scale(0.16 -0.16)">
      <use xlink:href="#CMMI12-61" transform="scale(0.996264)"/>
      <use xlink:href="#CMR17-33" transform="translate(51.207858 -14.943915) scale(0.697382)"/>
     </g>
    </g>
   </g>
   <g id="matplotlib.axis_6">
    <g id="ytick_7">
     <g id="line2d_22">
      <g>
       <use xlink:href="#m7de6a0e27b" x="454.313208" y="96.48" style="stroke: #000000; stroke-width: 0.8"/>
      </g>
     </g>
    </g>
    <g id="ytick_8">
     <g id="line2d_23">
      <g>
       <use xlink:href="#m7de6a0e27b" x="454.313208" y="56.88" style="stroke: #000000; stroke-width: 0.8"/>
      </g>
     </g>
    </g>
    <g id="ytick_9">
     <g id="line2d_24">
      <g>
       <use xlink:href="#m7de6a0e27b" x="454.313208" y="17.28" style="stroke: #000000; stroke-width: 0.8"/>
      </g>
     </g>
    </g>
   </g>
   <g id="line2d_25">
    <path d="M 454.313208 94.21488 
L 456.524151 106.84728 
L 458.735094 113.60304 
L 460.946038 117.57096 
L 463.156981 119.45592 
L 465.367925 120.06576 
L 467.578868 120.30336 
L 469.789811 120.52512 
L 472.000755 120.72312 
L 474.211698 120.90528 
L 476.422642 121.07952 
L 478.633585 121.23 
L 480.844528 121.37256 
L 483.055472 121.5072 
L 485.266415 121.626 
L 487.477358 121.73688 
L 489.688302 121.83984 
L 491.899245 121.92696 
L 494.110189 122.01408 
L 496.321132 122.09328 
L 498.532075 122.15664 
L 500.743019 122.22 
L 502.953962 122.27544 
L 505.164906 122.32296 
L 507.375849 122.37048 
L 509.586792 122.40216 
L 511.797736 122.43384 
L 514.008679 122.4576 
L 516.219623 122.48136 
L 518.430566 122.4972 
L 520.641509 122.50512 
L 522.852453 122.51304 
L 525.063396 122.51304 
L 527.27434 122.51304 
L 529.485283 122.50512 
L 531.696226 122.48928 
L 533.90717 122.47344 
L 536.118113 122.4576 
L 538.329057 122.43384 
L 540.54 122.40216 
L 542.750943 122.37048 
L 544.961887 122.32296 
L 547.17283 122.27544 
L 549.383774 122.21208 
L 551.594717 122.14872 
L 553.80566 122.06952 
L 556.016604 121.99032 
L 558.227547 121.9032 
L 560.438491 121.80816 
L 562.649434 121.7052 
L 564.860377 121.59432 
" clip-path="url(#p77479a27b9)" style="fill: none; stroke: #482878; stroke-width: 3; stroke-linecap: square"/>
   </g>
   <g id="line2d_26">
    <path d="M 454.313208 94.21488 
L 456.524151 106.84728 
L 458.735094 113.60304 
L 460.946038 117.57096 
L 463.156981 119.45592 
L 465.367925 120.06576 
L 467.578868 120.30336 
L 469.789811 120.52512 
L 472.000755 120.72312 
L 474.211698 120.9132 
L 476.422642 121.07952 
L 478.633585 121.23 
L 480.844528 121.37256 
L 483.055472 121.5072 
L 485.266415 121.626 
L 487.477358 121.73688 
L 489.688302 121.83984 
L 491.899245 121.92696 
L 494.110189 122.01408 
L 496.321132 122.09328 
L 498.532075 122.15664 
L 500.743019 122.22 
L 502.953962 122.27544 
L 505.164906 122.32296 
L 507.375849 122.37048 
L 509.586792 122.40216 
L 511.797736 122.43384 
L 514.008679 122.4576 
L 516.219623 122.48136 
L 518.430566 122.4972 
L 520.641509 122.50512 
L 522.852453 122.51304 
L 525.063396 122.51304 
L 527.27434 122.51304 
L 529.485283 122.50512 
L 531.696226 122.48928 
L 533.90717 122.47344 
L 536.118113 122.4576 
L 538.329057 122.43384 
L 540.54 122.40216 
L 542.750943 122.37048 
L 544.961887 122.32296 
L 547.17283 122.27544 
L 549.383774 122.21208 
L 551.594717 122.14872 
L 553.80566 122.06952 
L 556.016604 121.99032 
L 558.227547 121.9032 
L 560.438491 121.80816 
L 562.649434 121.7052 
L 564.860377 121.59432 
" clip-path="url(#p77479a27b9)" style="fill: none; stroke: #31688e; stroke-width: 3; stroke-linecap: square"/>
   </g>
   <g id="line2d_27">
    <path d="M 463.633919 -1 
L 465.367925 22.52304 
L 467.578868 47.5344 
L 469.789811 68.15808 
L 472.000755 84.82968 
L 474.211698 97.39872 
L 476.422642 104.994 
L 478.633585 110.44296 
L 480.844528 114.4188 
L 483.055472 117.20664 
L 485.266415 119.22624 
L 487.477358 120.58056 
L 489.688302 121.41216 
L 491.899245 121.85568 
L 494.110189 122.01408 
L 496.321132 122.09328 
L 498.532075 122.15664 
L 500.743019 122.22 
L 502.953962 122.27544 
L 505.164906 122.32296 
L 507.375849 122.37048 
L 509.586792 122.40216 
L 511.797736 122.43384 
L 514.008679 122.20416 
L 516.219623 121.25376 
L 518.430566 119.24208 
L 520.641509 116.23248 
L 522.852453 112.43088 
L 525.063396 108.02736 
L 527.27434 103.16448 
L 529.485283 98.00856 
L 531.696226 92.64672 
L 533.90717 87.15816 
L 536.118113 81.63 
L 538.329057 76.086 
L 540.54 70.58952 
L 542.750943 65.14056 
L 544.961887 59.7708 
L 547.17283 54.48816 
L 549.383774 49.29264 
L 551.594717 44.1288 
L 553.80566 38.91744 
L 556.016604 33.68232 
L 558.227547 28.45512 
L 560.438491 23.2596 
L 562.649434 18.10368 
L 564.860377 13.01904 
" clip-path="url(#p77479a27b9)" style="fill: none; stroke: #1f9e89; stroke-width: 3; stroke-linecap: square"/>
   </g>
   <g id="line2d_28">
    <path d="M 463.817698 -1 
L 465.367925 21.8736 
L 467.578868 47.5344 
L 469.789811 68.15808 
L 472.000755 84.82968 
L 474.211698 97.39872 
L 476.422642 104.994 
L 478.633585 110.44296 
L 480.844528 114.4188 
L 483.055472 117.20664 
L 485.266415 119.22624 
L 487.477358 120.58056 
L 489.688302 121.41216 
L 491.899245 121.85568 
L 494.110189 122.01408 
L 496.321132 122.09328 
L 498.532075 122.15664 
L 500.743019 122.22 
L 502.953962 122.27544 
L 505.164906 122.32296 
L 507.375849 122.37048 
L 509.586792 122.40216 
L 511.797736 122.43384 
L 514.008679 122.19624 
L 516.219623 121.19832 
L 518.430566 119.22624 
L 520.641509 116.17704 
L 522.852453 112.41504 
L 525.063396 107.97984 
L 527.27434 103.14072 
L 529.485283 97.9848 
L 531.696226 92.60712 
L 533.90717 86.99976 
L 536.118113 81.1152 
L 538.329057 75.03264 
L 540.54 68.84712 
L 542.750943 62.68536 
L 544.961887 56.51568 
L 547.17283 50.48064 
L 549.383774 44.50896 
L 551.594717 38.69568 
L 553.80566 32.99328 
L 556.016604 27.44928 
L 558.227547 22.032 
L 560.438491 16.79688 
L 562.649434 11.63304 
L 564.860377 6.33456 
" clip-path="url(#p77479a27b9)" style="fill: none; stroke: #6ece58; stroke-width: 3; stroke-linecap: square"/>
   </g>
   <g id="LineCollection_3">
    <path d="M 509.586792 145 
L 509.586792 -1 
" clip-path="url(#p77479a27b9)" style="fill: none; stroke-dasharray: 5.55,2.4; stroke-dashoffset: 0; stroke: #cb1b4f; stroke-width: 1.5"/>
   </g>
   <g id="patch_13">
    <path d="M 454.313208 128.16 
L 454.313208 17.28 
" style="fill: none; stroke: #000000; stroke-width: 0.8; stroke-linejoin: miter; stroke-linecap: square"/>
   </g>
   <g id="patch_14">
    <path d="M 564.860377 128.16 
L 564.860377 17.28 
" style="fill: none; stroke: #000000; stroke-width: 0.8; stroke-linejoin: miter; stroke-linecap: square"/>
   </g>
   <g id="patch_15">
    <path d="M 454.313208 128.16 
L 564.860377 128.16 
" style="fill: none; stroke: #000000; stroke-width: 0.8; stroke-linejoin: miter; stroke-linecap: square"/>
   </g>
   <g id="patch_16">
    <path d="M 454.313208 17.28 
L 564.860377 17.28 
" style="fill: none; stroke: #000000; stroke-width: 0.8; stroke-linejoin: miter; stroke-linecap: square"/>
   </g>
  </g>
  <g id="axes_4">
   <g id="patch_17">
    <path d="M 586.969811 128.16 
L 697.516981 128.16 
L 697.516981 17.28 
L 586.969811 17.28 
L 586.969811 128.16 
z
" style="fill: none"/>
   </g>
   <g id="matplotlib.axis_7">
    <g id="xtick_8">
     <g id="line2d_29">
      <g>
       <use xlink:href="#mc9144f57d4" x="636.716038" y="128.16" style="stroke: #000000; stroke-width: 0.8"/>
      </g>
     </g>
     <g id="text_15">
      <!-- $\mathdefault{0.1}$ -->
      <g transform="translate(627.990747 144.845876) scale(0.14 -0.14)">
       <use xlink:href="#CMR17-30" transform="scale(0.996264)"/>
       <use xlink:href="#CMMI12-3a" transform="translate(45.690477 0) scale(0.996264)"/>
       <use xlink:href="#CMR17-31" transform="translate(72.787654 0) scale(0.996264)"/>
      </g>
     </g>
    </g>
    <g id="xtick_9">
     <g id="line2d_30">
      <g>
       <use xlink:href="#mc9144f57d4" x="691.989623" y="128.16" style="stroke: #000000; stroke-width: 0.8"/>
      </g>
     </g>
     <g id="text_16">
      <!-- $\mathdefault{0.2}$ -->
      <g transform="translate(683.264332 144.845876) scale(0.14 -0.14)">
       <use xlink:href="#CMR17-30" transform="scale(0.996264)"/>
       <use xlink:href="#CMMI12-3a" transform="translate(45.690477 0) scale(0.996264)"/>
       <use xlink:href="#CMR17-32" transform="translate(72.787654 0) scale(0.996264)"/>
      </g>
     </g>
    </g>
    <g id="text_17">
     <!-- $a_4$ -->
     <g transform="translate(635.357232 162.627493) scale(0.16 -0.16)">
      <defs>
       <path id="CMR17-34" d="M 2150 4122 
C 2150 4256 2144 4256 2029 4256 
L 128 1254 
L 128 1088 
L 1779 1088 
L 1779 457 
C 1779 224 1766 160 1318 160 
L 1197 160 
L 1197 0 
C 1402 0 1747 0 1965 0 
C 2182 0 2528 0 2733 0 
L 2733 160 
L 2611 160 
C 2163 160 2150 224 2150 457 
L 2150 1088 
L 2803 1088 
L 2803 1254 
L 2150 1254 
L 2150 4122 
z
M 1798 3703 
L 1798 1254 
L 256 1254 
L 1798 3703 
z
" transform="scale(0.015625)"/>
      </defs>
      <use xlink:href="#CMMI12-61" transform="scale(0.996264)"/>
      <use xlink:href="#CMR17-34" transform="translate(51.207858 -14.943915) scale(0.697382)"/>
     </g>
    </g>
   </g>
   <g id="matplotlib.axis_8">
    <g id="ytick_10">
     <g id="line2d_31">
      <g>
       <use xlink:href="#m7de6a0e27b" x="586.969811" y="96.48" style="stroke: #000000; stroke-width: 0.8"/>
      </g>
     </g>
    </g>
    <g id="ytick_11">
     <g id="line2d_32">
      <g>
       <use xlink:href="#m7de6a0e27b" x="586.969811" y="56.88" style="stroke: #000000; stroke-width: 0.8"/>
      </g>
     </g>
    </g>
    <g id="ytick_12">
     <g id="line2d_33">
      <g>
       <use xlink:href="#m7de6a0e27b" x="586.969811" y="17.28" style="stroke: #000000; stroke-width: 0.8"/>
      </g>
     </g>
    </g>
   </g>
   <g id="line2d_34">
    <path d="M 597.298127 -1 
L 598.024528 92.77344 
L 600.788208 98.50752 
L 603.551887 101.92896 
L 606.315566 104.59008 
L 609.079245 106.94232 
L 611.842925 109.00152 
L 614.606604 110.71224 
L 617.370283 112.518 
L 620.133962 114.51384 
L 622.897642 116.18496 
L 625.661321 117.61848 
L 628.425 118.80648 
L 631.188679 119.8044 
L 633.952358 120.62016 
L 636.716038 121.23792 
L 639.479717 121.7052 
L 642.243396 122.03784 
L 645.007075 122.25168 
L 647.770755 122.40216 
L 650.534434 122.48928 
L 653.298113 122.50512 
L 656.061792 122.3784 
L 658.825472 122.13288 
L 661.589151 121.76064 
L 664.35283 121.2696 
L 667.116509 120.73104 
L 669.880189 120.09744 
L 672.643868 119.40048 
L 675.407547 118.64808 
L 678.171226 117.85608 
L 680.934906 117.02448 
L 683.698585 116.15328 
L 686.462264 115.26624 
L 689.225943 114.34752 
L 691.989623 113.42088 
L 694.753302 112.47048 
L 697.516981 111.52008 
" clip-path="url(#p4adec2e759)" style="fill: none; stroke: #482878; stroke-width: 3; stroke-linecap: square"/>
   </g>
   <g id="line2d_35">
    <path d="M 613.450838 -1 
L 614.606604 73.78128 
L 617.370283 102.20616 
L 620.133962 113.06448 
L 622.897642 116.08992 
L 625.661321 117.57096 
L 628.425 118.79856 
L 631.188679 119.81232 
L 633.952358 120.61224 
L 636.716038 121.23792 
L 639.479717 121.7052 
L 642.243396 122.022 
L 645.007075 122.23584 
L 647.770755 122.3388 
L 650.534434 122.4576 
L 653.298113 122.4576 
L 656.061792 122.30712 
L 658.825472 122.08536 
L 661.589151 121.71312 
L 664.35283 121.20624 
L 667.116509 120.69144 
L 669.880189 119.99448 
L 672.643868 119.35296 
L 675.407547 118.6164 
L 678.171226 117.8244 
L 680.934906 117.00072 
L 683.698585 116.14536 
L 686.462264 115.24248 
L 689.225943 114.34752 
L 691.989623 113.40504 
L 694.753302 112.46256 
L 697.516981 111.48048 
" clip-path="url(#p4adec2e759)" style="fill: none; stroke: #31688e; stroke-width: 3; stroke-linecap: square"/>
   </g>
   <g id="line2d_36">
    <path d="M 598.973341 -1 
L 600.788208 57.48984 
L 603.551887 90.12816 
L 606.315566 97.77888 
L 609.079245 102.45168 
L 611.842925 106.26912 
L 614.606604 109.54008 
L 617.370283 112.27248 
L 620.133962 114.48216 
L 622.897642 116.20872 
L 625.661321 117.63432 
L 628.425 118.83024 
L 631.188679 119.81232 
L 633.952358 120.60432 
L 636.716038 121.21416 
L 639.479717 121.68144 
L 642.243396 122.01408 
L 645.007075 122.23584 
L 647.770755 122.37048 
L 650.534434 122.43384 
L 653.298113 122.41008 
L 656.061792 122.23584 
L 658.825472 121.9032 
L 661.589151 121.43592 
L 664.35283 120.85776 
L 667.116509 120.19248 
L 669.880189 119.44008 
L 672.643868 118.64016 
L 675.407547 117.77688 
L 678.171226 116.88192 
L 680.934906 115.95528 
L 683.698585 115.0128 
L 686.462264 114.04656 
L 689.225943 113.0724 
L 691.989623 112.05072 
L 694.753302 110.99736 
L 697.516981 109.89648 
" clip-path="url(#p4adec2e759)" style="fill: none; stroke: #1f9e89; stroke-width: 3; stroke-linecap: square"/>
   </g>
   <g id="line2d_37">
    <path d="M 622.057572 -1 
L 622.897642 115.29792 
L 625.661321 117.34128 
L 628.425 118.71936 
L 631.188679 119.74896 
L 633.952358 120.58848 
L 636.716038 121.21416 
L 639.479717 121.68144 
L 642.243396 122.00616 
L 645.007075 122.23584 
L 647.770755 122.37048 
L 650.534434 122.42592 
L 653.298113 122.41008 
L 656.061792 122.22792 
L 658.825472 121.89528 
L 661.589151 121.43592 
L 664.35283 120.85776 
L 667.116509 120.18456 
L 669.880189 119.44008 
L 672.643868 118.63224 
L 675.407547 117.77688 
L 678.171226 116.88192 
L 680.934906 115.95528 
L 683.698585 115.0128 
L 686.462264 114.04656 
L 689.225943 113.0724 
L 691.989623 112.05072 
L 694.753302 110.99736 
L 697.516981 109.89648 
" clip-path="url(#p4adec2e759)" style="fill: none; stroke: #6ece58; stroke-width: 3; stroke-linecap: square"/>
   </g>
   <g id="LineCollection_4">
    <path d="M 642.243396 145 
L 642.243396 -1 
" clip-path="url(#p4adec2e759)" style="fill: none; stroke-dasharray: 5.55,2.4; stroke-dashoffset: 0; stroke: #cb1b4f; stroke-width: 1.5"/>
   </g>
   <g id="patch_18">
    <path d="M 586.969811 128.16 
L 586.969811 17.28 
" style="fill: none; stroke: #000000; stroke-width: 0.8; stroke-linejoin: miter; stroke-linecap: square"/>
   </g>
   <g id="patch_19">
    <path d="M 697.516981 128.16 
L 697.516981 17.28 
" style="fill: none; stroke: #000000; stroke-width: 0.8; stroke-linejoin: miter; stroke-linecap: square"/>
   </g>
   <g id="patch_20">
    <path d="M 586.969811 128.16 
L 697.516981 128.16 
" style="fill: none; stroke: #000000; stroke-width: 0.8; stroke-linejoin: miter; stroke-linecap: square"/>
   </g>
   <g id="patch_21">
    <path d="M 586.969811 17.28 
L 697.516981 17.28 
" style="fill: none; stroke: #000000; stroke-width: 0.8; stroke-linejoin: miter; stroke-linecap: square"/>
   </g>
  </g>
  <g id="axes_5">
   <g id="patch_22">
    <path d="M 719.626415 128.16 
L 830.173585 128.16 
L 830.173585 17.28 
L 719.626415 17.28 
L 719.626415 128.16 
z
" style="fill: none"/>
   </g>
   <g id="matplotlib.axis_9">
    <g id="xtick_10">
     <g id="line2d_38">
      <g>
       <use xlink:href="#mc9144f57d4" x="730.681132" y="128.16" style="stroke: #000000; stroke-width: 0.8"/>
      </g>
     </g>
     <g id="text_18">
      <!-- $\mathdefault{0.01}$ -->
      <g transform="translate(718.541597 144.845876) scale(0.14 -0.14)">
       <use xlink:href="#CMR17-30" transform="scale(0.996264)"/>
       <use xlink:href="#CMMI12-3a" transform="translate(45.690477 0) scale(0.996264)"/>
       <use xlink:href="#CMR17-30" transform="translate(72.787654 0) scale(0.996264)"/>
       <use xlink:href="#CMR17-31" transform="translate(118.478131 0) scale(0.996264)"/>
      </g>
     </g>
    </g>
    <g id="xtick_11">
     <g id="line2d_39">
      <g>
       <use xlink:href="#mc9144f57d4" x="774.9" y="128.16" style="stroke: #000000; stroke-width: 0.8"/>
      </g>
     </g>
     <g id="text_19">
      <!-- $\mathdefault{0.02}$ -->
      <g transform="translate(762.760465 144.845876) scale(0.14 -0.14)">
       <use xlink:href="#CMR17-30" transform="scale(0.996264)"/>
       <use xlink:href="#CMMI12-3a" transform="translate(45.690477 0) scale(0.996264)"/>
       <use xlink:href="#CMR17-30" transform="translate(72.787654 0) scale(0.996264)"/>
       <use xlink:href="#CMR17-32" transform="translate(118.478131 0) scale(0.996264)"/>
      </g>
     </g>
    </g>
    <g id="xtick_12">
     <g id="line2d_40">
      <g>
       <use xlink:href="#mc9144f57d4" x="819.118868" y="128.16" style="stroke: #000000; stroke-width: 0.8"/>
      </g>
     </g>
     <g id="text_20">
      <!-- $\mathdefault{0.03}$ -->
      <g transform="translate(806.979333 144.845876) scale(0.14 -0.14)">
       <use xlink:href="#CMR17-30" transform="scale(0.996264)"/>
       <use xlink:href="#CMMI12-3a" transform="translate(45.690477 0) scale(0.996264)"/>
       <use xlink:href="#CMR17-30" transform="translate(72.787654 0) scale(0.996264)"/>
       <use xlink:href="#CMR17-33" transform="translate(118.478131 0) scale(0.996264)"/>
      </g>
     </g>
    </g>
    <g id="text_21">
     <!-- $a_5$ -->
     <g transform="translate(768.013836 162.627493) scale(0.16 -0.16)">
      <use xlink:href="#CMMI12-61" transform="scale(0.996264)"/>
      <use xlink:href="#CMR17-35" transform="translate(51.207858 -14.943915) scale(0.697382)"/>
     </g>
    </g>
   </g>
   <g id="matplotlib.axis_10">
    <g id="ytick_13">
     <g id="line2d_41">
      <g>
       <use xlink:href="#m7de6a0e27b" x="719.626415" y="96.48" style="stroke: #000000; stroke-width: 0.8"/>
      </g>
     </g>
    </g>
    <g id="ytick_14">
     <g id="line2d_42">
      <g>
       <use xlink:href="#m7de6a0e27b" x="719.626415" y="56.88" style="stroke: #000000; stroke-width: 0.8"/>
      </g>
     </g>
    </g>
    <g id="ytick_15">
     <g id="line2d_43">
      <g>
       <use xlink:href="#m7de6a0e27b" x="719.626415" y="17.28" style="stroke: #000000; stroke-width: 0.8"/>
      </g>
     </g>
    </g>
   </g>
   <g id="line2d_44">
    <path d="M 719.626415 119.13912 
L 721.837358 119.8836 
L 724.048302 120.94488 
L 726.259245 119.97864 
L 728.470189 119.74896 
L 730.681132 115.8444 
L 732.892075 119.82816 
L 735.103019 119.98656 
L 737.313962 119.22624 
L 739.524906 121.01616 
L 741.735849 119.06784 
L 743.946792 121.032 
L 746.157736 118.76688 
L 748.368679 117.49968 
L 750.579623 118.55304 
L 752.790566 119.55096 
L 755.001509 121.032 
L 757.212453 119.6856 
L 759.423396 118.64808 
L 761.63434 120.45384 
L 763.845283 121.25376 
L 766.056226 120.28752 
L 768.26717 119.29752 
L 770.478113 120.49344 
L 772.689057 119.85984 
L 774.9 119.45592 
L 777.110943 121.07952 
L 779.321887 118.28376 
L 781.53283 121.04784 
L 783.743774 120.37464 
L 785.954717 119.70144 
L 788.16566 121.00824 
L 790.376604 119.844 
L 792.587547 116.11368 
L 794.798491 120.57264 
L 797.009434 121.03992 
L 799.220377 120.89736 
L 801.431321 119.06784 
L 803.642264 118.7748 
L 805.853208 120.0024 
L 808.064151 121.29336 
L 810.275094 120.86568 
L 812.486038 118.95696 
L 814.696981 121.45968 
L 816.907925 118.58472 
L 819.118868 120.44592 
L 821.329811 121.61808 
L 823.540755 119.9232 
L 825.751698 119.54304 
L 827.962642 118.52928 
L 830.173585 121.05576 
" clip-path="url(#p0e9864e691)" style="fill: none; stroke: #482878; stroke-width: 3; stroke-linecap: square"/>
   </g>
   <g id="line2d_45">
    <path d="M 719.626415 121.64184 
L 721.837358 121.48344 
L 724.048302 122.00616 
L 726.259245 121.69728 
L 728.470189 121.65768 
L 730.681132 121.84776 
L 732.892075 121.43592 
L 735.103019 120.92904 
L 737.313962 122.022 
L 739.524906 121.76856 
L 741.735849 121.49136 
L 743.946792 121.31712 
L 746.157736 121.80816 
L 748.368679 122.01408 
L 750.579623 120.89736 
L 752.790566 121.84776 
L 755.001509 121.13496 
L 757.212453 121.626 
L 759.423396 121.76856 
L 761.63434 121.42008 
L 763.845283 121.9032 
L 766.056226 121.38048 
L 768.26717 121.59432 
L 770.478113 121.80816 
L 772.689057 121.81608 
L 774.9 121.99032 
L 777.110943 122.07744 
L 779.321887 121.032 
L 781.53283 121.85568 
L 783.743774 120.8736 
L 785.954717 121.16664 
L 788.16566 121.65768 
L 790.376604 121.88736 
L 792.587547 122.14872 
L 794.798491 122.14872 
L 797.009434 121.61808 
L 799.220377 122.02992 
L 801.431321 121.37256 
L 803.642264 122.13288 
L 805.853208 121.824 
L 808.064151 122.06952 
L 810.275094 121.64976 
L 812.486038 122.10912 
L 814.696981 121.92696 
L 816.907925 121.88736 
L 819.118868 121.45176 
L 821.329811 121.53096 
L 823.540755 121.19832 
L 825.751698 122.01408 
L 827.962642 121.92696 
L 830.173585 121.6656 
" clip-path="url(#p0e9864e691)" style="fill: none; stroke: #31688e; stroke-width: 3; stroke-linecap: square"/>
   </g>
   <g id="line2d_46">
    <path d="M 719.626415 121.824 
L 721.837358 121.93488 
L 724.048302 121.83192 
L 726.259245 121.88736 
L 728.470189 121.96656 
L 730.681132 121.95864 
L 732.892075 121.97448 
L 735.103019 122.0616 
L 737.313962 121.95072 
L 739.524906 122.0616 
L 741.735849 122.0616 
L 743.946792 122.0616 
L 746.157736 122.01408 
L 748.368679 121.99032 
L 750.579623 122.10912 
L 752.790566 122.1408 
L 755.001509 122.09328 
L 757.212453 121.89528 
L 759.423396 122.15664 
L 761.63434 122.04576 
L 763.845283 122.14872 
L 766.056226 122.1804 
L 768.26717 122.1804 
L 770.478113 122.19624 
L 772.689057 121.95864 
L 774.9 122.20416 
L 777.110943 122.20416 
L 779.321887 122.16456 
L 781.53283 122.18832 
L 783.743774 122.16456 
L 785.954717 122.23584 
L 788.16566 122.25168 
L 790.376604 122.18832 
L 792.587547 122.20416 
L 794.798491 122.24376 
L 797.009434 122.2596 
L 799.220377 122.29128 
L 801.431321 122.24376 
L 803.642264 122.27544 
L 805.853208 122.22 
L 808.064151 122.29128 
L 810.275094 122.2596 
L 812.486038 122.28336 
L 814.696981 122.24376 
L 816.907925 122.3388 
L 819.118868 122.22 
L 821.329811 122.29128 
L 823.540755 122.31504 
L 825.751698 122.27544 
L 827.962642 122.3388 
L 830.173585 122.35464 
" clip-path="url(#p0e9864e691)" style="fill: none; stroke: #1f9e89; stroke-width: 3; stroke-linecap: square"/>
   </g>
   <g id="line2d_47">
    <path d="M 719.626415 90.34992 
L 721.837358 89.92224 
L 724.048302 89.49456 
L 726.259245 89.06688 
L 728.470189 88.6392 
L 730.681132 88.21152 
L 732.892075 87.77592 
L 735.103019 87.34032 
L 737.313962 86.91264 
L 739.524906 86.47704 
L 741.735849 86.04144 
L 743.946792 85.59792 
L 746.157736 85.16232 
L 748.368679 84.7188 
L 750.579623 84.2832 
L 752.790566 83.83968 
L 755.001509 83.39616 
L 757.212453 82.96056 
L 759.423396 82.51704 
L 761.63434 82.07352 
L 763.845283 81.62208 
L 766.056226 81.17856 
L 768.26717 80.73504 
L 770.478113 80.29152 
L 772.689057 79.848 
L 774.9 79.40448 
L 777.110943 78.96096 
L 779.321887 78.51744 
L 781.53283 78.07392 
L 783.743774 77.6304 
L 785.954717 77.18688 
L 788.16566 76.74336 
L 790.376604 76.29984 
L 792.587547 75.85632 
L 794.798491 75.4128 
L 797.009434 74.96928 
L 799.220377 74.53368 
L 801.431321 74.09016 
L 803.642264 73.64664 
L 805.853208 73.20312 
L 808.064151 72.76752 
L 810.275094 72.33192 
L 812.486038 71.89632 
L 814.696981 71.46072 
L 816.907925 71.0172 
L 819.118868 70.58952 
L 821.329811 70.15392 
L 823.540755 69.71832 
L 825.751698 69.28272 
L 827.962642 68.84712 
L 830.173585 68.41944 
" clip-path="url(#p0e9864e691)" style="fill: none; stroke: #6ece58; stroke-width: 3; stroke-linecap: square"/>
   </g>
   <g id="LineCollection_5">
    <path d="M 774.9 145 
L 774.9 -1 
" clip-path="url(#p0e9864e691)" style="fill: none; stroke-dasharray: 5.55,2.4; stroke-dashoffset: 0; stroke: #cb1b4f; stroke-width: 1.5"/>
   </g>
   <g id="patch_23">
    <path d="M 719.626415 128.16 
L 719.626415 17.28 
" style="fill: none; stroke: #000000; stroke-width: 0.8; stroke-linejoin: miter; stroke-linecap: square"/>
   </g>
   <g id="patch_24">
    <path d="M 830.173585 128.16 
L 830.173585 17.28 
" style="fill: none; stroke: #000000; stroke-width: 0.8; stroke-linejoin: miter; stroke-linecap: square"/>
   </g>
   <g id="patch_25">
    <path d="M 719.626415 128.16 
L 830.173585 128.16 
" style="fill: none; stroke: #000000; stroke-width: 0.8; stroke-linejoin: miter; stroke-linecap: square"/>
   </g>
   <g id="patch_26">
    <path d="M 719.626415 17.28 
L 830.173585 17.28 
" style="fill: none; stroke: #000000; stroke-width: 0.8; stroke-linejoin: miter; stroke-linecap: square"/>
   </g>
  </g>
  <g id="axes_6">
   <g id="patch_27">
    <path d="M 852.283019 128.16 
L 962.830189 128.16 
L 962.830189 17.28 
L 852.283019 17.28 
L 852.283019 128.16 
z
" style="fill: none"/>
   </g>
   <g id="matplotlib.axis_11">
    <g id="xtick_13">
     <g id="line2d_48">
      <g>
       <use xlink:href="#mc9144f57d4" x="896.501887" y="128.16" style="stroke: #000000; stroke-width: 0.8"/>
      </g>
     </g>
     <g id="text_22">
      <!-- $\mathdefault{0.1}$ -->
      <g transform="translate(887.776596 144.845876) scale(0.14 -0.14)">
       <use xlink:href="#CMR17-30" transform="scale(0.996264)"/>
       <use xlink:href="#CMMI12-3a" transform="translate(45.690477 0) scale(0.996264)"/>
       <use xlink:href="#CMR17-31" transform="translate(72.787654 0) scale(0.996264)"/>
      </g>
     </g>
    </g>
    <g id="xtick_14">
     <g id="line2d_49">
      <g>
       <use xlink:href="#mc9144f57d4" x="951.775472" y="128.16" style="stroke: #000000; stroke-width: 0.8"/>
      </g>
     </g>
     <g id="text_23">
      <!-- $\mathdefault{0.2}$ -->
      <g transform="translate(943.050181 144.845876) scale(0.14 -0.14)">
       <use xlink:href="#CMR17-30" transform="scale(0.996264)"/>
       <use xlink:href="#CMMI12-3a" transform="translate(45.690477 0) scale(0.996264)"/>
       <use xlink:href="#CMR17-32" transform="translate(72.787654 0) scale(0.996264)"/>
      </g>
     </g>
    </g>
    <g id="text_24">
     <!-- $a_6$ -->
     <g transform="translate(900.67044 162.627493) scale(0.16 -0.16)">
      <defs>
       <path id="CMR17-36" d="M 678 2176 
C 678 3690 1395 4032 1811 4032 
C 1946 4032 2272 4009 2400 3776 
C 2298 3776 2106 3776 2106 3553 
C 2106 3381 2246 3323 2336 3323 
C 2394 3323 2566 3348 2566 3560 
C 2566 3954 2246 4179 1805 4179 
C 1043 4179 243 3390 243 1984 
C 243 253 966 -128 1478 -128 
C 2099 -128 2688 427 2688 1283 
C 2688 2081 2170 2662 1517 2662 
C 1126 2662 838 2407 678 1960 
L 678 2176 
z
M 1478 25 
C 691 25 691 1200 691 1436 
C 691 1896 909 2560 1504 2560 
C 1613 2560 1926 2560 2138 2120 
C 2253 1870 2253 1609 2253 1289 
C 2253 944 2253 690 2118 434 
C 1978 171 1773 25 1478 25 
z
" transform="scale(0.015625)"/>
      </defs>
      <use xlink:href="#CMMI12-61" transform="scale(0.996264)"/>
      <use xlink:href="#CMR17-36" transform="translate(51.207858 -14.943915) scale(0.697382)"/>
     </g>
    </g>
   </g>
   <g id="matplotlib.axis_12">
    <g id="ytick_16">
     <g id="line2d_50">
      <g>
       <use xlink:href="#m7de6a0e27b" x="852.283019" y="96.48" style="stroke: #000000; stroke-width: 0.8"/>
      </g>
     </g>
    </g>
    <g id="ytick_17">
     <g id="line2d_51">
      <g>
       <use xlink:href="#m7de6a0e27b" x="852.283019" y="56.88" style="stroke: #000000; stroke-width: 0.8"/>
      </g>
     </g>
    </g>
    <g id="ytick_18">
     <g id="line2d_52">
      <g>
       <use xlink:href="#m7de6a0e27b" x="852.283019" y="17.28" style="stroke: #000000; stroke-width: 0.8"/>
      </g>
     </g>
    </g>
   </g>
   <g id="line2d_53">
    <path d="M 852.283019 96.68592 
L 855.046698 105.73056 
L 857.810377 112.3992 
L 860.574057 116.5176 
L 863.337736 118.67976 
L 866.101415 119.7648 
L 868.865094 118.90944 
L 871.628774 120.41424 
L 874.392453 120.10536 
L 877.156132 120.88944 
L 879.919811 121.09536 
L 882.683491 121.23 
L 885.44717 121.45176 
L 888.210849 121.60224 
L 890.974528 121.73688 
L 893.738208 121.8636 
L 896.501887 121.97448 
L 899.265566 122.06952 
L 902.029245 122.15664 
L 904.792925 122.22792 
L 907.556604 122.29128 
L 910.320283 122.34672 
L 913.083962 122.39424 
L 915.847642 122.42592 
L 918.611321 122.4576 
L 921.375 122.48136 
L 924.138679 122.4972 
L 926.902358 122.50512 
L 929.666038 122.51304 
L 932.429717 122.50512 
L 935.193396 122.4972 
L 937.957075 122.48136 
L 940.720755 122.4576 
L 943.484434 122.43384 
L 946.248113 122.3784 
L 949.011792 122.32296 
L 951.775472 122.24376 
L 954.539151 122.12496 
L 957.30283 122.01408 
L 960.066509 121.87944 
L 962.830189 121.6656 
" clip-path="url(#pb1efbb44cf)" style="fill: none; stroke: #482878; stroke-width: 3; stroke-linecap: square"/>
   </g>
   <g id="line2d_54">
    <path d="M 852.283019 75.98304 
L 855.046698 105.65136 
L 857.810377 112.3992 
L 860.574057 116.5176 
L 863.337736 118.68768 
L 866.101415 119.7648 
L 868.865094 120.14496 
L 871.628774 120.42216 
L 874.392453 120.66768 
L 877.156132 120.88944 
L 879.919811 121.09536 
L 882.683491 121.28544 
L 885.44717 121.45176 
L 888.210849 121.60224 
L 890.974528 121.73688 
L 893.738208 121.8636 
L 896.501887 121.96656 
L 899.265566 122.06952 
L 902.029245 122.15664 
L 904.792925 122.22792 
L 907.556604 122.29128 
L 910.320283 122.34672 
L 913.083962 122.39424 
L 915.847642 122.42592 
L 918.611321 122.44968 
L 921.375 122.48136 
L 924.138679 122.4972 
L 926.902358 122.50512 
L 929.666038 122.51304 
L 932.429717 122.51304 
L 935.193396 122.50512 
L 937.957075 122.48136 
L 940.720755 122.46552 
L 943.484434 122.43384 
L 946.248113 122.40216 
L 949.011792 122.34672 
L 951.775472 122.26752 
L 954.539151 122.17248 
L 957.30283 122.05368 
L 960.066509 121.91112 
L 962.830189 121.76064 
" clip-path="url(#pb1efbb44cf)" style="fill: none; stroke: #31688e; stroke-width: 3; stroke-linecap: square"/>
   </g>
   <g id="line2d_55">
    <path d="M 852.283019 87.8868 
L 855.046698 93.7872 
L 857.810377 99.10152 
L 860.574057 103.74264 
L 863.337736 107.71056 
L 866.101415 111.02904 
L 868.865094 113.69016 
L 871.628774 115.6464 
L 874.392453 117.2304 
L 877.156132 118.4976 
L 879.919811 119.51136 
L 882.683491 120.30336 
L 885.44717 120.89736 
L 888.210849 121.34088 
L 890.974528 121.64976 
L 893.738208 121.85568 
L 896.501887 121.97448 
L 899.265566 122.06952 
L 902.029245 122.15664 
L 904.792925 122.22792 
L 907.556604 122.29128 
L 910.320283 122.34672 
L 913.083962 122.39424 
L 915.847642 122.42592 
L 918.611321 122.43384 
L 921.375 122.38632 
L 924.138679 122.2596 
L 926.902358 122.0616 
L 929.666038 121.7844 
L 932.429717 121.3884 
L 935.193396 120.84984 
L 937.957075 120.19248 
L 940.720755 119.41632 
L 943.484434 118.55304 
L 946.248113 117.59472 
L 949.011792 116.56512 
L 951.775472 115.47216 
L 954.539151 114.32376 
L 957.30283 113.12784 
L 960.066509 111.89232 
L 962.830189 110.62512 
" clip-path="url(#pb1efbb44cf)" style="fill: none; stroke: #1f9e89; stroke-width: 3; stroke-linecap: square"/>
   </g>
   <g id="line2d_56">
    <path d="M 860.503896 -1 
L 860.574057 8.28288 
L 863.337736 71.27064 
L 866.101415 102.20616 
L 868.865094 111.29832 
L 871.628774 115.4484 
L 874.392453 117.22248 
L 877.156132 118.4976 
L 879.919811 119.51136 
L 882.683491 120.29544 
L 885.44717 120.89736 
L 888.210849 121.33296 
L 890.974528 121.64976 
L 893.738208 121.84776 
L 896.501887 121.97448 
L 899.265566 122.06952 
L 902.029245 122.15664 
L 904.792925 122.22792 
L 907.556604 122.29128 
L 910.320283 122.34672 
L 913.083962 122.39424 
L 915.847642 122.42592 
L 918.611321 122.43384 
L 921.375 122.38632 
L 924.138679 122.2596 
L 926.902358 122.0616 
L 929.666038 121.7844 
L 932.429717 121.3884 
L 935.193396 120.84984 
L 937.957075 120.19248 
L 940.720755 119.41632 
L 943.484434 118.55304 
L 946.248113 117.59472 
L 949.011792 116.56512 
L 951.775472 115.47216 
L 954.539151 114.32376 
L 957.30283 113.12784 
L 960.066509 111.89232 
L 962.830189 110.62512 
" clip-path="url(#pb1efbb44cf)" style="fill: none; stroke: #6ece58; stroke-width: 3; stroke-linecap: square"/>
   </g>
   <g id="LineCollection_6">
    <path d="M 907.556604 145 
L 907.556604 -1 
" clip-path="url(#pb1efbb44cf)" style="fill: none; stroke-dasharray: 5.55,2.4; stroke-dashoffset: 0; stroke: #cb1b4f; stroke-width: 1.5"/>
   </g>
   <g id="patch_28">
    <path d="M 852.283019 128.16 
L 852.283019 17.28 
" style="fill: none; stroke: #000000; stroke-width: 0.8; stroke-linejoin: miter; stroke-linecap: square"/>
   </g>
   <g id="patch_29">
    <path d="M 962.830189 128.16 
L 962.830189 17.28 
" style="fill: none; stroke: #000000; stroke-width: 0.8; stroke-linejoin: miter; stroke-linecap: square"/>
   </g>
   <g id="patch_30">
    <path d="M 852.283019 128.16 
L 962.830189 128.16 
" style="fill: none; stroke: #000000; stroke-width: 0.8; stroke-linejoin: miter; stroke-linecap: square"/>
   </g>
   <g id="patch_31">
    <path d="M 852.283019 17.28 
L 962.830189 17.28 
" style="fill: none; stroke: #000000; stroke-width: 0.8; stroke-linejoin: miter; stroke-linecap: square"/>
   </g>
  </g>
  <g id="axes_7">
   <g id="patch_32">
    <path d="M 984.939623 128.16 
L 1095.486792 128.16 
L 1095.486792 17.28 
L 984.939623 17.28 
L 984.939623 128.16 
z
" style="fill: none"/>
   </g>
   <g id="matplotlib.axis_13">
    <g id="xtick_15">
     <g id="line2d_57">
      <g>
       <use xlink:href="#mc9144f57d4" x="995.99434" y="128.16" style="stroke: #000000; stroke-width: 0.8"/>
      </g>
     </g>
     <g id="text_25">
      <!-- $\mathdefault{0.03}$ -->
      <g transform="translate(983.854804 144.845876) scale(0.14 -0.14)">
       <use xlink:href="#CMR17-30" transform="scale(0.996264)"/>
       <use xlink:href="#CMMI12-3a" transform="translate(45.690477 0) scale(0.996264)"/>
       <use xlink:href="#CMR17-30" transform="translate(72.787654 0) scale(0.996264)"/>
       <use xlink:href="#CMR17-33" transform="translate(118.478131 0) scale(0.996264)"/>
      </g>
     </g>
    </g>
    <g id="xtick_16">
     <g id="line2d_58">
      <g>
       <use xlink:href="#mc9144f57d4" x="1040.213208" y="128.16" style="stroke: #000000; stroke-width: 0.8"/>
      </g>
     </g>
     <g id="text_26">
      <!-- $\mathdefault{0.04}$ -->
      <g transform="translate(1028.073672 144.845876) scale(0.14 -0.14)">
       <use xlink:href="#CMR17-30" transform="scale(0.996264)"/>
       <use xlink:href="#CMMI12-3a" transform="translate(45.690477 0) scale(0.996264)"/>
       <use xlink:href="#CMR17-30" transform="translate(72.787654 0) scale(0.996264)"/>
       <use xlink:href="#CMR17-34" transform="translate(118.478131 0) scale(0.996264)"/>
      </g>
     </g>
    </g>
    <g id="xtick_17">
     <g id="line2d_59">
      <g>
       <use xlink:href="#mc9144f57d4" x="1084.432075" y="128.16" style="stroke: #000000; stroke-width: 0.8"/>
      </g>
     </g>
     <g id="text_27">
      <!-- $\mathdefault{0.05}$ -->
      <g transform="translate(1072.29254 144.845876) scale(0.14 -0.14)">
       <use xlink:href="#CMR17-30" transform="scale(0.996264)"/>
       <use xlink:href="#CMMI12-3a" transform="translate(45.690477 0) scale(0.996264)"/>
       <use xlink:href="#CMR17-30" transform="translate(72.787654 0) scale(0.996264)"/>
       <use xlink:href="#CMR17-35" transform="translate(118.478131 0) scale(0.996264)"/>
      </g>
     </g>
    </g>
    <g id="text_28">
     <!-- $a_7$ -->
     <g transform="translate(1033.327043 162.627493) scale(0.16 -0.16)">
      <defs>
       <path id="CMR17-37" d="M 2886 3941 
L 2886 4081 
L 1382 4081 
C 634 4081 621 4165 595 4288 
L 480 4288 
L 294 3094 
L 410 3094 
C 429 3215 474 3540 550 3661 
C 589 3712 1062 3712 1171 3712 
L 2579 3712 
L 1869 2661 
C 1395 1954 1069 999 1069 165 
C 1069 89 1069 -128 1299 -128 
C 1530 -128 1530 89 1530 171 
L 1530 465 
C 1530 1508 1709 2196 2003 2636 
L 2886 3941 
z
" transform="scale(0.015625)"/>
      </defs>
      <use xlink:href="#CMMI12-61" transform="scale(0.996264)"/>
      <use xlink:href="#CMR17-37" transform="translate(51.207858 -14.943915) scale(0.697382)"/>
     </g>
    </g>
   </g>
   <g id="matplotlib.axis_14">
    <g id="ytick_19">
     <g id="line2d_60">
      <g>
       <use xlink:href="#m7de6a0e27b" x="984.939623" y="96.48" style="stroke: #000000; stroke-width: 0.8"/>
      </g>
     </g>
    </g>
    <g id="ytick_20">
     <g id="line2d_61">
      <g>
       <use xlink:href="#m7de6a0e27b" x="984.939623" y="56.88" style="stroke: #000000; stroke-width: 0.8"/>
      </g>
     </g>
    </g>
    <g id="ytick_21">
     <g id="line2d_62">
      <g>
       <use xlink:href="#m7de6a0e27b" x="984.939623" y="17.28" style="stroke: #000000; stroke-width: 0.8"/>
      </g>
     </g>
    </g>
   </g>
   <g id="line2d_63">
    <path d="M 984.939623 122.04576 
L 987.150566 122.10912 
L 989.361509 122.15664 
L 991.572453 122.18832 
L 993.783396 122.15664 
L 995.99434 122.22 
L 998.205283 122.24376 
L 1000.416226 122.31504 
L 1002.62717 122.35464 
L 1004.838113 122.38632 
L 1007.049057 122.35464 
L 1009.26 122.42592 
L 1011.470943 122.44968 
L 1013.681887 122.41008 
L 1015.89283 122.44968 
L 1018.103774 122.4576 
L 1020.314717 122.44968 
L 1022.52566 122.4576 
L 1024.736604 122.48136 
L 1026.947547 122.46552 
L 1029.158491 122.40216 
L 1031.369434 122.42592 
L 1033.580377 122.418 
L 1035.791321 122.418 
L 1038.002264 122.36256 
L 1040.213208 122.37048 
L 1042.424151 122.34672 
L 1044.635094 122.32296 
L 1046.846038 122.29128 
L 1049.056981 122.26752 
L 1051.267925 122.23584 
L 1053.478868 122.21208 
L 1055.689811 122.16456 
L 1057.900755 122.1408 
L 1060.111698 122.1012 
L 1062.322642 122.06952 
L 1064.533585 122.02992 
L 1066.744528 121.99032 
L 1068.955472 121.95072 
L 1071.166415 121.91112 
L 1073.377358 121.87152 
L 1075.588302 121.83192 
L 1077.799245 121.7844 
L 1080.010189 121.7448 
L 1082.221132 121.69728 
L 1084.432075 121.64976 
L 1086.643019 121.60224 
L 1088.853962 121.56264 
L 1091.064906 121.51512 
L 1093.275849 121.4676 
L 1095.486792 121.42008 
" clip-path="url(#p832f86db2f)" style="fill: none; stroke: #482878; stroke-width: 3; stroke-linecap: square"/>
   </g>
   <g id="line2d_64">
    <path d="M 984.939623 122.10912 
L 987.150566 122.14872 
L 989.361509 122.20416 
L 991.572453 122.25168 
L 993.783396 122.30712 
L 995.99434 122.34672 
L 998.205283 122.38632 
L 1000.416226 122.418 
L 1002.62717 122.44176 
L 1004.838113 122.4576 
L 1007.049057 122.48136 
L 1009.26 122.48928 
L 1011.470943 122.4972 
L 1013.681887 122.51304 
L 1015.89283 122.51304 
L 1018.103774 122.51304 
L 1020.314717 122.51304 
L 1022.52566 122.50512 
L 1024.736604 122.4972 
L 1026.947547 122.48928 
L 1029.158491 122.47344 
L 1031.369434 122.4576 
L 1033.580377 122.44176 
L 1035.791321 122.42592 
L 1038.002264 122.40216 
L 1040.213208 122.3784 
L 1042.424151 122.35464 
L 1044.635094 122.33088 
L 1046.846038 122.2992 
L 1049.056981 122.27544 
L 1051.267925 122.24376 
L 1053.478868 122.21208 
L 1055.689811 122.17248 
L 1057.900755 122.1408 
L 1060.111698 122.10912 
L 1062.322642 122.06952 
L 1064.533585 122.02992 
L 1066.744528 121.99032 
L 1068.955472 121.95072 
L 1071.166415 121.91112 
L 1073.377358 121.87152 
L 1075.588302 121.83192 
L 1077.799245 121.7844 
L 1080.010189 121.7448 
L 1082.221132 121.69728 
L 1084.432075 121.64976 
L 1086.643019 121.60224 
L 1088.853962 121.55472 
L 1091.064906 121.51512 
L 1093.275849 121.4676 
L 1095.486792 121.42008 
" clip-path="url(#p832f86db2f)" style="fill: none; stroke: #31688e; stroke-width: 3; stroke-linecap: square"/>
   </g>
   <g id="line2d_65">
    <path d="M 984.939623 118.50552 
L 987.150566 118.87776 
L 989.361509 119.21832 
L 991.572453 119.54304 
L 993.783396 119.844 
L 995.99434 120.1212 
L 998.205283 120.37464 
L 1000.416226 120.60432 
L 1002.62717 120.81816 
L 1004.838113 121.02408 
L 1007.049057 121.21416 
L 1009.26 121.3884 
L 1011.470943 121.5468 
L 1013.681887 121.69728 
L 1015.89283 121.83192 
L 1018.103774 121.95072 
L 1020.314717 122.0616 
L 1022.52566 122.15664 
L 1024.736604 122.24376 
L 1026.947547 122.31504 
L 1029.158491 122.3784 
L 1031.369434 122.418 
L 1033.580377 122.43384 
L 1035.791321 122.42592 
L 1038.002264 122.40216 
L 1040.213208 122.38632 
L 1042.424151 122.35464 
L 1044.635094 122.33088 
L 1046.846038 122.30712 
L 1049.056981 122.27544 
L 1051.267925 122.24376 
L 1053.478868 122.21208 
L 1055.689811 122.1804 
L 1057.900755 122.1408 
L 1060.111698 122.10912 
L 1062.322642 122.06952 
L 1064.533585 122.03784 
L 1066.744528 121.99824 
L 1068.955472 121.95864 
L 1071.166415 121.91112 
L 1073.377358 121.83984 
L 1075.588302 121.76064 
L 1077.799245 121.6656 
L 1080.010189 121.5468 
L 1082.221132 121.41216 
L 1084.432075 121.26168 
L 1086.643019 121.10328 
L 1088.853962 120.92112 
L 1091.064906 120.73104 
L 1093.275849 120.52512 
L 1095.486792 120.30336 
" clip-path="url(#p832f86db2f)" style="fill: none; stroke: #1f9e89; stroke-width: 3; stroke-linecap: square"/>
   </g>
   <g id="line2d_66">
    <path d="M 984.939623 54.32976 
L 987.150566 57.18888 
L 989.361509 59.9292 
L 991.572453 62.55864 
L 993.783396 65.0772 
L 995.99434 67.46112 
L 998.205283 69.74208 
L 1000.416226 71.88048 
L 1002.62717 73.89216 
L 1004.838113 75.78504 
L 1007.049057 77.52744 
L 1009.26 79.15104 
L 1011.470943 80.64 
L 1013.681887 81.99432 
L 1015.89283 83.20608 
L 1018.103774 84.29112 
L 1020.314717 85.24152 
L 1022.52566 86.04936 
L 1024.736604 86.7384 
L 1026.947547 87.28488 
L 1029.158491 87.70464 
L 1031.369434 87.99768 
L 1033.580377 88.164 
L 1035.791321 88.2036 
L 1038.002264 88.13232 
L 1040.213208 87.9264 
L 1042.424151 87.6096 
L 1044.635094 87.174 
L 1046.846038 86.63544 
L 1049.056981 85.97808 
L 1051.267925 85.20984 
L 1053.478868 84.34656 
L 1055.689811 83.3724 
L 1057.900755 82.29528 
L 1060.111698 81.1152 
L 1062.322642 79.85592 
L 1064.533585 78.48576 
L 1066.744528 77.0364 
L 1068.955472 75.492 
L 1071.166415 73.86048 
L 1073.377358 72.14976 
L 1075.588302 70.35192 
L 1077.799245 68.4828 
L 1080.010189 66.53448 
L 1082.221132 64.404 
L 1084.432075 62.05176 
L 1086.643019 59.52528 
L 1088.853962 56.81664 
L 1091.064906 53.96544 
L 1093.275849 50.98752 
L 1095.486792 47.8908 
" clip-path="url(#p832f86db2f)" style="fill: none; stroke: #6ece58; stroke-width: 3; stroke-linecap: square"/>
   </g>
   <g id="LineCollection_7">
    <path d="M 1040.213208 145 
L 1040.213208 -1 
" clip-path="url(#p832f86db2f)" style="fill: none; stroke-dasharray: 5.55,2.4; stroke-dashoffset: 0; stroke: #cb1b4f; stroke-width: 1.5"/>
   </g>
   <g id="patch_33">
    <path d="M 984.939623 128.16 
L 984.939623 17.28 
" style="fill: none; stroke: #000000; stroke-width: 0.8; stroke-linejoin: miter; stroke-linecap: square"/>
   </g>
   <g id="patch_34">
    <path d="M 1095.486792 128.16 
L 1095.486792 17.28 
" style="fill: none; stroke: #000000; stroke-width: 0.8; stroke-linejoin: miter; stroke-linecap: square"/>
   </g>
   <g id="patch_35">
    <path d="M 984.939623 128.16 
L 1095.486792 128.16 
" style="fill: none; stroke: #000000; stroke-width: 0.8; stroke-linejoin: miter; stroke-linecap: square"/>
   </g>
   <g id="patch_36">
    <path d="M 984.939623 17.28 
L 1095.486792 17.28 
" style="fill: none; stroke: #000000; stroke-width: 0.8; stroke-linejoin: miter; stroke-linecap: square"/>
   </g>
  </g>
  <g id="axes_8">
   <g id="patch_37">
    <path d="M 1117.596226 128.16 
L 1228.143396 128.16 
L 1228.143396 17.28 
L 1117.596226 17.28 
L 1117.596226 128.16 
z
" style="fill: none"/>
   </g>
   <g id="matplotlib.axis_15">
    <g id="xtick_18">
     <g id="line2d_67">
      <g>
       <use xlink:href="#mc9144f57d4" x="1161.815094" y="128.16" style="stroke: #000000; stroke-width: 0.8"/>
      </g>
     </g>
     <g id="text_29">
      <!-- $\mathdefault{0.1}$ -->
      <g transform="translate(1153.089803 144.845876) scale(0.14 -0.14)">
       <use xlink:href="#CMR17-30" transform="scale(0.996264)"/>
       <use xlink:href="#CMMI12-3a" transform="translate(45.690477 0) scale(0.996264)"/>
       <use xlink:href="#CMR17-31" transform="translate(72.787654 0) scale(0.996264)"/>
      </g>
     </g>
    </g>
    <g id="xtick_19">
     <g id="line2d_68">
      <g>
       <use xlink:href="#mc9144f57d4" x="1217.088679" y="128.16" style="stroke: #000000; stroke-width: 0.8"/>
      </g>
     </g>
     <g id="text_30">
      <!-- $\mathdefault{0.2}$ -->
      <g transform="translate(1208.363388 144.845876) scale(0.14 -0.14)">
       <use xlink:href="#CMR17-30" transform="scale(0.996264)"/>
       <use xlink:href="#CMMI12-3a" transform="translate(45.690477 0) scale(0.996264)"/>
       <use xlink:href="#CMR17-32" transform="translate(72.787654 0) scale(0.996264)"/>
      </g>
     </g>
    </g>
    <g id="text_31">
     <!-- $a_8$ -->
     <g transform="translate(1165.983647 162.627493) scale(0.16 -0.16)">
      <defs>
       <path id="CMR17-38" d="M 1741 2264 
C 2144 2467 2554 2773 2554 3263 
C 2554 3841 1990 4179 1472 4179 
C 890 4179 378 3759 378 3180 
C 378 3021 416 2747 666 2505 
C 730 2442 998 2251 1171 2130 
C 883 1983 211 1634 211 934 
C 211 279 838 -128 1459 -128 
C 2144 -128 2720 362 2720 1010 
C 2720 1590 2330 1857 2074 2029 
L 1741 2264 
z
M 902 2822 
C 851 2854 595 3051 595 3351 
C 595 3739 998 4032 1459 4032 
C 1965 4032 2336 3676 2336 3262 
C 2336 2669 1670 2331 1638 2331 
C 1632 2331 1626 2331 1574 2370 
L 902 2822 
z
M 2080 1519 
C 2176 1449 2483 1240 2483 851 
C 2483 381 2010 25 1472 25 
C 890 25 448 438 448 940 
C 448 1443 838 1862 1280 2060 
L 2080 1519 
z
" transform="scale(0.015625)"/>
      </defs>
      <use xlink:href="#CMMI12-61" transform="scale(0.996264)"/>
      <use xlink:href="#CMR17-38" transform="translate(51.207858 -14.943915) scale(0.697382)"/>
     </g>
    </g>
   </g>
   <g id="matplotlib.axis_16">
    <g id="ytick_22">
     <g id="line2d_69">
      <g>
       <use xlink:href="#m7de6a0e27b" x="1117.596226" y="96.48" style="stroke: #000000; stroke-width: 0.8"/>
      </g>
     </g>
    </g>
    <g id="ytick_23">
     <g id="line2d_70">
      <g>
       <use xlink:href="#m7de6a0e27b" x="1117.596226" y="56.88" style="stroke: #000000; stroke-width: 0.8"/>
      </g>
     </g>
    </g>
    <g id="ytick_24">
     <g id="line2d_71">
      <g>
       <use xlink:href="#m7de6a0e27b" x="1117.596226" y="17.28" style="stroke: #000000; stroke-width: 0.8"/>
      </g>
     </g>
    </g>
   </g>
   <g id="line2d_72">
    <path d="M 1120.30953 -1 
L 1120.359906 -0.12024 
L 1123.123585 40.82616 
L 1125.887264 71.46072 
L 1128.650943 93.31992 
L 1131.414623 107.29872 
L 1134.178302 113.38128 
L 1136.941981 115.50384 
L 1139.70566 117.09576 
L 1142.46934 118.23624 
L 1145.233019 119.10744 
L 1147.996698 119.74104 
L 1150.760377 120.98448 
L 1153.524057 121.64184 
L 1156.287736 122.07744 
L 1159.051415 122.34672 
L 1161.815094 122.46552 
L 1164.578774 122.51304 
L 1167.342453 122.50512 
L 1170.106132 122.4576 
L 1172.869811 122.36256 
L 1175.633491 122.32296 
L 1178.39717 122.09328 
L 1181.160849 122.09328 
L 1183.924528 121.60224 
L 1186.688208 121.80024 
L 1189.451887 121.14288 
L 1192.215566 121.29336 
L 1194.979245 120.76272 
L 1197.742925 120.72312 
L 1200.506604 120.77856 
L 1203.270283 120.54096 
L 1206.033962 120.29544 
L 1208.797642 120.05784 
L 1211.561321 119.79648 
L 1214.325 119.39256 
L 1217.088679 118.82232 
L 1219.852358 117.7056 
L 1222.616038 116.874 
L 1225.379717 115.38504 
L 1228.143396 113.75352 
" clip-path="url(#p21917f6dfa)" style="fill: none; stroke: #482878; stroke-width: 3; stroke-linecap: square"/>
   </g>
   <g id="line2d_73">
    <path d="M 1120.770891 -1 
L 1123.123585 30.5064 
L 1125.887264 56.9592 
L 1128.650943 72.73584 
L 1131.414623 82.33488 
L 1134.178302 90.34992 
L 1136.941981 98.01648 
L 1139.70566 105.10488 
L 1142.46934 111.27456 
L 1145.233019 116.23248 
L 1147.996698 119.57472 
L 1150.760377 121.01616 
L 1153.524057 121.64184 
L 1156.287736 122.07744 
L 1159.051415 122.35464 
L 1161.815094 122.46552 
L 1164.578774 122.51304 
L 1167.342453 122.50512 
L 1170.106132 122.46552 
L 1172.869811 122.418 
L 1175.633491 122.3388 
L 1178.39717 122.22792 
L 1181.160849 122.10912 
L 1183.924528 121.95864 
L 1186.688208 121.79232 
L 1189.451887 121.59432 
L 1192.215566 121.41216 
L 1194.979245 121.1904 
L 1197.742925 120.9132 
L 1200.506604 120.66768 
L 1203.270283 120.30336 
L 1206.033962 120.2796 
L 1208.797642 120.042 
L 1211.561321 119.78856 
L 1214.325 119.39256 
L 1217.088679 118.82232 
L 1219.852358 118.07784 
L 1222.616038 116.98488 
L 1225.379717 115.488 
L 1228.143396 113.76936 
" clip-path="url(#p21917f6dfa)" style="fill: none; stroke: #31688e; stroke-width: 3; stroke-linecap: square"/>
   </g>
   <g id="line2d_74">
    <path d="M 1150.80328 -1 
L 1153.524057 16.03656 
L 1156.287736 36.61272 
L 1159.051415 61.14888 
L 1161.815094 88.21152 
L 1164.578774 110.86272 
L 1167.342453 121.47552 
L 1170.106132 122.418 
L 1172.869811 122.418 
L 1175.633491 122.3388 
L 1178.39717 122.23584 
L 1181.160849 122.11704 
L 1183.924528 121.97448 
L 1186.688208 121.80816 
L 1189.451887 121.61016 
L 1192.215566 121.34088 
L 1194.979245 120.98448 
L 1197.742925 120.54888 
L 1200.506604 119.99448 
L 1203.270283 119.32128 
L 1206.033962 118.52136 
L 1208.797642 110.68848 
L 1211.561321 101.35872 
L 1214.325 81.16272 
L 1217.088679 71.47656 
L 1219.852358 53.93376 
L 1222.616038 31.8924 
L 1225.379717 105.4296 
L 1228.143396 102.67344 
" clip-path="url(#p21917f6dfa)" style="fill: none; stroke: #1f9e89; stroke-width: 3; stroke-linecap: square"/>
   </g>
   <g id="line2d_75">
    <path d="M 1150.80328 -1 
L 1153.524057 16.03656 
L 1156.287736 36.61272 
L 1159.051415 61.14888 
L 1161.815094 88.21152 
L 1164.578774 110.86272 
L 1167.342453 121.47552 
L 1170.106132 122.418 
L 1172.869811 122.418 
L 1175.633491 122.3388 
L 1178.39717 122.23584 
L 1181.160849 122.11704 
L 1183.924528 121.97448 
L 1186.688208 121.80816 
L 1189.451887 121.61016 
L 1192.215566 121.34088 
L 1194.979245 120.9924 
L 1197.742925 120.54888 
L 1200.506604 119.99448 
L 1203.270283 119.32128 
L 1206.033962 118.52136 
L 1208.797642 117.38088 
L 1211.561321 115.86816 
L 1214.325 114.19704 
L 1217.088679 112.43088 
L 1219.852358 110.37168 
L 1222.616038 108.01152 
L 1225.379717 105.12072 
L 1228.143396 101.628 
" clip-path="url(#p21917f6dfa)" style="fill: none; stroke: #6ece58; stroke-width: 3; stroke-linecap: square"/>
   </g>
   <g id="LineCollection_8">
    <path d="M 1172.869811 145 
L 1172.869811 -1 
" clip-path="url(#p21917f6dfa)" style="fill: none; stroke-dasharray: 5.55,2.4; stroke-dashoffset: 0; stroke: #cb1b4f; stroke-width: 1.5"/>
   </g>
   <g id="patch_38">
    <path d="M 1117.596226 128.16 
L 1117.596226 17.28 
" style="fill: none; stroke: #000000; stroke-width: 0.8; stroke-linejoin: miter; stroke-linecap: square"/>
   </g>
   <g id="patch_39">
    <path d="M 1228.143396 128.16 
L 1228.143396 17.28 
" style="fill: none; stroke: #000000; stroke-width: 0.8; stroke-linejoin: miter; stroke-linecap: square"/>
   </g>
   <g id="patch_40">
    <path d="M 1117.596226 128.16 
L 1228.143396 128.16 
" style="fill: none; stroke: #000000; stroke-width: 0.8; stroke-linejoin: miter; stroke-linecap: square"/>
   </g>
   <g id="patch_41">
    <path d="M 1117.596226 17.28 
L 1228.143396 17.28 
" style="fill: none; stroke: #000000; stroke-width: 0.8; stroke-linejoin: miter; stroke-linecap: square"/>
   </g>
  </g>
  <g id="axes_9">
   <g id="patch_42">
    <path d="M 1250.25283 128.16 
L 1360.8 128.16 
L 1360.8 17.28 
L 1250.25283 17.28 
L 1250.25283 128.16 
z
" style="fill: none"/>
   </g>
   <g id="matplotlib.axis_17">
    <g id="xtick_20">
     <g id="line2d_76">
      <g>
       <use xlink:href="#mc9144f57d4" x="1261.307547" y="128.16" style="stroke: #000000; stroke-width: 0.8"/>
      </g>
     </g>
     <g id="text_32">
      <!-- $\mathdefault{0.01}$ -->
      <g transform="translate(1249.168012 144.845876) scale(0.14 -0.14)">
       <use xlink:href="#CMR17-30" transform="scale(0.996264)"/>
       <use xlink:href="#CMMI12-3a" transform="translate(45.690477 0) scale(0.996264)"/>
       <use xlink:href="#CMR17-30" transform="translate(72.787654 0) scale(0.996264)"/>
       <use xlink:href="#CMR17-31" transform="translate(118.478131 0) scale(0.996264)"/>
      </g>
     </g>
    </g>
    <g id="xtick_21">
     <g id="line2d_77">
      <g>
       <use xlink:href="#mc9144f57d4" x="1305.526415" y="128.16" style="stroke: #000000; stroke-width: 0.8"/>
      </g>
     </g>
     <g id="text_33">
      <!-- $\mathdefault{0.02}$ -->
      <g transform="translate(1293.38688 144.845876) scale(0.14 -0.14)">
       <use xlink:href="#CMR17-30" transform="scale(0.996264)"/>
       <use xlink:href="#CMMI12-3a" transform="translate(45.690477 0) scale(0.996264)"/>
       <use xlink:href="#CMR17-30" transform="translate(72.787654 0) scale(0.996264)"/>
       <use xlink:href="#CMR17-32" transform="translate(118.478131 0) scale(0.996264)"/>
      </g>
     </g>
    </g>
    <g id="xtick_22">
     <g id="line2d_78">
      <g>
       <use xlink:href="#mc9144f57d4" x="1349.745283" y="128.16" style="stroke: #000000; stroke-width: 0.8"/>
      </g>
     </g>
     <g id="text_34">
      <!-- $\mathdefault{0.03}$ -->
      <g transform="translate(1337.605748 144.845876) scale(0.14 -0.14)">
       <use xlink:href="#CMR17-30" transform="scale(0.996264)"/>
       <use xlink:href="#CMMI12-3a" transform="translate(45.690477 0) scale(0.996264)"/>
       <use xlink:href="#CMR17-30" transform="translate(72.787654 0) scale(0.996264)"/>
       <use xlink:href="#CMR17-33" transform="translate(118.478131 0) scale(0.996264)"/>
      </g>
     </g>
    </g>
    <g id="text_35">
     <!-- $a_9$ -->
     <g transform="translate(1298.640251 162.627493) scale(0.16 -0.16)">
      <defs>
       <path id="CMR17-39" d="M 2253 1864 
C 2253 464 1670 31 1190 31 
C 1043 31 685 31 538 294 
C 704 268 826 357 826 518 
C 826 692 685 749 595 749 
C 538 749 365 723 365 506 
C 365 71 742 -128 1203 -128 
C 1939 -128 2688 674 2688 2073 
C 2688 3817 1971 4179 1485 4179 
C 851 4179 243 3628 243 2778 
C 243 1991 762 1408 1414 1408 
C 1952 1408 2189 1903 2253 2112 
L 2253 1864 
z
M 1427 1510 
C 1254 1510 1011 1542 813 1922 
C 678 2169 678 2461 678 2771 
C 678 3146 678 3405 858 3684 
C 947 3817 1114 4032 1485 4032 
C 2240 4032 2240 2885 2240 2632 
C 2240 2182 2035 1510 1427 1510 
z
" transform="scale(0.015625)"/>
      </defs>
      <use xlink:href="#CMMI12-61" transform="scale(0.996264)"/>
      <use xlink:href="#CMR17-39" transform="translate(51.207858 -14.943915) scale(0.697382)"/>
     </g>
    </g>
   </g>
   <g id="matplotlib.axis_18">
    <g id="ytick_25">
     <g id="line2d_79">
      <g>
       <use xlink:href="#m7de6a0e27b" x="1250.25283" y="96.48" style="stroke: #000000; stroke-width: 0.8"/>
      </g>
     </g>
    </g>
    <g id="ytick_26">
     <g id="line2d_80">
      <g>
       <use xlink:href="#m7de6a0e27b" x="1250.25283" y="56.88" style="stroke: #000000; stroke-width: 0.8"/>
      </g>
     </g>
    </g>
    <g id="ytick_27">
     <g id="line2d_81">
      <g>
       <use xlink:href="#m7de6a0e27b" x="1250.25283" y="17.28" style="stroke: #000000; stroke-width: 0.8"/>
      </g>
     </g>
    </g>
   </g>
   <g id="line2d_82">
    <path d="M 1250.25283 122.3784 
L 1252.463774 121.49136 
L 1254.674717 121.824 
L 1256.88566 122.39424 
L 1259.096604 121.95072 
L 1261.307547 121.71312 
L 1263.518491 119.53512 
L 1265.729434 121.13496 
L 1267.940377 122.418 
L 1270.151321 122.19624 
L 1272.362264 122.4576 
L 1274.573208 122.41008 
L 1276.784151 121.45968 
L 1278.995094 117.9036 
L 1281.206038 122.30712 
L 1283.416981 118.3392 
L 1285.627925 122.35464 
L 1287.838868 122.19624 
L 1290.049811 120.88944 
L 1292.260755 121.14288 
L 1294.471698 120.26376 
L 1296.682642 121.10328 
L 1298.893585 121.17456 
L 1301.104528 121.65768 
L 1303.315472 120.1212 
L 1305.526415 117.14328 
L 1307.737358 121.29336 
L 1309.948302 121.10328 
L 1312.159245 122.04576 
L 1314.370189 121.8636 
L 1316.581132 121.45968 
L 1318.792075 122.33088 
L 1321.003019 121.3092 
L 1323.213962 121.626 
L 1325.424906 121.63392 
L 1327.635849 120.69936 
L 1329.846792 120.9924 
L 1332.057736 121.29336 
L 1334.268679 121.76064 
L 1336.479623 121.77648 
L 1338.690566 121.09536 
L 1340.901509 121.64184 
L 1343.112453 120.834 
L 1345.323396 121.04784 
L 1347.53434 121.57056 
L 1349.745283 121.67352 
L 1351.956226 121.4676 
L 1354.16717 121.5072 
L 1356.378113 121.08744 
L 1358.589057 121.49136 
L 1360.8 121.49136 
" clip-path="url(#pedd776121e)" style="fill: none; stroke: #482878; stroke-width: 3; stroke-linecap: square"/>
   </g>
   <g id="line2d_83">
    <path d="M 1250.25283 122.22792 
L 1252.463774 122.1804 
L 1254.674717 121.79232 
L 1256.88566 122.23584 
L 1259.096604 121.55472 
L 1261.307547 122.29128 
L 1263.518491 122.29128 
L 1265.729434 122.23584 
L 1267.940377 122.14872 
L 1270.151321 122.11704 
L 1272.362264 122.03784 
L 1274.573208 122.33088 
L 1276.784151 121.93488 
L 1278.995094 122.29128 
L 1281.206038 122.43384 
L 1283.416981 122.32296 
L 1285.627925 121.73688 
L 1287.838868 122.32296 
L 1290.049811 122.3388 
L 1292.260755 122.19624 
L 1294.471698 122.23584 
L 1296.682642 122.33088 
L 1298.893585 122.28336 
L 1301.104528 122.37048 
L 1303.315472 122.37048 
L 1305.526415 122.35464 
L 1307.737358 122.3784 
L 1309.948302 122.35464 
L 1312.159245 122.39424 
L 1314.370189 122.38632 
L 1316.581132 122.28336 
L 1318.792075 122.36256 
L 1321.003019 122.34672 
L 1323.213962 122.31504 
L 1325.424906 122.2992 
L 1327.635849 122.32296 
L 1329.846792 122.29128 
L 1332.057736 122.31504 
L 1334.268679 122.32296 
L 1336.479623 122.2992 
L 1338.690566 122.29128 
L 1340.901509 122.27544 
L 1343.112453 122.2596 
L 1345.323396 122.27544 
L 1347.53434 122.26752 
L 1349.745283 122.25168 
L 1351.956226 122.23584 
L 1354.16717 122.22792 
L 1356.378113 122.22 
L 1358.589057 122.21208 
L 1360.8 122.19624 
" clip-path="url(#pedd776121e)" style="fill: none; stroke: #31688e; stroke-width: 3; stroke-linecap: square"/>
   </g>
   <g id="line2d_84">
    <path d="M 1250.25283 122.418 
L 1252.463774 122.418 
L 1254.674717 122.41008 
L 1256.88566 122.42592 
L 1259.096604 122.42592 
L 1261.307547 122.42592 
L 1263.518491 122.42592 
L 1265.729434 122.42592 
L 1267.940377 122.42592 
L 1270.151321 122.43384 
L 1272.362264 122.42592 
L 1274.573208 122.42592 
L 1276.784151 122.418 
L 1278.995094 122.42592 
L 1281.206038 122.418 
L 1283.416981 122.418 
L 1285.627925 122.41008 
L 1287.838868 122.41008 
L 1290.049811 122.40216 
L 1292.260755 122.39424 
L 1294.471698 122.39424 
L 1296.682642 122.39424 
L 1298.893585 122.38632 
L 1301.104528 122.3784 
L 1303.315472 122.3784 
L 1305.526415 122.37048 
L 1307.737358 122.36256 
L 1309.948302 122.35464 
L 1312.159245 122.34672 
L 1314.370189 122.3388 
L 1316.581132 122.33088 
L 1318.792075 122.32296 
L 1321.003019 122.31504 
L 1323.213962 122.30712 
L 1325.424906 122.2992 
L 1327.635849 122.29128 
L 1329.846792 122.27544 
L 1332.057736 122.27544 
L 1334.268679 122.2596 
L 1336.479623 122.25168 
L 1338.690566 122.24376 
L 1340.901509 122.22792 
L 1343.112453 122.22 
L 1345.323396 122.20416 
L 1347.53434 122.19624 
L 1349.745283 122.18832 
L 1351.956226 122.17248 
L 1354.16717 122.16456 
L 1356.378113 122.14872 
L 1358.589057 122.13288 
L 1360.8 122.12496 
" clip-path="url(#pedd776121e)" style="fill: none; stroke: #1f9e89; stroke-width: 3; stroke-linecap: square"/>
   </g>
   <g id="line2d_85">
    <path d="M 1250.25283 95.42664 
L 1252.463774 94.0248 
L 1254.674717 92.5992 
L 1256.88566 91.14984 
L 1259.096604 89.68464 
L 1261.307547 88.21152 
L 1263.518491 86.71464 
L 1265.729434 85.20984 
L 1267.940377 83.69712 
L 1270.151321 82.16856 
L 1272.362264 80.63208 
L 1274.573208 79.0956 
L 1276.784151 77.54328 
L 1278.995094 75.99888 
L 1281.206038 74.44656 
L 1283.416981 72.90216 
L 1285.627925 71.35776 
L 1287.838868 69.81336 
L 1290.049811 68.26896 
L 1292.260755 66.72456 
L 1294.471698 65.18808 
L 1296.682642 63.66744 
L 1298.893585 62.1468 
L 1301.104528 60.63408 
L 1303.315472 59.12928 
L 1305.526415 57.62448 
L 1307.737358 56.13552 
L 1309.948302 54.6624 
L 1312.159245 53.1972 
L 1314.370189 51.73992 
L 1316.581132 50.29056 
L 1318.792075 48.85704 
L 1321.003019 47.43144 
L 1323.213962 46.02168 
L 1325.424906 44.61984 
L 1327.635849 43.22592 
L 1329.846792 41.84784 
L 1332.057736 40.47768 
L 1334.268679 39.12336 
L 1336.479623 37.77696 
L 1338.690566 36.4464 
L 1340.901509 35.12376 
L 1343.112453 33.80904 
L 1345.323396 32.51016 
L 1347.53434 31.2192 
L 1349.745283 29.94408 
L 1351.956226 28.6848 
L 1354.16717 27.42552 
L 1356.378113 26.18208 
L 1358.589057 24.94656 
L 1360.8 23.72688 
" clip-path="url(#pedd776121e)" style="fill: none; stroke: #6ece58; stroke-width: 3; stroke-linecap: square"/>
   </g>
   <g id="LineCollection_9">
    <path d="M 1305.526415 145 
L 1305.526415 -1 
" clip-path="url(#pedd776121e)" style="fill: none; stroke-dasharray: 5.55,2.4; stroke-dashoffset: 0; stroke: #cb1b4f; stroke-width: 1.5"/>
   </g>
   <g id="patch_43">
    <path d="M 1250.25283 128.16 
L 1250.25283 17.28 
" style="fill: none; stroke: #000000; stroke-width: 0.8; stroke-linejoin: miter; stroke-linecap: square"/>
   </g>
   <g id="patch_44">
    <path d="M 1360.8 128.16 
L 1360.8 17.28 
" style="fill: none; stroke: #000000; stroke-width: 0.8; stroke-linejoin: miter; stroke-linecap: square"/>
   </g>
   <g id="patch_45">
    <path d="M 1250.25283 128.16 
L 1360.8 128.16 
" style="fill: none; stroke: #000000; stroke-width: 0.8; stroke-linejoin: miter; stroke-linecap: square"/>
   </g>
   <g id="patch_46">
    <path d="M 1250.25283 17.28 
L 1360.8 17.28 
" style="fill: none; stroke: #000000; stroke-width: 0.8; stroke-linejoin: miter; stroke-linecap: square"/>
   </g>
  </g>
 </g>
 <defs>
  <clipPath id="p8d801dab6e">
   <rect x="189" y="17.28" width="110.54717" height="110.88"/>
  </clipPath>
  <clipPath id="pf45929c4a0">
   <rect x="321.656604" y="17.28" width="110.54717" height="110.88"/>
  </clipPath>
  <clipPath id="p77479a27b9">
   <rect x="454.313208" y="17.28" width="110.54717" height="110.88"/>
  </clipPath>
  <clipPath id="p4adec2e759">
   <rect x="586.969811" y="17.28" width="110.54717" height="110.88"/>
  </clipPath>
  <clipPath id="p0e9864e691">
   <rect x="719.626415" y="17.28" width="110.54717" height="110.88"/>
  </clipPath>
  <clipPath id="pb1efbb44cf">
   <rect x="852.283019" y="17.28" width="110.54717" height="110.88"/>
  </clipPath>
  <clipPath id="p832f86db2f">
   <rect x="984.939623" y="17.28" width="110.54717" height="110.88"/>
  </clipPath>
  <clipPath id="p21917f6dfa">
   <rect x="1117.596226" y="17.28" width="110.54717" height="110.88"/>
  </clipPath>
  <clipPath id="pedd776121e">
   <rect x="1250.25283" y="17.28" width="110.54717" height="110.88"/>
  </clipPath>
 </defs>
</svg>
