<?xml version="1.0" encoding="utf-8" standalone="no"?>
<!DOCTYPE svg PUBLIC "-//W3C//DTD SVG 1.1//EN"
  "http://www.w3.org/Graphics/SVG/1.1/DTD/svg11.dtd">
<svg xmlns:xlink="http://www.w3.org/1999/xlink" width="432pt" height="576pt" viewBox="0 0 432 576" xmlns="http://www.w3.org/2000/svg" version="1.1">
 <metadata>
  <rdf:RDF xmlns:dc="http://purl.org/dc/elements/1.1/" xmlns:cc="http://creativecommons.org/ns#" xmlns:rdf="http://www.w3.org/1999/02/22-rdf-syntax-ns#">
   <cc:Work>
    <dc:type rdf:resource="http://purl.org/dc/dcmitype/StillImage"/>
    <dc:date>2024-01-22T12:24:15.337369</dc:date>
    <dc:format>image/svg+xml</dc:format>
    <dc:creator>
     <cc:Agent>
      <dc:title>Matplotlib v3.6.3, https://matplotlib.org/</dc:title>
     </cc:Agent>
    </dc:creator>
   </cc:Work>
  </rdf:RDF>
 </metadata>
 <defs>
  <style type="text/css">*{stroke-linejoin: round; stroke-linecap: butt}</style>
 </defs>
 <g id="figure_1">
  <g id="patch_1">
   <path d="M 0 576 
L 432 576 
L 432 0 
L 0 0 
L 0 576 
z
" style="fill: none"/>
  </g>
  <g id="axes_1">
   <g id="patch_2">
    <path d="M 54 512.64 
L 388.8 512.64 
L 388.8 69.12 
L 54 69.12 
L 54 512.64 
z
" style="fill: none"/>
   </g>
   <g id="matplotlib.axis_1">
    <g id="xtick_1">
     <g id="line2d_1">
      <defs>
       <path id="me9f4dec3ff" d="M 0 0 
L 0 3.5 
" style="stroke: #000000; stroke-width: 0.8"/>
      </defs>
      <g>
       <use xlink:href="#me9f4dec3ff" x="69.218182" y="512.64" style="stroke: #000000; stroke-width: 0.8"/>
      </g>
     </g>
     <g id="text_1">
      <!-- $\mathdefault{0}$ -->
      <g transform="translate(65.803938 529.325876) scale(0.14 -0.14)">
       <defs>
        <path id="CMR17-30" d="M 2688 2025 
C 2688 2416 2682 3080 2413 3591 
C 2176 4039 1798 4198 1466 4198 
C 1158 4198 768 4058 525 3597 
C 269 3118 243 2524 243 2025 
C 243 1661 250 1106 448 619 
C 723 -39 1216 -128 1466 -128 
C 1760 -128 2208 -7 2470 600 
C 2662 1042 2688 1559 2688 2025 
z
M 1466 -26 
C 1056 -26 813 325 723 812 
C 653 1188 653 1738 653 2096 
C 653 2588 653 2997 736 3387 
C 858 3929 1216 4096 1466 4096 
C 1728 4096 2067 3923 2189 3400 
C 2272 3036 2278 2607 2278 2096 
C 2278 1680 2278 1169 2202 792 
C 2067 95 1690 -26 1466 -26 
z
" transform="scale(0.015625)"/>
       </defs>
       <use xlink:href="#CMR17-30" transform="scale(0.996264)"/>
      </g>
     </g>
    </g>
    <g id="xtick_2">
     <g id="line2d_2">
      <g>
       <use xlink:href="#me9f4dec3ff" x="145.309091" y="512.64" style="stroke: #000000; stroke-width: 0.8"/>
      </g>
     </g>
     <g id="text_2">
      <!-- $\mathdefault{20}$ -->
      <g transform="translate(138.480602 529.325876) scale(0.14 -0.14)">
       <defs>
        <path id="CMR17-32" d="M 2669 989 
L 2554 989 
C 2490 536 2438 459 2413 420 
C 2381 369 1920 369 1830 369 
L 602 369 
C 832 619 1280 1072 1824 1597 
C 2214 1967 2669 2402 2669 3035 
C 2669 3790 2067 4224 1395 4224 
C 691 4224 262 3604 262 3030 
C 262 2780 448 2748 525 2748 
C 589 2748 781 2787 781 3010 
C 781 3207 614 3264 525 3264 
C 486 3264 448 3258 422 3245 
C 544 3790 915 4058 1306 4058 
C 1862 4058 2227 3617 2227 3035 
C 2227 2479 1901 2000 1536 1584 
L 262 146 
L 262 0 
L 2515 0 
L 2669 989 
z
" transform="scale(0.015625)"/>
       </defs>
       <use xlink:href="#CMR17-32" transform="scale(0.996264)"/>
       <use xlink:href="#CMR17-30" transform="translate(45.690477 0) scale(0.996264)"/>
      </g>
     </g>
    </g>
    <g id="xtick_3">
     <g id="line2d_3">
      <g>
       <use xlink:href="#me9f4dec3ff" x="221.4" y="512.64" style="stroke: #000000; stroke-width: 0.8"/>
      </g>
     </g>
     <g id="text_3">
      <!-- $\mathdefault{40}$ -->
      <g transform="translate(214.571511 529.325876) scale(0.14 -0.14)">
       <defs>
        <path id="CMR17-34" d="M 2150 4122 
C 2150 4256 2144 4256 2029 4256 
L 128 1254 
L 128 1088 
L 1779 1088 
L 1779 457 
C 1779 224 1766 160 1318 160 
L 1197 160 
L 1197 0 
C 1402 0 1747 0 1965 0 
C 2182 0 2528 0 2733 0 
L 2733 160 
L 2611 160 
C 2163 160 2150 224 2150 457 
L 2150 1088 
L 2803 1088 
L 2803 1254 
L 2150 1254 
L 2150 4122 
z
M 1798 3703 
L 1798 1254 
L 256 1254 
L 1798 3703 
z
" transform="scale(0.015625)"/>
       </defs>
       <use xlink:href="#CMR17-34" transform="scale(0.996264)"/>
       <use xlink:href="#CMR17-30" transform="translate(45.690477 0) scale(0.996264)"/>
      </g>
     </g>
    </g>
    <g id="xtick_4">
     <g id="line2d_4">
      <g>
       <use xlink:href="#me9f4dec3ff" x="297.490909" y="512.64" style="stroke: #000000; stroke-width: 0.8"/>
      </g>
     </g>
     <g id="text_4">
      <!-- $\mathdefault{60}$ -->
      <g transform="translate(290.66242 529.325876) scale(0.14 -0.14)">
       <defs>
        <path id="CMR17-36" d="M 678 2176 
C 678 3690 1395 4032 1811 4032 
C 1946 4032 2272 4009 2400 3776 
C 2298 3776 2106 3776 2106 3553 
C 2106 3381 2246 3323 2336 3323 
C 2394 3323 2566 3348 2566 3560 
C 2566 3954 2246 4179 1805 4179 
C 1043 4179 243 3390 243 1984 
C 243 253 966 -128 1478 -128 
C 2099 -128 2688 427 2688 1283 
C 2688 2081 2170 2662 1517 2662 
C 1126 2662 838 2407 678 1960 
L 678 2176 
z
M 1478 25 
C 691 25 691 1200 691 1436 
C 691 1896 909 2560 1504 2560 
C 1613 2560 1926 2560 2138 2120 
C 2253 1870 2253 1609 2253 1289 
C 2253 944 2253 690 2118 434 
C 1978 171 1773 25 1478 25 
z
" transform="scale(0.015625)"/>
       </defs>
       <use xlink:href="#CMR17-36" transform="scale(0.996264)"/>
       <use xlink:href="#CMR17-30" transform="translate(45.690477 0) scale(0.996264)"/>
      </g>
     </g>
    </g>
    <g id="xtick_5">
     <g id="line2d_5">
      <g>
       <use xlink:href="#me9f4dec3ff" x="373.581818" y="512.64" style="stroke: #000000; stroke-width: 0.8"/>
      </g>
     </g>
     <g id="text_5">
      <!-- $\mathdefault{80}$ -->
      <g transform="translate(366.75333 529.325876) scale(0.14 -0.14)">
       <defs>
        <path id="CMR17-38" d="M 1741 2264 
C 2144 2467 2554 2773 2554 3263 
C 2554 3841 1990 4179 1472 4179 
C 890 4179 378 3759 378 3180 
C 378 3021 416 2747 666 2505 
C 730 2442 998 2251 1171 2130 
C 883 1983 211 1634 211 934 
C 211 279 838 -128 1459 -128 
C 2144 -128 2720 362 2720 1010 
C 2720 1590 2330 1857 2074 2029 
L 1741 2264 
z
M 902 2822 
C 851 2854 595 3051 595 3351 
C 595 3739 998 4032 1459 4032 
C 1965 4032 2336 3676 2336 3262 
C 2336 2669 1670 2331 1638 2331 
C 1632 2331 1626 2331 1574 2370 
L 902 2822 
z
M 2080 1519 
C 2176 1449 2483 1240 2483 851 
C 2483 381 2010 25 1472 25 
C 890 25 448 438 448 940 
C 448 1443 838 1862 1280 2060 
L 2080 1519 
z
" transform="scale(0.015625)"/>
       </defs>
       <use xlink:href="#CMR17-38" transform="scale(0.996264)"/>
       <use xlink:href="#CMR17-30" transform="translate(45.690477 0) scale(0.996264)"/>
      </g>
     </g>
    </g>
    <g id="text_6">
     <!-- Time -->
     <g transform="translate(203.624252 547.107493) scale(0.16 -0.16)">
      <defs>
       <path id="CMR17-54" d="M 3981 4326 
L 288 4326 
L 179 2918 
L 294 2918 
C 378 3976 467 4160 1453 4160 
C 1568 4160 1754 4160 1805 4154 
C 1926 4135 1926 4058 1926 3912 
L 1926 459 
C 1926 230 1907 160 1376 160 
L 1197 160 
L 1197 0 
C 1504 0 1824 0 2138 0 
C 2451 0 2771 0 3078 0 
L 3078 160 
L 2899 160 
C 2368 160 2349 230 2349 459 
L 2349 3912 
C 2349 4052 2349 4129 2464 4154 
C 2515 4160 2701 4160 2816 4160 
C 3795 4160 3891 3976 3974 2918 
L 4090 2918 
L 3981 4326 
z
" transform="scale(0.015625)"/>
       <path id="CMR17-69" d="M 992 3909 
C 992 4049 877 4170 730 4170 
C 589 4170 467 4056 467 3909 
C 467 3769 582 3648 730 3648 
C 870 3648 992 3763 992 3909 
z
M 243 2706 
L 243 2541 
C 602 2541 653 2502 653 2197 
L 653 427 
C 653 184 627 153 218 153 
L 218 -13 
C 371 0 646 0 806 0 
C 960 0 1222 0 1370 -13 
L 1370 153 
C 992 153 979 191 979 420 
L 979 2776 
L 243 2706 
z
" transform="scale(0.015625)"/>
       <path id="CMR17-6d" d="M 4326 1933 
C 4326 2252 4269 2790 3507 2790 
C 3072 2790 2771 2496 2656 2151 
L 2650 2151 
C 2573 2676 2195 2790 1837 2790 
C 1331 2790 1069 2400 973 2144 
L 966 2144 
L 966 2790 
L 211 2720 
L 211 2554 
C 589 2554 646 2515 646 2208 
L 646 428 
C 646 184 621 153 211 153 
L 211 -13 
C 365 0 646 0 813 0 
C 979 0 1267 0 1421 -13 
L 1421 153 
C 1011 153 986 178 986 428 
L 986 1658 
C 986 2247 1344 2688 1792 2688 
C 2266 2688 2317 2266 2317 1958 
L 2317 428 
C 2317 184 2291 153 1882 153 
L 1882 -13 
C 2035 0 2317 0 2483 0 
C 2650 0 2938 0 3091 -13 
L 3091 153 
C 2682 153 2656 178 2656 428 
L 2656 1658 
C 2656 2247 3014 2688 3462 2688 
C 3936 2688 3987 2266 3987 1958 
L 3987 428 
C 3987 184 3962 153 3552 153 
L 3552 -13 
C 3706 0 3987 0 4154 0 
C 4320 0 4608 0 4762 -13 
L 4762 153 
C 4352 153 4326 178 4326 428 
L 4326 1933 
z
" transform="scale(0.015625)"/>
       <path id="CMR17-65" d="M 2438 1472 
C 2464 1498 2464 1511 2464 1576 
C 2464 2238 2118 2816 1389 2816 
C 710 2816 173 2169 173 1383 
C 173 551 781 -64 1459 -64 
C 2176 -64 2458 607 2458 740 
C 2458 784 2419 784 2406 784 
C 2362 784 2355 771 2330 696 
C 2189 265 1837 51 1504 51 
C 1229 51 954 203 781 480 
C 582 803 582 1176 582 1472 
L 2438 1472 
z
M 589 1568 
C 634 2505 1126 2714 1382 2714 
C 1818 2714 2112 2297 2118 1568 
L 589 1568 
z
" transform="scale(0.015625)"/>
      </defs>
      <use xlink:href="#CMR17-54" transform="scale(0.996264)"/>
      <use xlink:href="#CMR17-69" transform="translate(66.509881 0) scale(0.996264)"/>
      <use xlink:href="#CMR17-6d" transform="translate(91.380939 0) scale(0.996264)"/>
      <use xlink:href="#CMR17-65" transform="translate(168.300529 0) scale(0.996264)"/>
     </g>
    </g>
   </g>
   <g id="matplotlib.axis_2">
    <g id="ytick_1">
     <g id="line2d_6">
      <defs>
       <path id="mc2a8feb3c8" d="M 0 0 
L -3.5 0 
" style="stroke: #000000; stroke-width: 0.8"/>
      </defs>
      <g>
       <use xlink:href="#mc2a8feb3c8" x="54" y="495.486651" style="stroke: #000000; stroke-width: 0.8"/>
      </g>
     </g>
     <g id="text_7">
      <!-- $\mathdefault{0}$ -->
      <g transform="translate(40.171511 500.32959) scale(0.14 -0.14)">
       <use xlink:href="#CMR17-30" transform="scale(0.996264)"/>
      </g>
     </g>
    </g>
    <g id="ytick_2">
     <g id="line2d_7">
      <g>
       <use xlink:href="#mc2a8feb3c8" x="54" y="406.180967" style="stroke: #000000; stroke-width: 0.8"/>
      </g>
     </g>
     <g id="text_8">
      <!-- $\mathdefault{1}$ -->
      <g transform="translate(40.171511 411.023905) scale(0.14 -0.14)">
       <defs>
        <path id="CMR17-31" d="M 1702 4058 
C 1702 4192 1696 4192 1606 4192 
C 1357 3916 979 3827 621 3827 
C 602 3827 570 3827 563 3808 
C 557 3795 557 3782 557 3648 
C 755 3648 1088 3686 1344 3839 
L 1344 461 
C 1344 236 1331 160 781 160 
L 589 160 
L 589 0 
C 896 0 1216 0 1523 0 
C 1830 0 2150 0 2458 0 
L 2458 160 
L 2266 160 
C 1715 160 1702 230 1702 458 
L 1702 4058 
z
" transform="scale(0.015625)"/>
       </defs>
       <use xlink:href="#CMR17-31" transform="scale(0.996264)"/>
      </g>
     </g>
    </g>
    <g id="ytick_3">
     <g id="line2d_8">
      <g>
       <use xlink:href="#mc2a8feb3c8" x="54" y="316.875283" style="stroke: #000000; stroke-width: 0.8"/>
      </g>
     </g>
     <g id="text_9">
      <!-- $\mathdefault{2}$ -->
      <g transform="translate(40.171511 321.718221) scale(0.14 -0.14)">
       <use xlink:href="#CMR17-32" transform="scale(0.996264)"/>
      </g>
     </g>
    </g>
    <g id="ytick_4">
     <g id="line2d_9">
      <g>
       <use xlink:href="#mc2a8feb3c8" x="54" y="227.569599" style="stroke: #000000; stroke-width: 0.8"/>
      </g>
     </g>
     <g id="text_10">
      <!-- $\mathdefault{3}$ -->
      <g transform="translate(40.171511 232.412537) scale(0.14 -0.14)">
       <defs>
        <path id="CMR17-33" d="M 1414 2157 
C 1984 2157 2234 1662 2234 1090 
C 2234 320 1824 25 1453 25 
C 1114 25 563 194 390 693 
C 422 680 454 680 486 680 
C 640 680 755 782 755 948 
C 755 1133 614 1216 486 1216 
C 378 1216 211 1165 211 926 
C 211 335 787 -128 1466 -128 
C 2176 -128 2720 430 2720 1085 
C 2720 1707 2208 2157 1600 2227 
C 2086 2328 2554 2756 2554 3329 
C 2554 3820 2048 4179 1472 4179 
C 890 4179 378 3829 378 3329 
C 378 3110 544 3072 627 3072 
C 762 3072 877 3155 877 3321 
C 877 3486 762 3569 627 3569 
C 602 3569 570 3569 544 3557 
C 730 3959 1235 4032 1459 4032 
C 1683 4032 2106 3925 2106 3320 
C 2106 3143 2080 2828 1862 2550 
C 1670 2304 1453 2304 1242 2284 
C 1210 2284 1062 2269 1037 2269 
C 992 2263 966 2257 966 2208 
C 966 2163 973 2157 1101 2157 
L 1414 2157 
z
" transform="scale(0.015625)"/>
       </defs>
       <use xlink:href="#CMR17-33" transform="scale(0.996264)"/>
      </g>
     </g>
    </g>
    <g id="ytick_5">
     <g id="line2d_10">
      <g>
       <use xlink:href="#mc2a8feb3c8" x="54" y="138.263915" style="stroke: #000000; stroke-width: 0.8"/>
      </g>
     </g>
     <g id="text_11">
      <!-- $\mathdefault{4}$ -->
      <g transform="translate(40.171511 143.106853) scale(0.14 -0.14)">
       <use xlink:href="#CMR17-34" transform="scale(0.996264)"/>
      </g>
     </g>
    </g>
    <g id="text_12">
     <!-- Specie density -->
     <g transform="translate(33.072035 339.264719) rotate(-90) scale(0.16 -0.16)">
      <defs>
       <path id="CMR17-53" d="M 2803 4290 
C 2803 4404 2797 4411 2758 4411 
C 2720 4411 2707 4385 2682 4328 
L 2490 3907 
C 2246 4257 1875 4416 1472 4416 
C 819 4416 294 3901 294 3253 
C 294 3056 339 2776 557 2510 
C 794 2218 1018 2167 1530 2033 
C 1722 1982 2042 1899 2106 1874 
C 2470 1722 2662 1341 2662 985 
C 2662 527 2336 38 1779 38 
C 1094 38 454 419 410 1311 
C 403 1413 397 1419 352 1419 
C 301 1419 294 1413 294 1285 
L 294 -1 
C 294 -115 301 -122 339 -122 
C 384 -122 397 -90 486 108 
C 493 127 493 140 614 381 
C 934 -39 1472 -128 1779 -128 
C 2477 -128 2970 451 2970 1124 
C 2970 1454 2848 1708 2778 1823 
C 2509 2230 2221 2306 1914 2382 
C 1869 2402 1856 2402 1498 2490 
C 1152 2579 1005 2624 845 2796 
C 666 2992 602 3196 602 3399 
C 602 3812 934 4263 1478 4263 
C 2157 4263 2579 3786 2675 2993 
C 2694 2878 2701 2872 2746 2872 
C 2803 2872 2803 2891 2803 2999 
L 2803 4290 
z
" transform="scale(0.015625)"/>
       <path id="CMR17-70" d="M 1408 -1063 
C 998 -1063 973 -1037 973 -789 
L 973 402 
C 1158 134 1427 -38 1766 -38 
C 2406 -38 3053 523 3053 1388 
C 3053 2191 2496 2802 1837 2802 
C 1453 2802 1139 2592 960 2338 
L 960 2802 
L 198 2732 
L 198 2567 
C 576 2567 634 2528 634 2223 
L 634 -789 
C 634 -1031 608 -1063 198 -1063 
L 198 -1228 
C 352 -1216 634 -1216 800 -1216 
C 966 -1216 1254 -1216 1408 -1228 
L 1408 -1063 
z
M 973 2012 
C 973 2102 973 2235 1222 2471 
C 1254 2497 1472 2688 1792 2688 
C 2259 2688 2643 2108 2643 1382 
C 2643 656 2234 64 1728 64 
C 1498 64 1248 172 1056 472 
C 973 612 973 650 973 752 
L 973 2012 
z
" transform="scale(0.015625)"/>
       <path id="CMR17-63" d="M 2234 2240 
C 2112 2240 1933 2240 1933 2017 
C 1933 1838 2080 1787 2163 1787 
C 2208 1787 2394 1807 2394 2024 
C 2394 2467 1958 2803 1466 2803 
C 787 2803 211 2178 211 1363 
C 211 516 813 -64 1466 -64 
C 2259 -64 2458 677 2458 748 
C 2458 774 2451 793 2406 793 
C 2362 793 2355 787 2330 703 
C 2163 180 1798 51 1523 51 
C 1114 51 621 427 621 1369 
C 621 2338 1094 2688 1472 2688 
C 1722 2688 2093 2573 2234 2240 
z
" transform="scale(0.015625)"/>
       <path id="CMR17-64" d="M 1869 4326 
L 1869 4160 
C 2246 4160 2304 4122 2304 3820 
L 2304 2345 
C 2278 2377 2016 2790 1498 2790 
C 845 2790 211 2208 211 1364 
C 211 525 806 -64 1434 -64 
C 1978 -64 2259 337 2291 380 
L 2291 -63 
L 3066 -63 
L 3066 128 
C 2688 128 2630 166 2630 473 
L 2630 4396 
L 1869 4326 
z
M 2291 755 
C 2291 563 2176 390 2029 262 
C 1811 70 1594 38 1472 38 
C 1286 38 621 134 621 1356 
C 621 2612 1363 2688 1530 2688 
C 1824 2688 2061 2522 2208 2291 
C 2291 2157 2291 2138 2291 2023 
L 2291 755 
z
" transform="scale(0.015625)"/>
       <path id="CMR17-6e" d="M 2656 1933 
C 2656 2259 2592 2790 1837 2790 
C 1331 2790 1069 2400 973 2144 
L 966 2144 
L 966 2790 
L 211 2720 
L 211 2554 
C 589 2554 646 2515 646 2208 
L 646 428 
C 646 184 621 153 211 153 
L 211 -13 
C 365 0 646 0 813 0 
C 979 0 1267 0 1421 -13 
L 1421 153 
C 1011 153 986 178 986 428 
L 986 1658 
C 986 2247 1344 2688 1792 2688 
C 2266 2688 2317 2266 2317 1958 
L 2317 428 
C 2317 184 2291 153 1882 153 
L 1882 -13 
C 2035 0 2317 0 2483 0 
C 2650 0 2938 0 3091 -13 
L 3091 153 
C 2682 153 2656 178 2656 428 
L 2656 1933 
z
" transform="scale(0.015625)"/>
       <path id="CMR17-73" d="M 1978 2697 
C 1978 2813 1971 2819 1933 2819 
C 1907 2819 1901 2813 1824 2717 
C 1805 2691 1747 2626 1728 2601 
C 1523 2819 1235 2819 1126 2819 
C 416 2819 160 2447 160 2076 
C 160 1498 813 1365 998 1325 
C 1402 1243 1542 1217 1677 1101 
C 1760 1025 1901 884 1901 654 
C 1901 384 1747 38 1158 38 
C 602 38 403 460 288 1021 
C 269 1110 269 1117 218 1117 
C 166 1117 160 1110 160 983 
L 160 63 
C 160 -51 166 -58 205 -58 
C 237 -58 243 -51 275 0 
C 314 57 410 211 448 276 
C 576 103 800 -64 1158 -64 
C 1792 -64 2131 283 2131 784 
C 2131 1112 1958 1285 1875 1362 
C 1683 1561 1459 1606 1190 1657 
C 838 1735 390 1825 390 2217 
C 390 2383 480 2737 1126 2737 
C 1811 2737 1850 2094 1862 1888 
C 1869 1856 1901 1849 1920 1849 
C 1978 1849 1978 1869 1978 1978 
L 1978 2697 
z
" transform="scale(0.015625)"/>
       <path id="CMR17-74" d="M 966 2560 
L 1862 2560 
L 1862 2725 
L 966 2725 
L 966 3904 
L 851 3904 
C 838 3245 614 2668 70 2668 
L 70 2560 
L 627 2560 
L 627 771 
C 627 650 627 -64 1370 -64 
C 1747 -64 1965 306 1965 777 
L 1965 1140 
L 1850 1140 
L 1850 783 
C 1850 344 1677 51 1408 51 
C 1222 51 966 178 966 758 
L 966 2560 
z
" transform="scale(0.015625)"/>
       <path id="CMR17-79" d="M 2496 2197 
C 2656 2586 2944 2586 3034 2586 
L 3034 2752 
C 2912 2752 2752 2752 2630 2752 
C 2496 2752 2285 2752 2157 2758 
L 2157 2592 
C 2400 2573 2406 2394 2406 2343 
C 2406 2280 2394 2248 2362 2171 
L 1664 449 
L 902 2306 
C 870 2382 870 2426 870 2433 
C 870 2573 1018 2586 1171 2586 
L 1171 2758 
C 1018 2752 742 2752 582 2752 
C 410 2752 205 2752 64 2758 
L 64 2586 
C 410 2586 448 2554 531 2350 
L 1485 15 
C 1197 -738 1030 -1178 627 -1178 
C 557 -1178 397 -1159 282 -1044 
C 429 -1031 493 -942 493 -833 
C 493 -725 416 -629 288 -629 
C 147 -629 77 -725 77 -840 
C 77 -1095 339 -1280 627 -1280 
C 998 -1280 1229 -922 1357 -604 
L 2496 2197 
z
" transform="scale(0.015625)"/>
      </defs>
      <use xlink:href="#CMR17-53" transform="scale(0.996264)"/>
      <use xlink:href="#CMR17-70" transform="translate(50.89537 0) scale(0.996264)"/>
      <use xlink:href="#CMR17-65" transform="translate(104.393178 0) scale(0.996264)"/>
      <use xlink:href="#CMR17-63" transform="translate(144.878839 0) scale(0.996264)"/>
      <use xlink:href="#CMR17-69" transform="translate(185.364499 0) scale(0.996264)"/>
      <use xlink:href="#CMR17-65" transform="translate(210.235558 0) scale(0.996264)"/>
      <use xlink:href="#CMR17-64" transform="translate(280.797185 0) scale(0.996264)"/>
      <use xlink:href="#CMR17-65" transform="translate(331.692554 0) scale(0.996264)"/>
      <use xlink:href="#CMR17-6e" transform="translate(372.178215 0) scale(0.996264)"/>
      <use xlink:href="#CMR17-73" transform="translate(423.073585 0) scale(0.996264)"/>
      <use xlink:href="#CMR17-69" transform="translate(458.874922 0) scale(0.996264)"/>
      <use xlink:href="#CMR17-74" transform="translate(483.745981 0) scale(0.996264)"/>
      <use xlink:href="#CMR17-79" transform="translate(516.424295 0) scale(0.996264)"/>
     </g>
    </g>
   </g>
   <g id="line2d_11">
    <path d="M 69.218182 138.263915 
L 71.120455 198.565907 
L 73.022727 252.408969 
L 74.925 297.902317 
L 76.827273 334.599621 
L 78.729545 363.087848 
L 80.631818 384.484113 
L 82.534091 400.034891 
L 84.436364 410.876368 
L 86.338636 417.929499 
L 88.240909 421.878883 
L 90.143182 423.192693 
L 92.045455 422.157124 
L 93.947727 418.912325 
L 95.85 413.485242 
L 97.752273 405.81926 
L 99.654545 395.802577 
L 101.556818 383.297836 
L 103.459091 368.17535 
L 105.361364 350.351277 
L 107.263636 329.8305 
L 109.165909 306.751618 
L 111.068182 281.42868 
L 114.872727 226.347539 
L 118.677273 171.209866 
L 120.579545 146.352556 
L 122.481818 124.830282 
L 124.384091 107.668486 
L 126.286364 95.694021 
L 128.188636 89.474028 
L 130.090909 89.28 
L 131.993182 95.074199 
L 133.895455 106.513743 
L 135.797727 122.970033 
L 137.7 143.565496 
L 139.602273 167.23212 
L 147.211364 269.558853 
L 149.113636 292.192044 
L 151.015909 312.423727 
L 152.918182 330.043522 
L 154.820455 345.019355 
L 156.722727 357.444696 
L 158.625 367.488677 
L 160.527273 375.355547 
L 162.429545 381.255587 
L 164.331818 385.386764 
L 166.234091 387.925046 
L 168.136364 389.020996 
L 170.038636 388.80055 
L 171.940909 387.368396 
L 173.843182 384.812813 
L 175.745455 381.211236 
L 177.647727 376.636064 
L 179.55 371.160374 
L 181.452273 364.86326 
L 183.354545 357.834552 
L 185.256818 350.178646 
L 189.061364 333.490155 
L 194.768182 307.372246 
L 196.670455 299.101232 
L 198.572727 291.366656 
L 200.475 284.352623 
L 202.377273 278.227913 
L 204.279545 273.138921 
L 206.181818 269.203669 
L 208.084091 266.507323 
L 209.986364 265.099489 
L 211.888636 264.9934 
L 213.790909 266.166915 
L 215.693182 268.565121 
L 217.595455 272.104268 
L 219.497727 276.676693 
L 221.4 282.156359 
L 223.302273 288.404686 
L 225.204545 295.276356 
L 229.009091 310.307141 
L 238.520455 349.442819 
L 242.325 363.747908 
L 246.129545 376.650008 
L 248.031818 382.526185 
L 249.934091 388.013003 
L 251.836364 393.115334 
L 253.738636 397.84371 
L 255.640909 402.212921 
L 257.543182 406.240795 
L 259.445455 409.947177 
L 261.347727 413.353079 
L 263.25 416.480013 
L 265.152273 419.349471 
L 267.054545 421.982527 
L 268.956818 424.399553 
L 270.859091 426.620028 
L 274.663636 430.544029 
L 278.468182 433.888791 
L 282.272727 436.770612 
L 286.077273 439.288588 
L 289.881818 441.526046 
L 293.686364 443.552209 
L 299.393182 446.316423 
L 307.002273 449.704579 
L 346.95 466.794995 
L 358.363636 471.508503 
L 367.875 475.178884 
L 373.581818 477.233581 
L 373.581818 477.233581 
" clip-path="url(#p7ba1f28a4b)" style="fill: none; stroke: #611f53; stroke-width: 4; stroke-linecap: square"/>
   </g>
   <g id="line2d_12">
    <path d="M 69.218182 316.875283 
L 71.120455 292.090269 
L 73.022727 272.739436 
L 74.925 260.2675 
L 76.827273 255.161211 
L 78.729545 257.101747 
L 80.631818 265.216273 
L 82.534091 278.308743 
L 84.436364 295.033864 
L 88.240909 334.013074 
L 92.045455 372.790031 
L 93.947727 390.11332 
L 95.85 405.508182 
L 97.752273 418.837636 
L 99.654545 430.125069 
L 101.556818 439.499005 
L 103.459091 447.144894 
L 105.361364 453.268051 
L 107.263636 458.068089 
L 109.165909 461.723038 
L 111.068182 464.380618 
L 112.970455 466.154192 
L 114.872727 467.121495 
L 116.775 467.324808 
L 118.677273 466.771936 
L 120.579545 465.437891 
L 122.481818 463.267818 
L 124.384091 460.182172 
L 126.286364 456.085678 
L 128.188636 450.881675 
L 130.090909 444.493084 
L 131.993182 436.889788 
L 133.895455 428.119802 
L 135.797727 418.338342 
L 143.406818 376.389706 
L 145.309091 367.709515 
L 147.211364 360.736254 
L 149.113636 355.791718 
L 151.015909 353.044724 
L 152.918182 352.510887 
L 154.820455 354.071121 
L 156.722727 357.501151 
L 158.625 362.505038 
L 160.527273 368.747735 
L 162.429545 375.883772 
L 166.234091 391.536342 
L 170.038636 407.232756 
L 171.940909 414.599501 
L 173.843182 421.475805 
L 175.745455 427.787923 
L 177.647727 433.496956 
L 179.55 438.591526 
L 181.452273 443.080692 
L 183.354545 446.987594 
L 185.256818 450.344133 
L 187.159091 453.186731 
L 189.061364 455.553163 
L 190.963636 457.480325 
L 192.865909 459.002785 
L 194.768182 460.151984 
L 196.670455 460.955934 
L 198.572727 461.439301 
L 200.475 461.623788 
L 202.377273 461.528736 
L 204.279545 461.171883 
L 206.181818 460.570237 
L 208.084091 459.740993 
L 209.986364 458.702455 
L 211.888636 457.474885 
L 213.790909 456.081224 
L 217.595455 452.903602 
L 229.009091 442.723772 
L 230.911364 441.328674 
L 232.813636 440.112111 
L 234.715909 439.099819 
L 236.618182 438.311676 
L 238.520455 437.761285 
L 240.422727 437.455887 
L 242.325 437.39658 
L 244.227273 437.578802 
L 246.129545 437.992999 
L 248.031818 438.625438 
L 249.934091 439.459071 
L 251.836364 440.474415 
L 253.738636 441.650389 
L 257.543182 444.396457 
L 261.347727 447.523511 
L 267.054545 452.583374 
L 274.663636 459.369428 
L 280.370455 464.125367 
L 284.175 467.049523 
L 287.979545 469.75215 
L 291.784091 472.227419 
L 295.588636 474.47879 
L 299.393182 476.515975 
L 303.197727 478.352537 
L 307.002273 480.004087 
L 312.709091 482.170288 
L 318.415909 484.011041 
L 324.122727 485.576029 
L 329.829545 486.908882 
L 335.536364 488.046844 
L 343.145455 489.314177 
L 350.754545 490.34973 
L 360.265909 491.387831 
L 369.777273 492.203937 
L 373.581818 492.48 
L 373.581818 492.48 
" clip-path="url(#p7ba1f28a4b)" style="fill: none; stroke: #cb1b4f; stroke-width: 4; stroke-linecap: square"/>
   </g>
   <g id="line2d_13">
    <path d="M 69.218182 406.180967 
L 71.120455 402.031264 
L 73.022727 394.935322 
L 74.925 384.906556 
L 76.827273 372.026388 
L 78.729545 356.495861 
L 80.631818 338.678842 
L 84.436364 298.541498 
L 88.240909 257.655248 
L 90.143182 239.007645 
L 92.045455 222.481251 
L 93.947727 208.550268 
L 95.85 197.498172 
L 97.752273 189.441426 
L 99.654545 184.36975 
L 101.556818 182.188933 
L 103.459091 182.756228 
L 105.361364 185.903391 
L 107.263636 191.446716 
L 109.165909 199.186245 
L 111.068182 208.898009 
L 112.970455 220.323851 
L 114.872727 233.163496 
L 118.677273 261.669999 
L 124.384091 305.570656 
L 126.286364 318.98643 
L 128.188636 331.278253 
L 130.090909 342.228911 
L 131.993182 351.684718 
L 133.895455 359.54888 
L 135.797727 365.771696 
L 137.7 370.34012 
L 139.602273 373.268622 
L 141.504545 374.592554 
L 143.406818 374.364526 
L 145.309091 372.653663 
L 147.211364 369.547206 
L 149.113636 365.153539 
L 151.015909 359.605522 
L 152.918182 353.062899 
L 154.820455 345.712647 
L 158.625 329.454909 
L 162.429545 312.6991 
L 164.331818 304.724276 
L 166.234091 297.301364 
L 168.136364 290.607009 
L 170.038636 284.782373 
L 171.940909 279.9311 
L 173.843182 276.12016 
L 175.745455 273.382875 
L 177.647727 271.723263 
L 179.55 271.120883 
L 181.452273 271.535543 
L 183.354545 272.911436 
L 185.256818 275.18054 
L 187.159091 278.265284 
L 189.061364 282.080596 
L 190.963636 286.535563 
L 192.865909 291.534885 
L 194.768182 296.980323 
L 198.572727 308.811355 
L 208.084091 339.492604 
L 211.888636 350.564893 
L 213.790909 355.621221 
L 215.693182 360.313893 
L 217.595455 364.622157 
L 219.497727 368.534012 
L 221.4 372.045262 
L 223.302273 375.158508 
L 225.204545 377.882137 
L 227.106818 380.229356 
L 229.009091 382.217295 
L 230.911364 383.866201 
L 232.813636 385.198728 
L 234.715909 386.239313 
L 236.618182 387.013633 
L 238.520455 387.548137 
L 240.422727 387.869635 
L 242.325 388.00493 
L 244.227273 387.980502 
L 248.031818 387.555071 
L 251.836364 386.788488 
L 265.152273 383.703745 
L 268.956818 383.17609 
L 272.761364 382.930174 
L 276.565909 382.993175 
L 280.370455 383.372585 
L 284.175 384.060437 
L 287.979545 385.037402 
L 291.784091 386.276473 
L 295.588636 387.746084 
L 299.393182 389.412613 
L 305.1 392.208041 
L 310.806818 395.262944 
L 320.318182 400.677866 
L 339.340909 411.606074 
L 348.852273 416.741713 
L 356.461364 420.608698 
L 364.070455 424.244693 
L 371.679545 427.649127 
L 373.581818 428.464865 
L 373.581818 428.464865 
" clip-path="url(#p7ba1f28a4b)" style="fill: none; stroke: #f58860; stroke-width: 4; stroke-linecap: square"/>
   </g>
   <g id="patch_3">
    <path d="M 54 512.64 
L 54 69.12 
" style="fill: none; stroke: #000000; stroke-width: 0.8; stroke-linejoin: miter; stroke-linecap: square"/>
   </g>
   <g id="patch_4">
    <path d="M 388.8 512.64 
L 388.8 69.12 
" style="fill: none; stroke: #000000; stroke-width: 0.8; stroke-linejoin: miter; stroke-linecap: square"/>
   </g>
   <g id="patch_5">
    <path d="M 54 512.64 
L 388.8 512.64 
" style="fill: none; stroke: #000000; stroke-width: 0.8; stroke-linejoin: miter; stroke-linecap: square"/>
   </g>
   <g id="patch_6">
    <path d="M 54 69.12 
L 388.8 69.12 
" style="fill: none; stroke: #000000; stroke-width: 0.8; stroke-linejoin: miter; stroke-linecap: square"/>
   </g>
   <g id="legend_1">
    <g id="patch_7">
     <path d="M 307.867294 148.818429 
L 377.6 148.818429 
Q 380.8 148.818429 380.8 145.618429 
L 380.8 80.32 
Q 380.8 77.12 377.6 77.12 
L 307.867294 77.12 
Q 304.667294 77.12 304.667294 80.32 
L 304.667294 145.618429 
Q 304.667294 148.818429 307.867294 148.818429 
z
" style="fill: #ffffff; opacity: 0.8; stroke: #cccccc; stroke-linejoin: miter"/>
    </g>
    <g id="line2d_14">
     <path d="M 311.067294 89.12 
L 327.067294 89.12 
L 343.067294 89.12 
" style="fill: none; stroke: #611f53; stroke-width: 4; stroke-linecap: square"/>
    </g>
    <g id="text_13">
     <!-- $X_1$ -->
     <g transform="translate(355.867294 94.72) scale(0.16 -0.16)">
      <defs>
       <path id="CMMI12-58" d="M 3040 2596 
L 2438 3994 
C 2522 4147 2714 4172 2790 4179 
C 2829 4179 2899 4179 2899 4292 
C 2899 4364 2842 4364 2803 4364 
C 2694 4364 2566 4364 2458 4364 
L 2086 4364 
C 1696 4364 1414 4364 1408 4364 
C 1357 4364 1293 4364 1293 4243 
C 1293 4179 1350 4179 1434 4179 
C 1805 4179 1830 4115 1894 3962 
L 2656 2185 
L 1267 693 
C 1037 442 762 198 288 198 
C 211 192 160 192 160 68 
C 160 48 166 0 237 0 
C 326 0 422 0 512 0 
L 813 0 
C 1018 0 1242 0 1440 0 
C 1485 0 1562 0 1562 115 
C 1562 179 1517 185 1478 185 
C 1350 198 1267 268 1267 370 
C 1267 479 1344 557 1530 748 
L 2099 1368 
C 2240 1516 2579 1886 2720 2026 
L 3392 453 
C 3398 441 3424 377 3424 370 
C 3424 313 3283 198 3078 198 
C 3040 198 2970 198 2970 71 
C 2970 0 3034 0 3066 0 
C 3174 0 3302 0 3411 0 
L 4115 0 
C 4230 0 4352 0 4461 0 
C 4506 0 4576 0 4576 130 
C 4576 198 4512 198 4454 198 
C 4070 198 4058 230 3949 465 
L 3104 2441 
L 3917 3316 
C 3981 3381 4128 3542 4186 3606 
C 4461 3896 4717 4160 5235 4160 
C 5299 4179 5363 4179 5363 4292 
C 5363 4364 5306 4364 5280 4364 
C 5190 4364 5094 4364 5005 4364 
L 4710 4364 
C 4506 4364 4282 4364 4083 4364 
C 4038 4364 3962 4364 3962 4249 
C 3962 4185 4006 4179 4045 4179 
C 4147 4167 4256 4116 4256 3994 
L 4250 3982 
C 4243 3937 4230 3873 4160 3797 
L 3040 2596 
z
" transform="scale(0.015625)"/>
      </defs>
      <use xlink:href="#CMMI12-58" transform="scale(0.996264)"/>
      <use xlink:href="#CMR17-31" transform="translate(80.960224 -14.943915) scale(0.697382)"/>
     </g>
    </g>
    <g id="line2d_15">
     <path d="M 311.067294 111.419476 
L 327.067294 111.419476 
L 343.067294 111.419476 
" style="fill: none; stroke: #cb1b4f; stroke-width: 4; stroke-linecap: square"/>
    </g>
    <g id="text_14">
     <!-- $X_2$ -->
     <g transform="translate(355.867294 117.019476) scale(0.16 -0.16)">
      <use xlink:href="#CMMI12-58" transform="scale(0.996264)"/>
      <use xlink:href="#CMR17-32" transform="translate(80.960224 -14.943915) scale(0.697382)"/>
     </g>
    </g>
    <g id="line2d_16">
     <path d="M 311.067294 133.718952 
L 327.067294 133.718952 
L 343.067294 133.718952 
" style="fill: none; stroke: #f58860; stroke-width: 4; stroke-linecap: square"/>
    </g>
    <g id="text_15">
     <!-- $X_3$ -->
     <g transform="translate(355.867294 139.318952) scale(0.16 -0.16)">
      <use xlink:href="#CMMI12-58" transform="scale(0.996264)"/>
      <use xlink:href="#CMR17-33" transform="translate(80.960224 -14.943915) scale(0.697382)"/>
     </g>
    </g>
   </g>
  </g>
 </g>
 <defs>
  <clipPath id="p7ba1f28a4b">
   <rect x="54" y="69.12" width="334.8" height="443.52"/>
  </clipPath>
 </defs>
</svg>
