<?xml version="1.0" encoding="utf-8" standalone="no"?>
<!DOCTYPE svg PUBLIC "-//W3C//DTD SVG 1.1//EN"
  "http://www.w3.org/Graphics/SVG/1.1/DTD/svg11.dtd">
<svg xmlns:xlink="http://www.w3.org/1999/xlink" width="1512pt" height="144pt" viewBox="0 0 1512 144" xmlns="http://www.w3.org/2000/svg" version="1.1">
 <metadata>
  <rdf:RDF xmlns:dc="http://purl.org/dc/elements/1.1/" xmlns:cc="http://creativecommons.org/ns#" xmlns:rdf="http://www.w3.org/1999/02/22-rdf-syntax-ns#">
   <cc:Work>
    <dc:type rdf:resource="http://purl.org/dc/dcmitype/StillImage"/>
    <dc:date>2024-02-05T12:06:53.324721</dc:date>
    <dc:format>image/svg+xml</dc:format>
    <dc:creator>
     <cc:Agent>
      <dc:title>Matplotlib v3.6.3, https://matplotlib.org/</dc:title>
     </cc:Agent>
    </dc:creator>
   </cc:Work>
  </rdf:RDF>
 </metadata>
 <defs>
  <style type="text/css">*{stroke-linejoin: round; stroke-linecap: butt}</style>
 </defs>
 <g id="figure_1">
  <g id="patch_1">
   <path d="M 0 144 
L 1512 144 
L 1512 0 
L 0 0 
L 0 144 
z
" style="fill: none"/>
  </g>
  <g id="axes_1">
   <g id="patch_2">
    <path d="M 189 128.16 
L 331.902439 128.16 
L 331.902439 17.28 
L 189 17.28 
L 189 128.16 
z
" style="fill: none"/>
   </g>
   <g id="matplotlib.axis_1">
    <g id="xtick_1">
     <g id="line2d_1">
      <defs>
       <path id="m92ecdce7cc" d="M 0 0 
L 0 3.5 
" style="stroke: #000000; stroke-width: 0.8"/>
      </defs>
      <g>
       <use xlink:href="#m92ecdce7cc" x="237.586829" y="128.16" style="stroke: #000000; stroke-width: 0.8"/>
      </g>
     </g>
     <g id="text_1">
      <!-- $\mathdefault{0.1}$ -->
      <g transform="translate(228.861538 144.845876) scale(0.14 -0.14)">
       <defs>
        <path id="CMR17-30" d="M 2688 2025 
C 2688 2416 2682 3080 2413 3591 
C 2176 4039 1798 4198 1466 4198 
C 1158 4198 768 4058 525 3597 
C 269 3118 243 2524 243 2025 
C 243 1661 250 1106 448 619 
C 723 -39 1216 -128 1466 -128 
C 1760 -128 2208 -7 2470 600 
C 2662 1042 2688 1559 2688 2025 
z
M 1466 -26 
C 1056 -26 813 325 723 812 
C 653 1188 653 1738 653 2096 
C 653 2588 653 2997 736 3387 
C 858 3929 1216 4096 1466 4096 
C 1728 4096 2067 3923 2189 3400 
C 2272 3036 2278 2607 2278 2096 
C 2278 1680 2278 1169 2202 792 
C 2067 95 1690 -26 1466 -26 
z
" transform="scale(0.015625)"/>
        <path id="CMMI12-3a" d="M 1178 307 
C 1178 492 1024 619 870 619 
C 685 619 557 466 557 313 
C 557 128 710 0 864 0 
C 1050 0 1178 153 1178 307 
z
" transform="scale(0.015625)"/>
        <path id="CMR17-31" d="M 1702 4058 
C 1702 4192 1696 4192 1606 4192 
C 1357 3916 979 3827 621 3827 
C 602 3827 570 3827 563 3808 
C 557 3795 557 3782 557 3648 
C 755 3648 1088 3686 1344 3839 
L 1344 461 
C 1344 236 1331 160 781 160 
L 589 160 
L 589 0 
C 896 0 1216 0 1523 0 
C 1830 0 2150 0 2458 0 
L 2458 160 
L 2266 160 
C 1715 160 1702 230 1702 458 
L 1702 4058 
z
" transform="scale(0.015625)"/>
       </defs>
       <use xlink:href="#CMR17-30" transform="scale(0.996264)"/>
       <use xlink:href="#CMMI12-3a" transform="translate(45.690477 0) scale(0.996264)"/>
       <use xlink:href="#CMR17-31" transform="translate(72.787654 0) scale(0.996264)"/>
      </g>
     </g>
    </g>
    <g id="xtick_2">
     <g id="line2d_2">
      <g>
       <use xlink:href="#m92ecdce7cc" x="294.747805" y="128.16" style="stroke: #000000; stroke-width: 0.8"/>
      </g>
     </g>
     <g id="text_2">
      <!-- $\mathdefault{0.2}$ -->
      <g transform="translate(286.022514 144.845876) scale(0.14 -0.14)">
       <defs>
        <path id="CMR17-32" d="M 2669 989 
L 2554 989 
C 2490 536 2438 459 2413 420 
C 2381 369 1920 369 1830 369 
L 602 369 
C 832 619 1280 1072 1824 1597 
C 2214 1967 2669 2402 2669 3035 
C 2669 3790 2067 4224 1395 4224 
C 691 4224 262 3604 262 3030 
C 262 2780 448 2748 525 2748 
C 589 2748 781 2787 781 3010 
C 781 3207 614 3264 525 3264 
C 486 3264 448 3258 422 3245 
C 544 3790 915 4058 1306 4058 
C 1862 4058 2227 3617 2227 3035 
C 2227 2479 1901 2000 1536 1584 
L 262 146 
L 262 0 
L 2515 0 
L 2669 989 
z
" transform="scale(0.015625)"/>
       </defs>
       <use xlink:href="#CMR17-30" transform="scale(0.996264)"/>
       <use xlink:href="#CMMI12-3a" transform="translate(45.690477 0) scale(0.996264)"/>
       <use xlink:href="#CMR17-32" transform="translate(72.787654 0) scale(0.996264)"/>
      </g>
     </g>
    </g>
    <g id="text_3">
     <!-- $a_0$ -->
     <g transform="translate(253.565055 162.627493) scale(0.16 -0.16)">
      <defs>
       <path id="CMMI12-61" d="M 1926 760 
C 1894 651 1894 639 1805 517 
C 1664 338 1382 64 1082 64 
C 819 64 672 300 672 677 
C 672 1028 870 1743 992 2012 
C 1210 2459 1510 2689 1760 2689 
C 2182 2689 2266 2165 2266 2114 
C 2266 2108 2246 2024 2240 2012 
L 1926 760 
z
M 2336 2395 
C 2266 2561 2093 2816 1760 2816 
C 1037 2816 256 1884 256 939 
C 256 307 627 -64 1062 -64 
C 1414 -64 1715 211 1894 422 
C 1958 45 2259 -64 2451 -64 
C 2643 -64 2797 51 2912 281 
C 3014 498 3104 888 3104 913 
C 3104 945 3078 971 3040 971 
C 2982 971 2976 939 2950 843 
C 2854 466 2733 64 2470 64 
C 2285 64 2272 230 2272 358 
C 2272 505 2291 575 2349 824 
C 2394 984 2426 1124 2477 1309 
C 2714 2267 2771 2497 2771 2535 
C 2771 2625 2701 2695 2605 2695 
C 2400 2695 2349 2472 2336 2395 
z
" transform="scale(0.015625)"/>
      </defs>
      <use xlink:href="#CMMI12-61" transform="scale(0.996264)"/>
      <use xlink:href="#CMR17-30" transform="translate(51.207858 -14.943915) scale(0.697382)"/>
     </g>
    </g>
   </g>
   <g id="matplotlib.axis_2">
    <g id="ytick_1">
     <g id="line2d_3">
      <defs>
       <path id="m842736cc2a" d="M 0 0 
L -3.5 0 
" style="stroke: #000000; stroke-width: 0.8"/>
      </defs>
      <g>
       <use xlink:href="#m842736cc2a" x="189" y="128.16" style="stroke: #000000; stroke-width: 0.8"/>
      </g>
     </g>
     <g id="text_4">
      <!-- $\mathdefault{0.12}$ -->
      <g transform="translate(157.720929 133.002938) scale(0.14 -0.14)">
       <use xlink:href="#CMR17-30" transform="scale(0.996264)"/>
       <use xlink:href="#CMMI12-3a" transform="translate(45.690477 0) scale(0.996264)"/>
       <use xlink:href="#CMR17-31" transform="translate(72.787654 0) scale(0.996264)"/>
       <use xlink:href="#CMR17-32" transform="translate(118.478131 0) scale(0.996264)"/>
      </g>
     </g>
    </g>
    <g id="ytick_2">
     <g id="line2d_4">
      <g>
       <use xlink:href="#m842736cc2a" x="189" y="91.2" style="stroke: #000000; stroke-width: 0.8"/>
      </g>
     </g>
     <g id="text_5">
      <!-- $\mathdefault{0.13}$ -->
      <g transform="translate(157.720929 96.042938) scale(0.14 -0.14)">
       <defs>
        <path id="CMR17-33" d="M 1414 2157 
C 1984 2157 2234 1662 2234 1090 
C 2234 320 1824 25 1453 25 
C 1114 25 563 194 390 693 
C 422 680 454 680 486 680 
C 640 680 755 782 755 948 
C 755 1133 614 1216 486 1216 
C 378 1216 211 1165 211 926 
C 211 335 787 -128 1466 -128 
C 2176 -128 2720 430 2720 1085 
C 2720 1707 2208 2157 1600 2227 
C 2086 2328 2554 2756 2554 3329 
C 2554 3820 2048 4179 1472 4179 
C 890 4179 378 3829 378 3329 
C 378 3110 544 3072 627 3072 
C 762 3072 877 3155 877 3321 
C 877 3486 762 3569 627 3569 
C 602 3569 570 3569 544 3557 
C 730 3959 1235 4032 1459 4032 
C 1683 4032 2106 3925 2106 3320 
C 2106 3143 2080 2828 1862 2550 
C 1670 2304 1453 2304 1242 2284 
C 1210 2284 1062 2269 1037 2269 
C 992 2263 966 2257 966 2208 
C 966 2163 973 2157 1101 2157 
L 1414 2157 
z
" transform="scale(0.015625)"/>
       </defs>
       <use xlink:href="#CMR17-30" transform="scale(0.996264)"/>
       <use xlink:href="#CMMI12-3a" transform="translate(45.690477 0) scale(0.996264)"/>
       <use xlink:href="#CMR17-31" transform="translate(72.787654 0) scale(0.996264)"/>
       <use xlink:href="#CMR17-33" transform="translate(118.478131 0) scale(0.996264)"/>
      </g>
     </g>
    </g>
    <g id="ytick_3">
     <g id="line2d_5">
      <g>
       <use xlink:href="#m842736cc2a" x="189" y="54.24" style="stroke: #000000; stroke-width: 0.8"/>
      </g>
     </g>
     <g id="text_6">
      <!-- $\mathdefault{0.14}$ -->
      <g transform="translate(157.720929 59.082938) scale(0.14 -0.14)">
       <defs>
        <path id="CMR17-34" d="M 2150 4122 
C 2150 4256 2144 4256 2029 4256 
L 128 1254 
L 128 1088 
L 1779 1088 
L 1779 457 
C 1779 224 1766 160 1318 160 
L 1197 160 
L 1197 0 
C 1402 0 1747 0 1965 0 
C 2182 0 2528 0 2733 0 
L 2733 160 
L 2611 160 
C 2163 160 2150 224 2150 457 
L 2150 1088 
L 2803 1088 
L 2803 1254 
L 2150 1254 
L 2150 4122 
z
M 1798 3703 
L 1798 1254 
L 256 1254 
L 1798 3703 
z
" transform="scale(0.015625)"/>
       </defs>
       <use xlink:href="#CMR17-30" transform="scale(0.996264)"/>
       <use xlink:href="#CMMI12-3a" transform="translate(45.690477 0) scale(0.996264)"/>
       <use xlink:href="#CMR17-31" transform="translate(72.787654 0) scale(0.996264)"/>
       <use xlink:href="#CMR17-34" transform="translate(118.478131 0) scale(0.996264)"/>
      </g>
     </g>
    </g>
    <g id="ytick_4">
     <g id="line2d_6">
      <g>
       <use xlink:href="#m842736cc2a" x="189" y="17.28" style="stroke: #000000; stroke-width: 0.8"/>
      </g>
     </g>
     <g id="text_7">
      <!-- $\mathdefault{0.15}$ -->
      <g transform="translate(157.720929 22.122938) scale(0.14 -0.14)">
       <defs>
        <path id="CMR17-35" d="M 730 3692 
C 794 3666 1056 3584 1325 3584 
C 1920 3584 2246 3911 2432 4100 
C 2432 4157 2432 4192 2394 4192 
C 2387 4192 2374 4192 2323 4163 
C 2099 4058 1837 3973 1517 3973 
C 1325 3973 1037 3999 723 4139 
C 653 4171 640 4171 634 4171 
C 602 4171 595 4164 595 4037 
L 595 2203 
C 595 2089 595 2057 659 2057 
C 691 2057 704 2070 736 2114 
C 941 2401 1222 2522 1542 2522 
C 1766 2522 2246 2382 2246 1289 
C 2246 1085 2246 715 2054 421 
C 1894 159 1645 25 1370 25 
C 947 25 518 320 403 814 
C 429 807 480 795 506 795 
C 589 795 749 840 749 1038 
C 749 1210 627 1280 506 1280 
C 358 1280 262 1190 262 1011 
C 262 454 704 -128 1382 -128 
C 2042 -128 2669 440 2669 1264 
C 2669 2030 2170 2624 1549 2624 
C 1222 2624 947 2503 730 2274 
L 730 3692 
z
" transform="scale(0.015625)"/>
       </defs>
       <use xlink:href="#CMR17-30" transform="scale(0.996264)"/>
       <use xlink:href="#CMMI12-3a" transform="translate(45.690477 0) scale(0.996264)"/>
       <use xlink:href="#CMR17-31" transform="translate(72.787654 0) scale(0.996264)"/>
       <use xlink:href="#CMR17-35" transform="translate(118.478131 0) scale(0.996264)"/>
      </g>
     </g>
    </g>
    <g id="text_8">
     <!-- RMSE -->
     <g transform="translate(150.621453 95.259341) rotate(-90) scale(0.16 -0.16)">
      <defs>
       <path id="CMR17-52" d="M 2509 2146 
C 3117 2268 3629 2676 3629 3186 
C 3629 3785 2950 4326 2054 4326 
L 333 4326 
L 333 4160 
C 774 4160 845 4160 845 3873 
L 845 415 
C 845 128 774 128 333 128 
L 333 -26 
C 518 -26 851 -26 1050 -26 
C 1248 -26 1581 -26 1766 -26 
L 1766 128 
C 1325 128 1254 128 1254 417 
L 1254 2112 
L 2003 2112 
C 2368 2112 2573 1964 2662 1881 
C 2918 1632 2918 1459 2918 1024 
C 2918 595 2918 377 3110 160 
C 3354 -102 3680 -128 3821 -128 
C 4294 -128 4365 396 4365 503 
C 4365 540 4365 585 4307 585 
C 4256 585 4250 547 4250 522 
C 4218 112 4032 -26 3834 -26 
C 3482 -26 3443 375 3405 764 
C 3386 898 3373 993 3360 1133 
C 3322 1452 3270 1917 2509 2146 
z
M 1984 2214 
L 1254 2214 
L 1254 3913 
C 1254 4129 1267 4160 1523 4160 
L 1990 4160 
C 2522 4160 3142 3977 3142 3190 
C 3142 2372 2464 2214 1984 2214 
z
" transform="scale(0.015625)"/>
       <path id="CMR17-4d" d="M 1338 4224 
C 1299 4320 1293 4320 1158 4320 
L 339 4320 
L 339 4160 
C 781 4160 851 4160 851 3875 
L 851 610 
C 851 451 851 153 339 153 
L 339 -13 
C 486 0 755 0 915 0 
C 1075 0 1344 0 1491 -13 
L 1491 153 
C 979 153 979 451 979 610 
L 979 4135 
L 986 4135 
L 2490 89 
C 2515 25 2528 -13 2579 -13 
C 2630 -13 2643 25 2669 89 
L 4186 4166 
L 4192 4166 
L 4192 438 
C 4192 153 4122 153 3680 153 
L 3680 -13 
C 3853 0 4198 0 4384 0 
C 4570 0 4922 0 5094 -13 
L 5094 153 
C 4653 153 4582 153 4582 438 
L 4582 3875 
C 4582 4160 4653 4160 5094 4160 
L 5094 4320 
L 4282 4320 
C 4147 4320 4141 4314 4102 4218 
L 2720 502 
L 1338 4224 
z
" transform="scale(0.015625)"/>
       <path id="CMR17-53" d="M 2803 4290 
C 2803 4404 2797 4411 2758 4411 
C 2720 4411 2707 4385 2682 4328 
L 2490 3907 
C 2246 4257 1875 4416 1472 4416 
C 819 4416 294 3901 294 3253 
C 294 3056 339 2776 557 2510 
C 794 2218 1018 2167 1530 2033 
C 1722 1982 2042 1899 2106 1874 
C 2470 1722 2662 1341 2662 985 
C 2662 527 2336 38 1779 38 
C 1094 38 454 419 410 1311 
C 403 1413 397 1419 352 1419 
C 301 1419 294 1413 294 1285 
L 294 -1 
C 294 -115 301 -122 339 -122 
C 384 -122 397 -90 486 108 
C 493 127 493 140 614 381 
C 934 -39 1472 -128 1779 -128 
C 2477 -128 2970 451 2970 1124 
C 2970 1454 2848 1708 2778 1823 
C 2509 2230 2221 2306 1914 2382 
C 1869 2402 1856 2402 1498 2490 
C 1152 2579 1005 2624 845 2796 
C 666 2992 602 3196 602 3399 
C 602 3812 934 4263 1478 4263 
C 2157 4263 2579 3786 2675 2993 
C 2694 2878 2701 2872 2746 2872 
C 2803 2872 2803 2891 2803 2999 
L 2803 4290 
z
" transform="scale(0.015625)"/>
       <path id="CMR17-45" d="M 3885 1615 
L 3770 1615 
C 3629 676 3546 166 2419 166 
L 1530 166 
C 1274 166 1261 197 1261 414 
L 1261 2176 
L 1862 2176 
C 2464 2176 2522 1960 2522 1430 
L 2637 1430 
L 2637 3081 
L 2522 3081 
C 2522 2557 2464 2342 1862 2342 
L 1261 2342 
L 1261 3913 
C 1261 4128 1274 4160 1530 4160 
L 2406 4160 
C 3398 4160 3514 3769 3603 2929 
L 3718 2929 
L 3565 4325 
L 326 4325 
L 326 4160 
C 768 4160 838 4160 838 3874 
L 838 451 
C 838 166 768 166 326 166 
L 326 0 
L 3654 0 
L 3885 1615 
z
" transform="scale(0.015625)"/>
      </defs>
      <use xlink:href="#CMR17-52" transform="scale(0.996264)"/>
      <use xlink:href="#CMR17-4d" transform="translate(67.791102 0) scale(0.996264)"/>
      <use xlink:href="#CMR17-53" transform="translate(152.478043 0) scale(0.996264)"/>
      <use xlink:href="#CMR17-45" transform="translate(203.373412 0) scale(0.996264)"/>
     </g>
    </g>
   </g>
   <g id="line2d_7">
    <path d="M 246.168732 -1 
L 249.019024 45.33264 
L 251.877073 79.33584 
L 254.735122 101.29008 
L 257.593171 113.1912 
L 260.45122 116.81328 
L 263.309268 113.85648 
L 266.167317 105.87312 
L 269.025366 94.19376 
L 271.883415 79.85328 
L 274.741463 63.8496 
L 277.599512 46.88496 
L 280.457561 29.4768 
L 283.31561 11.95776 
L 285.447524 -1 
" clip-path="url(#pf1d36c8979)" style="fill: none; stroke: #482878; stroke-width: 3; stroke-linecap: square"/>
   </g>
   <g id="line2d_8">
    <path d="M 246.168732 -1 
L 249.019024 45.33264 
L 251.877073 79.33584 
L 254.735122 101.29008 
L 257.593171 113.1912 
L 260.45122 116.81328 
L 263.309268 113.85648 
L 266.167317 105.87312 
L 269.025366 94.19376 
L 271.883415 79.85328 
L 274.741463 63.8496 
L 277.599512 46.88496 
L 280.457561 29.4768 
L 283.31561 11.10768 
L 284.943896 -1 
" clip-path="url(#pf1d36c8979)" style="fill: none; stroke: #31688e; stroke-width: 3; stroke-linecap: square"/>
   </g>
   <g id="line2d_9">
    <path d="M 246.281339 -1 
L 249.019024 44.74128 
L 251.877073 79.188 
L 254.735122 101.29008 
L 257.593171 113.08032 
L 260.45122 116.22192 
L 263.309268 112.67376 
L 266.167317 104.136 
L 269.025366 92.08704 
L 271.883415 77.67264 
L 274.741463 61.74288 
L 277.599512 45 
L 280.457561 27.85056 
L 283.31561 10.6272 
L 285.261735 -1 
" clip-path="url(#pf1d36c8979)" style="fill: none; stroke: #1f9e89; stroke-width: 3; stroke-linecap: square"/>
   </g>
   <g id="line2d_10">
    <path d="M 246.281339 -1 
L 249.019024 44.74128 
L 251.877073 79.188 
L 254.735122 101.29008 
L 257.593171 113.08032 
L 260.45122 116.22192 
L 263.309268 112.67376 
L 266.167317 104.136 
L 269.025366 92.08704 
L 271.883415 77.67264 
L 274.741463 61.74288 
L 277.599512 45 
L 280.457561 27.444 
L 283.31561 7.44864 
L 284.409944 -1 
" clip-path="url(#pf1d36c8979)" style="fill: none; stroke: #6ece58; stroke-width: 3; stroke-linecap: square"/>
   </g>
   <g id="LineCollection_1">
    <path d="M 260.45122 145 
L 260.45122 -1 
" clip-path="url(#pf1d36c8979)" style="fill: none; stroke-dasharray: 5.55,2.4; stroke-dashoffset: 0; stroke: #cb1b4f; stroke-width: 1.5"/>
   </g>
   <g id="patch_3">
    <path d="M 189 128.16 
L 189 17.28 
" style="fill: none; stroke: #000000; stroke-width: 0.8; stroke-linejoin: miter; stroke-linecap: square"/>
   </g>
   <g id="patch_4">
    <path d="M 331.902439 128.16 
L 331.902439 17.28 
" style="fill: none; stroke: #000000; stroke-width: 0.8; stroke-linejoin: miter; stroke-linecap: square"/>
   </g>
   <g id="patch_5">
    <path d="M 189 128.16 
L 331.902439 128.16 
" style="fill: none; stroke: #000000; stroke-width: 0.8; stroke-linejoin: miter; stroke-linecap: square"/>
   </g>
   <g id="patch_6">
    <path d="M 189 17.28 
L 331.902439 17.28 
" style="fill: none; stroke: #000000; stroke-width: 0.8; stroke-linejoin: miter; stroke-linecap: square"/>
   </g>
  </g>
  <g id="axes_2">
   <g id="patch_7">
    <path d="M 360.482927 128.16 
L 503.385366 128.16 
L 503.385366 17.28 
L 360.482927 17.28 
L 360.482927 128.16 
z
" style="fill: none"/>
   </g>
   <g id="matplotlib.axis_3">
    <g id="xtick_3">
     <g id="line2d_11">
      <g>
       <use xlink:href="#m92ecdce7cc" x="397.637561" y="128.16" style="stroke: #000000; stroke-width: 0.8"/>
      </g>
     </g>
     <g id="text_9">
      <!-- $\mathdefault{0.1}$ -->
      <g transform="translate(388.91227 144.845876) scale(0.14 -0.14)">
       <use xlink:href="#CMR17-30" transform="scale(0.996264)"/>
       <use xlink:href="#CMMI12-3a" transform="translate(45.690477 0) scale(0.996264)"/>
       <use xlink:href="#CMR17-31" transform="translate(72.787654 0) scale(0.996264)"/>
      </g>
     </g>
    </g>
    <g id="xtick_4">
     <g id="line2d_12">
      <g>
       <use xlink:href="#m92ecdce7cc" x="454.798537" y="128.16" style="stroke: #000000; stroke-width: 0.8"/>
      </g>
     </g>
     <g id="text_10">
      <!-- $\mathdefault{0.2}$ -->
      <g transform="translate(446.073246 144.845876) scale(0.14 -0.14)">
       <use xlink:href="#CMR17-30" transform="scale(0.996264)"/>
       <use xlink:href="#CMMI12-3a" transform="translate(45.690477 0) scale(0.996264)"/>
       <use xlink:href="#CMR17-32" transform="translate(72.787654 0) scale(0.996264)"/>
      </g>
     </g>
    </g>
    <g id="text_11">
     <!-- $a_2$ -->
     <g transform="translate(425.047982 162.627493) scale(0.16 -0.16)">
      <use xlink:href="#CMMI12-61" transform="scale(0.996264)"/>
      <use xlink:href="#CMR17-32" transform="translate(51.207858 -14.943915) scale(0.697382)"/>
     </g>
    </g>
   </g>
   <g id="matplotlib.axis_4">
    <g id="ytick_5">
     <g id="line2d_13">
      <g>
       <use xlink:href="#m842736cc2a" x="360.482927" y="128.16" style="stroke: #000000; stroke-width: 0.8"/>
      </g>
     </g>
    </g>
    <g id="ytick_6">
     <g id="line2d_14">
      <g>
       <use xlink:href="#m842736cc2a" x="360.482927" y="91.2" style="stroke: #000000; stroke-width: 0.8"/>
      </g>
     </g>
    </g>
    <g id="ytick_7">
     <g id="line2d_15">
      <g>
       <use xlink:href="#m842736cc2a" x="360.482927" y="54.24" style="stroke: #000000; stroke-width: 0.8"/>
      </g>
     </g>
    </g>
    <g id="ytick_8">
     <g id="line2d_16">
      <g>
       <use xlink:href="#m842736cc2a" x="360.482927" y="17.28" style="stroke: #000000; stroke-width: 0.8"/>
      </g>
     </g>
    </g>
   </g>
   <g id="line2d_17">
    <path d="M 399.783992 -1 
L 400.49561 5.00928 
L 403.353659 28.10928 
L 406.211707 49.73088 
L 409.069756 69.31968 
L 411.927805 86.24736 
L 414.785854 99.92256 
L 417.643902 109.71696 
L 420.501951 115.18704 
L 423.36 116.81328 
L 426.218049 115.51968 
L 429.076098 112.96944 
L 431.934146 109.23648 
L 434.792195 104.46864 
L 437.650244 98.11152 
L 440.508293 90.53472 
L 443.366341 82.07088 
L 446.22439 73.05264 
L 449.082439 63.81264 
L 451.940488 54.6096 
L 454.798537 45.51744 
L 457.656585 36.684 
L 460.514634 28.10928 
L 463.372683 19.83024 
L 466.230732 11.84688 
L 469.08878 4.19616 
L 471.097828 -1 
" clip-path="url(#p8b905568e5)" style="fill: none; stroke: #482878; stroke-width: 3; stroke-linecap: square"/>
   </g>
   <g id="line2d_18">
    <path d="M 399.783992 -1 
L 400.49561 5.00928 
L 403.353659 28.10928 
L 406.211707 49.73088 
L 409.069756 69.31968 
L 411.927805 86.24736 
L 414.785854 99.92256 
L 417.643902 109.71696 
L 420.501951 115.18704 
L 423.36 116.81328 
L 426.218049 115.51968 
L 429.076098 112.96944 
L 431.934146 109.23648 
L 434.792195 104.46864 
L 437.650244 98.11152 
L 440.508293 90.53472 
L 443.366341 82.03392 
L 446.22439 72.72 
L 449.082439 62.99952 
L 451.940488 53.09424 
L 454.798537 43.152 
L 457.656585 33.24672 
L 460.514634 23.63712 
L 463.372683 14.1384 
L 466.230732 4.75056 
L 468.083566 -1 
" clip-path="url(#p8b905568e5)" style="fill: none; stroke: #31688e; stroke-width: 3; stroke-linecap: square"/>
   </g>
   <g id="line2d_19">
    <path d="M 401.388632 -1 
L 403.353659 15.13632 
L 406.211707 37.4232 
L 409.069756 58.04688 
L 411.927805 76.416 
L 414.785854 91.9392 
L 417.643902 104.06208 
L 420.501951 112.23024 
L 423.36 116.00016 
L 426.218049 115.29792 
L 429.076098 112.15632 
L 431.934146 108.0168 
L 434.792195 103.10112 
L 437.650244 96.744 
L 440.508293 88.31712 
L 443.366341 78.59664 
L 446.22439 68.13696 
L 449.082439 57.45552 
L 451.940488 46.88496 
L 454.798537 36.8688 
L 457.656585 27.22224 
L 460.514634 17.98224 
L 463.372683 9.18576 
L 466.230732 0.79584 
L 466.873644 -1 
" clip-path="url(#p8b905568e5)" style="fill: none; stroke: #1f9e89; stroke-width: 3; stroke-linecap: square"/>
   </g>
   <g id="line2d_20">
    <path d="M 401.388632 -1 
L 403.353659 15.13632 
L 406.211707 37.4232 
L 409.069756 58.04688 
L 411.927805 76.416 
L 414.785854 91.9392 
L 417.643902 104.06208 
L 420.501951 112.23024 
L 423.36 116.00016 
L 426.218049 115.29792 
L 429.076098 112.15632 
L 431.934146 108.0168 
L 434.792195 103.10112 
L 437.650244 96.744 
L 440.508293 88.31712 
L 443.366341 78.59664 
L 446.22439 68.13696 
L 449.082439 57.45552 
L 451.940488 46.88496 
L 454.798537 36.8688 
L 457.656585 27.18528 
L 460.514634 17.87136 
L 463.372683 8.92704 
L 466.230732 0.35232 
L 466.697573 -1 
" clip-path="url(#p8b905568e5)" style="fill: none; stroke: #6ece58; stroke-width: 3; stroke-linecap: square"/>
   </g>
   <g id="LineCollection_2">
    <path d="M 431.934146 145 
L 431.934146 -1 
" clip-path="url(#p8b905568e5)" style="fill: none; stroke-dasharray: 5.55,2.4; stroke-dashoffset: 0; stroke: #cb1b4f; stroke-width: 1.5"/>
   </g>
   <g id="patch_8">
    <path d="M 360.482927 128.16 
L 360.482927 17.28 
" style="fill: none; stroke: #000000; stroke-width: 0.8; stroke-linejoin: miter; stroke-linecap: square"/>
   </g>
   <g id="patch_9">
    <path d="M 503.385366 128.16 
L 503.385366 17.28 
" style="fill: none; stroke: #000000; stroke-width: 0.8; stroke-linejoin: miter; stroke-linecap: square"/>
   </g>
   <g id="patch_10">
    <path d="M 360.482927 128.16 
L 503.385366 128.16 
" style="fill: none; stroke: #000000; stroke-width: 0.8; stroke-linejoin: miter; stroke-linecap: square"/>
   </g>
   <g id="patch_11">
    <path d="M 360.482927 17.28 
L 503.385366 17.28 
" style="fill: none; stroke: #000000; stroke-width: 0.8; stroke-linejoin: miter; stroke-linecap: square"/>
   </g>
  </g>
  <g id="axes_3">
   <g id="patch_12">
    <path d="M 531.965854 128.16 
L 674.868293 128.16 
L 674.868293 17.28 
L 531.965854 17.28 
L 531.965854 128.16 
z
" style="fill: none"/>
   </g>
   <g id="matplotlib.axis_5">
    <g id="xtick_5">
     <g id="line2d_21">
      <g>
       <use xlink:href="#m92ecdce7cc" x="574.836585" y="128.16" style="stroke: #000000; stroke-width: 0.8"/>
      </g>
     </g>
     <g id="text_12">
      <!-- $\mathdefault{0.1}$ -->
      <g transform="translate(566.111294 144.845876) scale(0.14 -0.14)">
       <use xlink:href="#CMR17-30" transform="scale(0.996264)"/>
       <use xlink:href="#CMMI12-3a" transform="translate(45.690477 0) scale(0.996264)"/>
       <use xlink:href="#CMR17-31" transform="translate(72.787654 0) scale(0.996264)"/>
      </g>
     </g>
    </g>
    <g id="xtick_6">
     <g id="line2d_22">
      <g>
       <use xlink:href="#m92ecdce7cc" x="631.997561" y="128.16" style="stroke: #000000; stroke-width: 0.8"/>
      </g>
     </g>
     <g id="text_13">
      <!-- $\mathdefault{0.2}$ -->
      <g transform="translate(623.27227 144.845876) scale(0.14 -0.14)">
       <use xlink:href="#CMR17-30" transform="scale(0.996264)"/>
       <use xlink:href="#CMMI12-3a" transform="translate(45.690477 0) scale(0.996264)"/>
       <use xlink:href="#CMR17-32" transform="translate(72.787654 0) scale(0.996264)"/>
      </g>
     </g>
    </g>
    <g id="text_14">
     <!-- $a_4$ -->
     <g transform="translate(596.530909 162.627493) scale(0.16 -0.16)">
      <use xlink:href="#CMMI12-61" transform="scale(0.996264)"/>
      <use xlink:href="#CMR17-34" transform="translate(51.207858 -14.943915) scale(0.697382)"/>
     </g>
    </g>
   </g>
   <g id="matplotlib.axis_6">
    <g id="ytick_9">
     <g id="line2d_23">
      <g>
       <use xlink:href="#m842736cc2a" x="531.965854" y="128.16" style="stroke: #000000; stroke-width: 0.8"/>
      </g>
     </g>
    </g>
    <g id="ytick_10">
     <g id="line2d_24">
      <g>
       <use xlink:href="#m842736cc2a" x="531.965854" y="91.2" style="stroke: #000000; stroke-width: 0.8"/>
      </g>
     </g>
    </g>
    <g id="ytick_11">
     <g id="line2d_25">
      <g>
       <use xlink:href="#m842736cc2a" x="531.965854" y="54.24" style="stroke: #000000; stroke-width: 0.8"/>
      </g>
     </g>
    </g>
    <g id="ytick_12">
     <g id="line2d_26">
      <g>
       <use xlink:href="#m842736cc2a" x="531.965854" y="17.28" style="stroke: #000000; stroke-width: 0.8"/>
      </g>
     </g>
    </g>
   </g>
   <g id="line2d_27">
    <path d="M 568.982134 -1 
L 569.120488 6.3768 
L 571.978537 38.23632 
L 574.836585 64.9584 
L 577.694634 86.13648 
L 580.552683 101.58576 
L 583.410732 111.23232 
L 586.26878 115.5936 
L 589.126829 116.66544 
L 591.984878 116.81328 
L 594.842927 116.40672 
L 597.700976 115.66752 
L 600.559024 114.70656 
L 603.417073 113.5608 
L 606.275122 112.23024 
L 609.133171 110.86272 
L 611.99122 109.45824 
L 614.849268 107.97984 
L 617.707317 106.50144 
L 620.565366 104.5056 
L 623.423415 101.69664 
L 626.281463 97.8528 
L 629.139512 93.048 
L 631.997561 87.35616 
L 634.85561 80.96208 
L 637.713659 74.0136 
L 640.571707 66.54768 
L 643.429756 58.78608 
L 646.287805 50.7288 
L 649.145854 42.52368 
L 652.003902 34.20768 
L 654.861951 25.92864 
L 657.72 17.6496 
L 660.578049 9.44448 
L 663.436098 1.3872 
L 664.298704 -1 
" clip-path="url(#p9a2fce686a)" style="fill: none; stroke: #482878; stroke-width: 3; stroke-linecap: square"/>
   </g>
   <g id="line2d_28">
    <path d="M 569.719463 -1 
L 571.978537 38.08848 
L 574.836585 64.9584 
L 577.694634 86.13648 
L 580.552683 101.58576 
L 583.410732 111.23232 
L 586.26878 115.5936 
L 589.126829 116.66544 
L 591.984878 116.81328 
L 594.842927 116.40672 
L 597.700976 115.66752 
L 600.559024 114.70656 
L 603.417073 113.5608 
L 606.275122 112.23024 
L 609.133171 110.7888 
L 611.99122 109.45824 
L 614.849268 107.97984 
L 617.707317 106.50144 
L 620.565366 104.5056 
L 623.423415 101.69664 
L 626.281463 97.8528 
L 629.139512 93.048 
L 631.997561 87.35616 
L 634.85561 80.96208 
L 637.713659 74.0136 
L 640.571707 66.54768 
L 643.429756 58.78608 
L 646.287805 50.7288 
L 649.145854 42.52368 
L 652.003902 34.20768 
L 654.861951 25.92864 
L 657.72 17.6496 
L 660.578049 9.44448 
L 663.436098 1.3872 
L 664.298704 -1 
" clip-path="url(#p9a2fce686a)" style="fill: none; stroke: #31688e; stroke-width: 3; stroke-linecap: square"/>
   </g>
   <g id="line2d_29">
    <path d="M 569.986157 -1 
L 571.978537 17.8344 
L 574.836585 41.56272 
L 577.694634 62.0016 
L 580.552683 79.04016 
L 583.410732 92.75232 
L 586.26878 103.13808 
L 589.126829 110.4192 
L 591.984878 114.70656 
L 594.842927 116.25888 
L 597.700976 115.66752 
L 600.559024 114.70656 
L 603.417073 113.5608 
L 606.275122 112.23024 
L 609.133171 110.75184 
L 611.99122 109.1256 
L 614.849268 107.35152 
L 617.707317 105.35568 
L 620.565366 102.06624 
L 623.423415 97.40928 
L 626.281463 91.45872 
L 629.139512 84.43632 
L 631.997561 76.56384 
L 634.85561 68.39568 
L 637.713659 59.93184 
L 640.571707 51.17232 
L 643.429756 42.26496 
L 646.287805 33.32064 
L 649.145854 24.37632 
L 652.003902 15.50592 
L 654.861951 6.78336 
L 657.467462 -1 
" clip-path="url(#p9a2fce686a)" style="fill: none; stroke: #1f9e89; stroke-width: 3; stroke-linecap: square"/>
   </g>
   <g id="line2d_30">
    <path d="M 573.074926 -1 
L 574.836585 40.41696 
L 577.694634 62.0016 
L 580.552683 78.67056 
L 583.410732 92.75232 
L 586.26878 103.13808 
L 589.126829 110.4192 
L 591.984878 114.70656 
L 594.842927 116.25888 
L 597.700976 115.66752 
L 600.559024 114.70656 
L 603.417073 113.5608 
L 606.275122 112.23024 
L 609.133171 110.75184 
L 611.99122 109.1256 
L 614.849268 107.35152 
L 617.707317 105.35568 
L 620.565366 102.06624 
L 623.423415 97.40928 
L 626.281463 91.45872 
L 629.139512 84.43632 
L 631.997561 76.56384 
L 634.85561 68.39568 
L 637.713659 59.93184 
L 640.571707 51.17232 
L 643.429756 42.26496 
L 646.287805 33.32064 
L 649.145854 24.37632 
L 652.003902 15.50592 
L 654.861951 6.78336 
L 657.467462 -1 
" clip-path="url(#p9a2fce686a)" style="fill: none; stroke: #6ece58; stroke-width: 3; stroke-linecap: square"/>
   </g>
   <g id="LineCollection_3">
    <path d="M 603.417073 145 
L 603.417073 -1 
" clip-path="url(#p9a2fce686a)" style="fill: none; stroke-dasharray: 5.55,2.4; stroke-dashoffset: 0; stroke: #cb1b4f; stroke-width: 1.5"/>
   </g>
   <g id="patch_13">
    <path d="M 531.965854 128.16 
L 531.965854 17.28 
" style="fill: none; stroke: #000000; stroke-width: 0.8; stroke-linejoin: miter; stroke-linecap: square"/>
   </g>
   <g id="patch_14">
    <path d="M 674.868293 128.16 
L 674.868293 17.28 
" style="fill: none; stroke: #000000; stroke-width: 0.8; stroke-linejoin: miter; stroke-linecap: square"/>
   </g>
   <g id="patch_15">
    <path d="M 531.965854 128.16 
L 674.868293 128.16 
" style="fill: none; stroke: #000000; stroke-width: 0.8; stroke-linejoin: miter; stroke-linecap: square"/>
   </g>
   <g id="patch_16">
    <path d="M 531.965854 17.28 
L 674.868293 17.28 
" style="fill: none; stroke: #000000; stroke-width: 0.8; stroke-linejoin: miter; stroke-linecap: square"/>
   </g>
  </g>
  <g id="axes_4">
   <g id="patch_17">
    <path d="M 703.44878 128.16 
L 846.35122 128.16 
L 846.35122 17.28 
L 703.44878 17.28 
L 703.44878 128.16 
z
" style="fill: none"/>
   </g>
   <g id="matplotlib.axis_7">
    <g id="xtick_7">
     <g id="line2d_31">
      <g>
       <use xlink:href="#m92ecdce7cc" x="767.754878" y="128.16" style="stroke: #000000; stroke-width: 0.8"/>
      </g>
     </g>
     <g id="text_15">
      <!-- $\mathdefault{0.1}$ -->
      <g transform="translate(759.029587 144.845876) scale(0.14 -0.14)">
       <use xlink:href="#CMR17-30" transform="scale(0.996264)"/>
       <use xlink:href="#CMMI12-3a" transform="translate(45.690477 0) scale(0.996264)"/>
       <use xlink:href="#CMR17-31" transform="translate(72.787654 0) scale(0.996264)"/>
      </g>
     </g>
    </g>
    <g id="xtick_8">
     <g id="line2d_32">
      <g>
       <use xlink:href="#m92ecdce7cc" x="839.206098" y="128.16" style="stroke: #000000; stroke-width: 0.8"/>
      </g>
     </g>
     <g id="text_16">
      <!-- $\mathdefault{0.2}$ -->
      <g transform="translate(830.480807 144.845876) scale(0.14 -0.14)">
       <use xlink:href="#CMR17-30" transform="scale(0.996264)"/>
       <use xlink:href="#CMMI12-3a" transform="translate(45.690477 0) scale(0.996264)"/>
       <use xlink:href="#CMR17-32" transform="translate(72.787654 0) scale(0.996264)"/>
      </g>
     </g>
    </g>
    <g id="text_17">
     <!-- $a_5$ -->
     <g transform="translate(768.013836 162.627493) scale(0.16 -0.16)">
      <use xlink:href="#CMMI12-61" transform="scale(0.996264)"/>
      <use xlink:href="#CMR17-35" transform="translate(51.207858 -14.943915) scale(0.697382)"/>
     </g>
    </g>
   </g>
   <g id="matplotlib.axis_8">
    <g id="ytick_13">
     <g id="line2d_33">
      <g>
       <use xlink:href="#m842736cc2a" x="703.44878" y="128.16" style="stroke: #000000; stroke-width: 0.8"/>
      </g>
     </g>
    </g>
    <g id="ytick_14">
     <g id="line2d_34">
      <g>
       <use xlink:href="#m842736cc2a" x="703.44878" y="91.2" style="stroke: #000000; stroke-width: 0.8"/>
      </g>
     </g>
    </g>
    <g id="ytick_15">
     <g id="line2d_35">
      <g>
       <use xlink:href="#m842736cc2a" x="703.44878" y="54.24" style="stroke: #000000; stroke-width: 0.8"/>
      </g>
     </g>
    </g>
    <g id="ytick_16">
     <g id="line2d_36">
      <g>
       <use xlink:href="#m842736cc2a" x="703.44878" y="17.28" style="stroke: #000000; stroke-width: 0.8"/>
      </g>
     </g>
    </g>
   </g>
   <g id="line2d_37">
    <path d="M 703.44878 117.2568 
L 707.021341 117.21984 
L 710.593902 117.14592 
L 714.166463 117.10896 
L 717.739024 117.072 
L 721.311585 116.99808 
L 724.884146 116.96112 
L 728.456707 116.8872 
L 732.029268 116.81328 
L 735.601829 116.77632 
L 739.17439 116.7024 
L 742.746951 116.62848 
L 746.319512 116.55456 
L 749.892073 116.48064 
L 753.464634 116.36976 
L 757.037195 116.29584 
L 760.609756 116.22192 
L 764.182317 116.11104 
L 767.754878 115.9632 
L 771.327439 115.81536 
L 774.9 115.63056 
L 778.472561 115.44576 
L 782.045122 115.224 
L 785.617683 115.00224 
L 789.190244 114.74352 
L 792.762805 114.4848 
L 796.335366 114.18912 
L 799.907927 113.85648 
L 803.480488 113.52384 
L 807.053049 113.1912 
L 810.62561 112.8216 
L 814.198171 112.452 
L 817.770732 112.04544 
L 821.343293 111.63888 
L 824.915854 111.19536 
L 828.488415 110.75184 
L 832.060976 110.27136 
L 835.633537 109.64304 
L 839.206098 109.01472 
L 842.778659 108.34944 
L 846.35122 107.72112 
" clip-path="url(#p98a92e85b9)" style="fill: none; stroke: #482878; stroke-width: 3; stroke-linecap: square"/>
   </g>
   <g id="line2d_38">
    <path d="M 703.44878 117.2568 
L 707.021341 117.21984 
L 710.593902 117.14592 
L 714.166463 117.10896 
L 717.739024 117.072 
L 721.311585 116.99808 
L 724.884146 116.96112 
L 728.456707 116.8872 
L 732.029268 116.81328 
L 735.601829 116.77632 
L 739.17439 116.7024 
L 742.746951 116.62848 
L 746.319512 116.55456 
L 749.892073 116.48064 
L 753.464634 116.36976 
L 757.037195 116.29584 
L 760.609756 116.22192 
L 764.182317 116.11104 
L 767.754878 115.9632 
L 771.327439 115.81536 
L 774.9 115.63056 
L 778.472561 115.44576 
L 782.045122 115.224 
L 785.617683 115.00224 
L 789.190244 114.74352 
L 792.762805 114.4848 
L 796.335366 114.18912 
L 799.907927 113.85648 
L 803.480488 113.52384 
L 807.053049 113.1912 
L 810.62561 112.8216 
L 814.198171 112.452 
L 817.770732 112.04544 
L 821.343293 111.63888 
L 824.915854 111.19536 
L 828.488415 110.75184 
L 832.060976 110.27136 
L 835.633537 109.64304 
L 839.206098 109.01472 
L 842.778659 108.34944 
L 846.35122 107.72112 
" clip-path="url(#p98a92e85b9)" style="fill: none; stroke: #31688e; stroke-width: 3; stroke-linecap: square"/>
   </g>
   <g id="line2d_39">
    <path d="M 703.44878 117.14592 
L 707.021341 117.072 
L 710.593902 116.96112 
L 714.166463 116.8872 
L 717.739024 116.77632 
L 721.311585 116.66544 
L 724.884146 116.5176 
L 728.456707 116.40672 
L 732.029268 116.25888 
L 735.601829 116.11104 
L 739.17439 115.9632 
L 742.746951 115.7784 
L 746.319512 115.63056 
L 749.892073 115.44576 
L 753.464634 115.26096 
L 757.037195 115.0392 
L 760.609756 114.8544 
L 764.182317 114.63264 
L 767.754878 114.41088 
L 771.327439 114.18912 
L 774.9 113.96736 
L 778.472561 113.70864 
L 782.045122 113.44992 
L 785.617683 113.15424 
L 789.190244 112.89552 
L 792.762805 112.59984 
L 796.335366 112.30416 
L 799.907927 111.97152 
L 803.480488 111.63888 
L 807.053049 111.30624 
L 810.62561 110.9736 
L 814.198171 110.64096 
L 817.770732 110.27136 
L 821.343293 109.90176 
L 824.915854 109.53216 
L 828.488415 109.16256 
L 832.060976 108.756 
L 835.633537 108.34944 
L 839.206098 107.94288 
L 842.778659 107.53632 
L 846.35122 107.12976 
" clip-path="url(#p98a92e85b9)" style="fill: none; stroke: #1f9e89; stroke-width: 3; stroke-linecap: square"/>
   </g>
   <g id="line2d_40">
    <path d="M 703.44878 117.14592 
L 707.021341 117.072 
L 710.593902 116.96112 
L 714.166463 116.8872 
L 717.739024 116.77632 
L 721.311585 116.66544 
L 724.884146 116.5176 
L 728.456707 116.40672 
L 732.029268 116.25888 
L 735.601829 116.11104 
L 739.17439 115.9632 
L 742.746951 115.7784 
L 746.319512 115.63056 
L 749.892073 115.44576 
L 753.464634 115.26096 
L 757.037195 115.0392 
L 760.609756 114.8544 
L 764.182317 114.63264 
L 767.754878 114.41088 
L 771.327439 114.18912 
L 774.9 113.96736 
L 778.472561 113.70864 
L 782.045122 113.44992 
L 785.617683 113.15424 
L 789.190244 112.89552 
L 792.762805 112.59984 
L 796.335366 112.30416 
L 799.907927 111.97152 
L 803.480488 111.63888 
L 807.053049 111.30624 
L 810.62561 110.9736 
L 814.198171 110.64096 
L 817.770732 110.27136 
L 821.343293 109.90176 
L 824.915854 109.53216 
L 828.488415 109.16256 
L 832.060976 108.756 
L 835.633537 108.34944 
L 839.206098 107.94288 
L 842.778659 107.53632 
L 846.35122 107.12976 
" clip-path="url(#p98a92e85b9)" style="fill: none; stroke: #6ece58; stroke-width: 3; stroke-linecap: square"/>
   </g>
   <g id="LineCollection_4">
    <path d="M 774.9 145 
L 774.9 -1 
" clip-path="url(#p98a92e85b9)" style="fill: none; stroke-dasharray: 5.55,2.4; stroke-dashoffset: 0; stroke: #cb1b4f; stroke-width: 1.5"/>
   </g>
   <g id="patch_18">
    <path d="M 703.44878 128.16 
L 703.44878 17.28 
" style="fill: none; stroke: #000000; stroke-width: 0.8; stroke-linejoin: miter; stroke-linecap: square"/>
   </g>
   <g id="patch_19">
    <path d="M 846.35122 128.16 
L 846.35122 17.28 
" style="fill: none; stroke: #000000; stroke-width: 0.8; stroke-linejoin: miter; stroke-linecap: square"/>
   </g>
   <g id="patch_20">
    <path d="M 703.44878 128.16 
L 846.35122 128.16 
" style="fill: none; stroke: #000000; stroke-width: 0.8; stroke-linejoin: miter; stroke-linecap: square"/>
   </g>
   <g id="patch_21">
    <path d="M 703.44878 17.28 
L 846.35122 17.28 
" style="fill: none; stroke: #000000; stroke-width: 0.8; stroke-linejoin: miter; stroke-linecap: square"/>
   </g>
  </g>
  <g id="axes_5">
   <g id="patch_22">
    <path d="M 874.931707 128.16 
L 1017.834146 128.16 
L 1017.834146 17.28 
L 874.931707 17.28 
L 874.931707 128.16 
z
" style="fill: none"/>
   </g>
   <g id="matplotlib.axis_9">
    <g id="xtick_9">
     <g id="line2d_41">
      <g>
       <use xlink:href="#m92ecdce7cc" x="889.221951" y="128.16" style="stroke: #000000; stroke-width: 0.8"/>
      </g>
     </g>
     <g id="text_18">
      <!-- $\mathdefault{0.04}$ -->
      <g transform="translate(877.082416 144.845876) scale(0.14 -0.14)">
       <use xlink:href="#CMR17-30" transform="scale(0.996264)"/>
       <use xlink:href="#CMMI12-3a" transform="translate(45.690477 0) scale(0.996264)"/>
       <use xlink:href="#CMR17-30" transform="translate(72.787654 0) scale(0.996264)"/>
       <use xlink:href="#CMR17-34" transform="translate(118.478131 0) scale(0.996264)"/>
      </g>
     </g>
    </g>
    <g id="xtick_10">
     <g id="line2d_42">
      <g>
       <use xlink:href="#m92ecdce7cc" x="946.382927" y="128.16" style="stroke: #000000; stroke-width: 0.8"/>
      </g>
     </g>
     <g id="text_19">
      <!-- $\mathdefault{0.05}$ -->
      <g transform="translate(934.243391 144.845876) scale(0.14 -0.14)">
       <use xlink:href="#CMR17-30" transform="scale(0.996264)"/>
       <use xlink:href="#CMMI12-3a" transform="translate(45.690477 0) scale(0.996264)"/>
       <use xlink:href="#CMR17-30" transform="translate(72.787654 0) scale(0.996264)"/>
       <use xlink:href="#CMR17-35" transform="translate(118.478131 0) scale(0.996264)"/>
      </g>
     </g>
    </g>
    <g id="xtick_11">
     <g id="line2d_43">
      <g>
       <use xlink:href="#m92ecdce7cc" x="1003.543902" y="128.16" style="stroke: #000000; stroke-width: 0.8"/>
      </g>
     </g>
     <g id="text_20">
      <!-- $\mathdefault{0.06}$ -->
      <g transform="translate(991.404367 144.845876) scale(0.14 -0.14)">
       <defs>
        <path id="CMR17-36" d="M 678 2176 
C 678 3690 1395 4032 1811 4032 
C 1946 4032 2272 4009 2400 3776 
C 2298 3776 2106 3776 2106 3553 
C 2106 3381 2246 3323 2336 3323 
C 2394 3323 2566 3348 2566 3560 
C 2566 3954 2246 4179 1805 4179 
C 1043 4179 243 3390 243 1984 
C 243 253 966 -128 1478 -128 
C 2099 -128 2688 427 2688 1283 
C 2688 2081 2170 2662 1517 2662 
C 1126 2662 838 2407 678 1960 
L 678 2176 
z
M 1478 25 
C 691 25 691 1200 691 1436 
C 691 1896 909 2560 1504 2560 
C 1613 2560 1926 2560 2138 2120 
C 2253 1870 2253 1609 2253 1289 
C 2253 944 2253 690 2118 434 
C 1978 171 1773 25 1478 25 
z
" transform="scale(0.015625)"/>
       </defs>
       <use xlink:href="#CMR17-30" transform="scale(0.996264)"/>
       <use xlink:href="#CMMI12-3a" transform="translate(45.690477 0) scale(0.996264)"/>
       <use xlink:href="#CMR17-30" transform="translate(72.787654 0) scale(0.996264)"/>
       <use xlink:href="#CMR17-36" transform="translate(118.478131 0) scale(0.996264)"/>
      </g>
     </g>
    </g>
    <g id="text_21">
     <!-- $a_6$ -->
     <g transform="translate(939.496763 162.627493) scale(0.16 -0.16)">
      <use xlink:href="#CMMI12-61" transform="scale(0.996264)"/>
      <use xlink:href="#CMR17-36" transform="translate(51.207858 -14.943915) scale(0.697382)"/>
     </g>
    </g>
   </g>
   <g id="matplotlib.axis_10">
    <g id="ytick_17">
     <g id="line2d_44">
      <g>
       <use xlink:href="#m842736cc2a" x="874.931707" y="128.16" style="stroke: #000000; stroke-width: 0.8"/>
      </g>
     </g>
    </g>
    <g id="ytick_18">
     <g id="line2d_45">
      <g>
       <use xlink:href="#m842736cc2a" x="874.931707" y="91.2" style="stroke: #000000; stroke-width: 0.8"/>
      </g>
     </g>
    </g>
    <g id="ytick_19">
     <g id="line2d_46">
      <g>
       <use xlink:href="#m842736cc2a" x="874.931707" y="54.24" style="stroke: #000000; stroke-width: 0.8"/>
      </g>
     </g>
    </g>
    <g id="ytick_20">
     <g id="line2d_47">
      <g>
       <use xlink:href="#m842736cc2a" x="874.931707" y="17.28" style="stroke: #000000; stroke-width: 0.8"/>
      </g>
     </g>
    </g>
   </g>
   <g id="line2d_48">
    <path d="M 874.931707 116.73936 
L 877.789756 116.73936 
L 880.647805 116.73936 
L 883.505854 116.77632 
L 886.363902 116.77632 
L 889.221951 116.77632 
L 892.08 116.77632 
L 894.938049 116.81328 
L 897.796098 116.81328 
L 900.654146 116.81328 
L 903.512195 116.81328 
L 906.370244 116.81328 
L 909.228293 116.81328 
L 912.086341 116.81328 
L 914.94439 116.81328 
L 917.802439 116.81328 
L 920.660488 116.81328 
L 923.518537 116.81328 
L 926.376585 116.81328 
L 929.234634 116.81328 
L 932.092683 116.81328 
L 934.950732 116.81328 
L 937.80878 116.77632 
L 940.666829 116.77632 
L 943.524878 116.77632 
L 946.382927 116.77632 
L 949.240976 116.77632 
L 952.099024 116.73936 
L 954.957073 116.73936 
L 957.815122 116.73936 
L 960.673171 116.7024 
L 963.53122 116.7024 
L 966.389268 116.7024 
L 969.247317 116.66544 
L 972.105366 116.66544 
L 974.963415 116.62848 
L 977.821463 116.62848 
L 980.679512 116.59152 
L 983.537561 116.59152 
L 986.39561 116.59152 
L 989.253659 116.55456 
L 992.111707 116.55456 
L 994.969756 116.5176 
L 997.827805 116.48064 
L 1000.685854 116.48064 
L 1003.543902 116.44368 
L 1006.401951 116.44368 
L 1009.26 116.40672 
L 1012.118049 116.40672 
L 1014.976098 116.36976 
L 1017.834146 116.3328 
" clip-path="url(#pbe66ed742c)" style="fill: none; stroke: #482878; stroke-width: 3; stroke-linecap: square"/>
   </g>
   <g id="line2d_49">
    <path d="M 874.931707 116.73936 
L 877.789756 116.73936 
L 880.647805 116.73936 
L 883.505854 116.77632 
L 886.363902 116.77632 
L 889.221951 116.77632 
L 892.08 116.77632 
L 894.938049 116.81328 
L 897.796098 116.81328 
L 900.654146 116.81328 
L 903.512195 116.81328 
L 906.370244 116.81328 
L 909.228293 116.81328 
L 912.086341 116.81328 
L 914.94439 116.81328 
L 917.802439 116.81328 
L 920.660488 116.81328 
L 923.518537 116.81328 
L 926.376585 116.81328 
L 929.234634 116.81328 
L 932.092683 116.81328 
L 934.950732 116.81328 
L 937.80878 116.77632 
L 940.666829 116.77632 
L 943.524878 116.77632 
L 946.382927 116.77632 
L 949.240976 116.77632 
L 952.099024 116.73936 
L 954.957073 116.73936 
L 957.815122 116.73936 
L 960.673171 116.7024 
L 963.53122 116.7024 
L 966.389268 116.7024 
L 969.247317 116.66544 
L 972.105366 116.66544 
L 974.963415 116.62848 
L 977.821463 116.62848 
L 980.679512 116.59152 
L 983.537561 116.59152 
L 986.39561 116.59152 
L 989.253659 116.55456 
L 992.111707 116.55456 
L 994.969756 116.5176 
L 997.827805 116.48064 
L 1000.685854 116.48064 
L 1003.543902 116.44368 
L 1006.401951 116.44368 
L 1009.26 116.40672 
L 1012.118049 116.40672 
L 1014.976098 116.36976 
L 1017.834146 116.3328 
" clip-path="url(#pbe66ed742c)" style="fill: none; stroke: #31688e; stroke-width: 3; stroke-linecap: square"/>
   </g>
   <g id="line2d_50">
    <path d="M 874.931707 112.93248 
L 877.789756 113.04336 
L 880.647805 113.11728 
L 883.505854 113.22816 
L 886.363902 113.30208 
L 889.221951 113.41296 
L 892.08 113.48688 
L 894.938049 113.5608 
L 897.796098 113.63472 
L 900.654146 113.70864 
L 903.512195 113.78256 
L 906.370244 113.85648 
L 909.228293 113.9304 
L 912.086341 114.00432 
L 914.94439 114.07824 
L 917.802439 114.15216 
L 920.660488 114.22608 
L 923.518537 114.3 
L 926.376585 114.37392 
L 929.234634 114.41088 
L 932.092683 114.4848 
L 934.950732 114.55872 
L 937.80878 114.63264 
L 940.666829 114.70656 
L 943.524878 114.74352 
L 946.382927 114.81744 
L 949.240976 114.89136 
L 952.099024 114.92832 
L 954.957073 115.00224 
L 957.815122 115.0392 
L 960.673171 115.11312 
L 963.53122 115.18704 
L 966.389268 115.224 
L 969.247317 115.29792 
L 972.105366 115.33488 
L 974.963415 115.4088 
L 977.821463 115.44576 
L 980.679512 115.51968 
L 983.537561 115.55664 
L 986.39561 115.5936 
L 989.253659 115.66752 
L 992.111707 115.70448 
L 994.969756 115.7784 
L 997.827805 115.81536 
L 1000.685854 115.85232 
L 1003.543902 115.88928 
L 1006.401951 115.9632 
L 1009.26 116.00016 
L 1012.118049 116.03712 
L 1014.976098 116.07408 
L 1017.834146 116.148 
" clip-path="url(#pbe66ed742c)" style="fill: none; stroke: #1f9e89; stroke-width: 3; stroke-linecap: square"/>
   </g>
   <g id="line2d_51">
    <path d="M 874.931707 112.93248 
L 877.789756 113.04336 
L 880.647805 113.11728 
L 883.505854 113.22816 
L 886.363902 113.30208 
L 889.221951 113.41296 
L 892.08 113.48688 
L 894.938049 113.5608 
L 897.796098 113.63472 
L 900.654146 113.70864 
L 903.512195 113.78256 
L 906.370244 113.85648 
L 909.228293 113.9304 
L 912.086341 114.00432 
L 914.94439 114.07824 
L 917.802439 114.15216 
L 920.660488 114.22608 
L 923.518537 114.3 
L 926.376585 114.37392 
L 929.234634 114.41088 
L 932.092683 114.4848 
L 934.950732 114.55872 
L 937.80878 114.63264 
L 940.666829 114.70656 
L 943.524878 114.74352 
L 946.382927 114.81744 
L 949.240976 114.89136 
L 952.099024 114.92832 
L 954.957073 115.00224 
L 957.815122 115.0392 
L 960.673171 115.11312 
L 963.53122 115.18704 
L 966.389268 115.224 
L 969.247317 115.29792 
L 972.105366 115.33488 
L 974.963415 115.4088 
L 977.821463 115.44576 
L 980.679512 115.51968 
L 983.537561 115.55664 
L 986.39561 115.5936 
L 989.253659 115.66752 
L 992.111707 115.70448 
L 994.969756 115.7784 
L 997.827805 115.81536 
L 1000.685854 115.85232 
L 1003.543902 115.88928 
L 1006.401951 115.9632 
L 1009.26 116.00016 
L 1012.118049 116.03712 
L 1014.976098 116.07408 
L 1017.834146 116.148 
" clip-path="url(#pbe66ed742c)" style="fill: none; stroke: #6ece58; stroke-width: 3; stroke-linecap: square"/>
   </g>
   <g id="LineCollection_5">
    <path d="M 946.382927 145 
L 946.382927 -1 
" clip-path="url(#pbe66ed742c)" style="fill: none; stroke-dasharray: 5.55,2.4; stroke-dashoffset: 0; stroke: #cb1b4f; stroke-width: 1.5"/>
   </g>
   <g id="patch_23">
    <path d="M 874.931707 128.16 
L 874.931707 17.28 
" style="fill: none; stroke: #000000; stroke-width: 0.8; stroke-linejoin: miter; stroke-linecap: square"/>
   </g>
   <g id="patch_24">
    <path d="M 1017.834146 128.16 
L 1017.834146 17.28 
" style="fill: none; stroke: #000000; stroke-width: 0.8; stroke-linejoin: miter; stroke-linecap: square"/>
   </g>
   <g id="patch_25">
    <path d="M 874.931707 128.16 
L 1017.834146 128.16 
" style="fill: none; stroke: #000000; stroke-width: 0.8; stroke-linejoin: miter; stroke-linecap: square"/>
   </g>
   <g id="patch_26">
    <path d="M 874.931707 17.28 
L 1017.834146 17.28 
" style="fill: none; stroke: #000000; stroke-width: 0.8; stroke-linejoin: miter; stroke-linecap: square"/>
   </g>
  </g>
  <g id="axes_6">
   <g id="patch_27">
    <path d="M 1046.414634 128.16 
L 1189.317073 128.16 
L 1189.317073 17.28 
L 1046.414634 17.28 
L 1046.414634 128.16 
z
" style="fill: none"/>
   </g>
   <g id="matplotlib.axis_11">
    <g id="xtick_12">
     <g id="line2d_52">
      <g>
       <use xlink:href="#m92ecdce7cc" x="1060.704878" y="128.16" style="stroke: #000000; stroke-width: 0.8"/>
      </g>
     </g>
     <g id="text_22">
      <!-- $\mathdefault{0.05}$ -->
      <g transform="translate(1048.565343 144.845876) scale(0.14 -0.14)">
       <use xlink:href="#CMR17-30" transform="scale(0.996264)"/>
       <use xlink:href="#CMMI12-3a" transform="translate(45.690477 0) scale(0.996264)"/>
       <use xlink:href="#CMR17-30" transform="translate(72.787654 0) scale(0.996264)"/>
       <use xlink:href="#CMR17-35" transform="translate(118.478131 0) scale(0.996264)"/>
      </g>
     </g>
    </g>
    <g id="xtick_13">
     <g id="line2d_53">
      <g>
       <use xlink:href="#m92ecdce7cc" x="1117.865854" y="128.16" style="stroke: #000000; stroke-width: 0.8"/>
      </g>
     </g>
     <g id="text_23">
      <!-- $\mathdefault{0.06}$ -->
      <g transform="translate(1105.726318 144.845876) scale(0.14 -0.14)">
       <use xlink:href="#CMR17-30" transform="scale(0.996264)"/>
       <use xlink:href="#CMMI12-3a" transform="translate(45.690477 0) scale(0.996264)"/>
       <use xlink:href="#CMR17-30" transform="translate(72.787654 0) scale(0.996264)"/>
       <use xlink:href="#CMR17-36" transform="translate(118.478131 0) scale(0.996264)"/>
      </g>
     </g>
    </g>
    <g id="xtick_14">
     <g id="line2d_54">
      <g>
       <use xlink:href="#m92ecdce7cc" x="1175.026829" y="128.16" style="stroke: #000000; stroke-width: 0.8"/>
      </g>
     </g>
     <g id="text_24">
      <!-- $\mathdefault{0.07}$ -->
      <g transform="translate(1162.887294 144.845876) scale(0.14 -0.14)">
       <defs>
        <path id="CMR17-37" d="M 2886 3941 
L 2886 4081 
L 1382 4081 
C 634 4081 621 4165 595 4288 
L 480 4288 
L 294 3094 
L 410 3094 
C 429 3215 474 3540 550 3661 
C 589 3712 1062 3712 1171 3712 
L 2579 3712 
L 1869 2661 
C 1395 1954 1069 999 1069 165 
C 1069 89 1069 -128 1299 -128 
C 1530 -128 1530 89 1530 171 
L 1530 465 
C 1530 1508 1709 2196 2003 2636 
L 2886 3941 
z
" transform="scale(0.015625)"/>
       </defs>
       <use xlink:href="#CMR17-30" transform="scale(0.996264)"/>
       <use xlink:href="#CMMI12-3a" transform="translate(45.690477 0) scale(0.996264)"/>
       <use xlink:href="#CMR17-30" transform="translate(72.787654 0) scale(0.996264)"/>
       <use xlink:href="#CMR17-37" transform="translate(118.478131 0) scale(0.996264)"/>
      </g>
     </g>
    </g>
    <g id="text_25">
     <!-- $a_8$ -->
     <g transform="translate(1110.979689 162.627493) scale(0.16 -0.16)">
      <defs>
       <path id="CMR17-38" d="M 1741 2264 
C 2144 2467 2554 2773 2554 3263 
C 2554 3841 1990 4179 1472 4179 
C 890 4179 378 3759 378 3180 
C 378 3021 416 2747 666 2505 
C 730 2442 998 2251 1171 2130 
C 883 1983 211 1634 211 934 
C 211 279 838 -128 1459 -128 
C 2144 -128 2720 362 2720 1010 
C 2720 1590 2330 1857 2074 2029 
L 1741 2264 
z
M 902 2822 
C 851 2854 595 3051 595 3351 
C 595 3739 998 4032 1459 4032 
C 1965 4032 2336 3676 2336 3262 
C 2336 2669 1670 2331 1638 2331 
C 1632 2331 1626 2331 1574 2370 
L 902 2822 
z
M 2080 1519 
C 2176 1449 2483 1240 2483 851 
C 2483 381 2010 25 1472 25 
C 890 25 448 438 448 940 
C 448 1443 838 1862 1280 2060 
L 2080 1519 
z
" transform="scale(0.015625)"/>
      </defs>
      <use xlink:href="#CMMI12-61" transform="scale(0.996264)"/>
      <use xlink:href="#CMR17-38" transform="translate(51.207858 -14.943915) scale(0.697382)"/>
     </g>
    </g>
   </g>
   <g id="matplotlib.axis_12">
    <g id="ytick_21">
     <g id="line2d_55">
      <g>
       <use xlink:href="#m842736cc2a" x="1046.414634" y="128.16" style="stroke: #000000; stroke-width: 0.8"/>
      </g>
     </g>
    </g>
    <g id="ytick_22">
     <g id="line2d_56">
      <g>
       <use xlink:href="#m842736cc2a" x="1046.414634" y="91.2" style="stroke: #000000; stroke-width: 0.8"/>
      </g>
     </g>
    </g>
    <g id="ytick_23">
     <g id="line2d_57">
      <g>
       <use xlink:href="#m842736cc2a" x="1046.414634" y="54.24" style="stroke: #000000; stroke-width: 0.8"/>
      </g>
     </g>
    </g>
    <g id="ytick_24">
     <g id="line2d_58">
      <g>
       <use xlink:href="#m842736cc2a" x="1046.414634" y="17.28" style="stroke: #000000; stroke-width: 0.8"/>
      </g>
     </g>
    </g>
   </g>
   <g id="line2d_59">
    <path d="M 1046.414634 115.07616 
L 1049.272683 115.11312 
L 1052.130732 115.18704 
L 1054.98878 115.224 
L 1057.846829 115.29792 
L 1060.704878 115.33488 
L 1063.562927 115.4088 
L 1066.420976 115.44576 
L 1069.279024 115.48272 
L 1072.137073 115.55664 
L 1074.995122 115.5936 
L 1077.853171 115.63056 
L 1080.71122 115.70448 
L 1083.569268 115.74144 
L 1086.427317 115.7784 
L 1089.285366 115.81536 
L 1092.143415 115.85232 
L 1095.001463 115.88928 
L 1097.859512 115.92624 
L 1100.717561 115.9632 
L 1103.57561 116.00016 
L 1106.433659 116.03712 
L 1109.291707 116.07408 
L 1112.149756 116.11104 
L 1115.007805 116.148 
L 1117.865854 116.18496 
L 1120.723902 116.22192 
L 1123.581951 116.25888 
L 1126.44 116.29584 
L 1129.298049 116.3328 
L 1132.156098 116.3328 
L 1135.014146 116.36976 
L 1137.872195 116.40672 
L 1140.730244 116.44368 
L 1143.588293 116.44368 
L 1146.446341 116.48064 
L 1149.30439 116.5176 
L 1152.162439 116.5176 
L 1155.020488 116.55456 
L 1157.878537 116.55456 
L 1160.736585 116.59152 
L 1163.594634 116.59152 
L 1166.452683 116.62848 
L 1169.310732 116.62848 
L 1172.16878 116.66544 
L 1175.026829 116.66544 
L 1177.884878 116.7024 
L 1180.742927 116.7024 
L 1183.600976 116.7024 
L 1186.459024 116.73936 
L 1189.317073 116.73936 
" clip-path="url(#p766687266a)" style="fill: none; stroke: #482878; stroke-width: 3; stroke-linecap: square"/>
   </g>
   <g id="line2d_60">
    <path d="M 1046.414634 115.07616 
L 1049.272683 115.11312 
L 1052.130732 115.18704 
L 1054.98878 115.224 
L 1057.846829 115.29792 
L 1060.704878 115.33488 
L 1063.562927 115.4088 
L 1066.420976 115.44576 
L 1069.279024 115.48272 
L 1072.137073 115.55664 
L 1074.995122 115.5936 
L 1077.853171 115.63056 
L 1080.71122 115.70448 
L 1083.569268 115.74144 
L 1086.427317 115.7784 
L 1089.285366 115.81536 
L 1092.143415 115.85232 
L 1095.001463 115.88928 
L 1097.859512 115.92624 
L 1100.717561 115.9632 
L 1103.57561 116.00016 
L 1106.433659 116.03712 
L 1109.291707 116.07408 
L 1112.149756 116.11104 
L 1115.007805 116.148 
L 1117.865854 116.18496 
L 1120.723902 116.22192 
L 1123.581951 116.25888 
L 1126.44 116.29584 
L 1129.298049 116.3328 
L 1132.156098 116.3328 
L 1135.014146 116.36976 
L 1137.872195 116.40672 
L 1140.730244 116.44368 
L 1143.588293 116.44368 
L 1146.446341 116.48064 
L 1149.30439 116.5176 
L 1152.162439 116.5176 
L 1155.020488 116.55456 
L 1157.878537 116.55456 
L 1160.736585 116.59152 
L 1163.594634 116.59152 
L 1166.452683 116.62848 
L 1169.310732 116.62848 
L 1172.16878 116.66544 
L 1175.026829 116.66544 
L 1177.884878 116.7024 
L 1180.742927 116.7024 
L 1183.600976 116.7024 
L 1186.459024 116.73936 
L 1189.317073 116.73936 
" clip-path="url(#p766687266a)" style="fill: none; stroke: #31688e; stroke-width: 3; stroke-linecap: square"/>
   </g>
   <g id="line2d_61">
    <path d="M 1046.414634 87.94752 
L 1049.272683 91.86528 
L 1052.130732 95.52432 
L 1054.98878 98.9616 
L 1057.846829 102.06624 
L 1060.704878 104.91216 
L 1063.562927 107.42544 
L 1066.420976 109.64304 
L 1069.279024 111.528 
L 1072.137073 113.08032 
L 1074.995122 114.3 
L 1077.853171 115.15008 
L 1080.71122 115.5936 
L 1083.569268 115.74144 
L 1086.427317 115.7784 
L 1089.285366 115.81536 
L 1092.143415 115.85232 
L 1095.001463 115.88928 
L 1097.859512 115.92624 
L 1100.717561 115.9632 
L 1103.57561 116.00016 
L 1106.433659 116.03712 
L 1109.291707 116.07408 
L 1112.149756 116.11104 
L 1115.007805 116.148 
L 1117.865854 116.18496 
L 1120.723902 116.22192 
L 1123.581951 116.25888 
L 1126.44 116.07408 
L 1129.298049 115.66752 
L 1132.156098 115.224 
L 1135.014146 114.74352 
L 1137.872195 114.18912 
L 1140.730244 113.59776 
L 1143.588293 112.96944 
L 1146.446341 112.19328 
L 1149.30439 111.23232 
L 1152.162439 110.01264 
L 1155.020488 108.5712 
L 1157.878537 106.83408 
L 1160.736585 104.8752 
L 1163.594634 102.69456 
L 1166.452683 100.21824 
L 1169.310732 97.52016 
L 1172.16878 94.56336 
L 1175.026829 91.3848 
L 1177.884878 87.98448 
L 1180.742927 84.32544 
L 1183.600976 80.4816 
L 1186.459024 76.416 
L 1189.317073 72.20256 
" clip-path="url(#p766687266a)" style="fill: none; stroke: #1f9e89; stroke-width: 3; stroke-linecap: square"/>
   </g>
   <g id="line2d_62">
    <path d="M 1046.414634 87.94752 
L 1049.272683 91.86528 
L 1052.130732 95.52432 
L 1054.98878 98.9616 
L 1057.846829 102.06624 
L 1060.704878 104.91216 
L 1063.562927 107.42544 
L 1066.420976 109.64304 
L 1069.279024 111.528 
L 1072.137073 113.08032 
L 1074.995122 114.3 
L 1077.853171 115.15008 
L 1080.71122 115.5936 
L 1083.569268 115.74144 
L 1086.427317 115.7784 
L 1089.285366 115.81536 
L 1092.143415 115.85232 
L 1095.001463 115.88928 
L 1097.859512 115.92624 
L 1100.717561 115.9632 
L 1103.57561 116.00016 
L 1106.433659 116.03712 
L 1109.291707 116.07408 
L 1112.149756 116.11104 
L 1115.007805 116.148 
L 1117.865854 116.18496 
L 1120.723902 116.22192 
L 1123.581951 116.25888 
L 1126.44 116.07408 
L 1129.298049 115.66752 
L 1132.156098 115.224 
L 1135.014146 114.74352 
L 1137.872195 114.18912 
L 1140.730244 113.59776 
L 1143.588293 112.96944 
L 1146.446341 112.19328 
L 1149.30439 111.23232 
L 1152.162439 110.01264 
L 1155.020488 108.5712 
L 1157.878537 106.83408 
L 1160.736585 104.8752 
L 1163.594634 102.69456 
L 1166.452683 100.21824 
L 1169.310732 97.52016 
L 1172.16878 94.56336 
L 1175.026829 90.276 
L 1177.884878 83.40144 
L 1180.742927 76.67472 
L 1183.600976 72.12864 
L 1186.459024 67.176 
L 1189.317073 60.8928 
" clip-path="url(#p766687266a)" style="fill: none; stroke: #6ece58; stroke-width: 3; stroke-linecap: square"/>
   </g>
   <g id="LineCollection_6">
    <path d="M 1117.865854 145 
L 1117.865854 -1 
" clip-path="url(#p766687266a)" style="fill: none; stroke-dasharray: 5.55,2.4; stroke-dashoffset: 0; stroke: #cb1b4f; stroke-width: 1.5"/>
   </g>
   <g id="patch_28">
    <path d="M 1046.414634 128.16 
L 1046.414634 17.28 
" style="fill: none; stroke: #000000; stroke-width: 0.8; stroke-linejoin: miter; stroke-linecap: square"/>
   </g>
   <g id="patch_29">
    <path d="M 1189.317073 128.16 
L 1189.317073 17.28 
" style="fill: none; stroke: #000000; stroke-width: 0.8; stroke-linejoin: miter; stroke-linecap: square"/>
   </g>
   <g id="patch_30">
    <path d="M 1046.414634 128.16 
L 1189.317073 128.16 
" style="fill: none; stroke: #000000; stroke-width: 0.8; stroke-linejoin: miter; stroke-linecap: square"/>
   </g>
   <g id="patch_31">
    <path d="M 1046.414634 17.28 
L 1189.317073 17.28 
" style="fill: none; stroke: #000000; stroke-width: 0.8; stroke-linejoin: miter; stroke-linecap: square"/>
   </g>
  </g>
  <g id="axes_7">
   <g id="patch_32">
    <path d="M 1217.897561 128.16 
L 1360.8 128.16 
L 1360.8 17.28 
L 1217.897561 17.28 
L 1217.897561 128.16 
z
" style="fill: none"/>
   </g>
   <g id="matplotlib.axis_13">
    <g id="xtick_15">
     <g id="line2d_63">
      <g>
       <use xlink:href="#m92ecdce7cc" x="1232.187805" y="128.16" style="stroke: #000000; stroke-width: 0.8"/>
      </g>
     </g>
     <g id="text_26">
      <!-- $\mathdefault{0.04}$ -->
      <g transform="translate(1220.04827 144.845876) scale(0.14 -0.14)">
       <use xlink:href="#CMR17-30" transform="scale(0.996264)"/>
       <use xlink:href="#CMMI12-3a" transform="translate(45.690477 0) scale(0.996264)"/>
       <use xlink:href="#CMR17-30" transform="translate(72.787654 0) scale(0.996264)"/>
       <use xlink:href="#CMR17-34" transform="translate(118.478131 0) scale(0.996264)"/>
      </g>
     </g>
    </g>
    <g id="xtick_16">
     <g id="line2d_64">
      <g>
       <use xlink:href="#m92ecdce7cc" x="1289.34878" y="128.16" style="stroke: #000000; stroke-width: 0.8"/>
      </g>
     </g>
     <g id="text_27">
      <!-- $\mathdefault{0.05}$ -->
      <g transform="translate(1277.209245 144.845876) scale(0.14 -0.14)">
       <use xlink:href="#CMR17-30" transform="scale(0.996264)"/>
       <use xlink:href="#CMMI12-3a" transform="translate(45.690477 0) scale(0.996264)"/>
       <use xlink:href="#CMR17-30" transform="translate(72.787654 0) scale(0.996264)"/>
       <use xlink:href="#CMR17-35" transform="translate(118.478131 0) scale(0.996264)"/>
      </g>
     </g>
    </g>
    <g id="xtick_17">
     <g id="line2d_65">
      <g>
       <use xlink:href="#m92ecdce7cc" x="1346.509756" y="128.16" style="stroke: #000000; stroke-width: 0.8"/>
      </g>
     </g>
     <g id="text_28">
      <!-- $\mathdefault{0.06}$ -->
      <g transform="translate(1334.370221 144.845876) scale(0.14 -0.14)">
       <use xlink:href="#CMR17-30" transform="scale(0.996264)"/>
       <use xlink:href="#CMMI12-3a" transform="translate(45.690477 0) scale(0.996264)"/>
       <use xlink:href="#CMR17-30" transform="translate(72.787654 0) scale(0.996264)"/>
       <use xlink:href="#CMR17-36" transform="translate(118.478131 0) scale(0.996264)"/>
      </g>
     </g>
    </g>
    <g id="text_29">
     <!-- $a_9$ -->
     <g transform="translate(1282.462616 162.627493) scale(0.16 -0.16)">
      <defs>
       <path id="CMR17-39" d="M 2253 1864 
C 2253 464 1670 31 1190 31 
C 1043 31 685 31 538 294 
C 704 268 826 357 826 518 
C 826 692 685 749 595 749 
C 538 749 365 723 365 506 
C 365 71 742 -128 1203 -128 
C 1939 -128 2688 674 2688 2073 
C 2688 3817 1971 4179 1485 4179 
C 851 4179 243 3628 243 2778 
C 243 1991 762 1408 1414 1408 
C 1952 1408 2189 1903 2253 2112 
L 2253 1864 
z
M 1427 1510 
C 1254 1510 1011 1542 813 1922 
C 678 2169 678 2461 678 2771 
C 678 3146 678 3405 858 3684 
C 947 3817 1114 4032 1485 4032 
C 2240 4032 2240 2885 2240 2632 
C 2240 2182 2035 1510 1427 1510 
z
" transform="scale(0.015625)"/>
      </defs>
      <use xlink:href="#CMMI12-61" transform="scale(0.996264)"/>
      <use xlink:href="#CMR17-39" transform="translate(51.207858 -14.943915) scale(0.697382)"/>
     </g>
    </g>
   </g>
   <g id="matplotlib.axis_14">
    <g id="ytick_25">
     <g id="line2d_66">
      <g>
       <use xlink:href="#m842736cc2a" x="1217.897561" y="128.16" style="stroke: #000000; stroke-width: 0.8"/>
      </g>
     </g>
    </g>
    <g id="ytick_26">
     <g id="line2d_67">
      <g>
       <use xlink:href="#m842736cc2a" x="1217.897561" y="91.2" style="stroke: #000000; stroke-width: 0.8"/>
      </g>
     </g>
    </g>
    <g id="ytick_27">
     <g id="line2d_68">
      <g>
       <use xlink:href="#m842736cc2a" x="1217.897561" y="54.24" style="stroke: #000000; stroke-width: 0.8"/>
      </g>
     </g>
    </g>
    <g id="ytick_28">
     <g id="line2d_69">
      <g>
       <use xlink:href="#m842736cc2a" x="1217.897561" y="17.28" style="stroke: #000000; stroke-width: 0.8"/>
      </g>
     </g>
    </g>
   </g>
   <g id="line2d_70">
    <path d="M 1217.897561 114.37392 
L 1220.75561 114.44784 
L 1223.613659 114.52176 
L 1226.471707 114.59568 
L 1229.329756 114.63264 
L 1232.187805 114.70656 
L 1235.045854 114.78048 
L 1237.903902 114.8544 
L 1240.761951 114.89136 
L 1243.62 114.96528 
L 1246.478049 115.00224 
L 1249.336098 115.07616 
L 1252.194146 115.15008 
L 1255.052195 115.18704 
L 1257.910244 115.26096 
L 1260.768293 115.29792 
L 1263.626341 115.37184 
L 1266.48439 115.4088 
L 1269.342439 115.44576 
L 1272.200488 115.51968 
L 1275.058537 115.55664 
L 1277.916585 115.5936 
L 1280.774634 115.66752 
L 1283.632683 115.70448 
L 1286.490732 115.74144 
L 1289.34878 115.7784 
L 1292.206829 115.81536 
L 1295.064878 115.88928 
L 1297.922927 115.92624 
L 1300.780976 115.9632 
L 1303.639024 116.00016 
L 1306.497073 116.03712 
L 1309.355122 116.07408 
L 1312.213171 116.11104 
L 1315.07122 116.148 
L 1317.929268 116.18496 
L 1320.787317 116.22192 
L 1323.645366 116.22192 
L 1326.503415 116.25888 
L 1329.361463 116.29584 
L 1332.219512 116.3328 
L 1335.077561 116.36976 
L 1337.93561 116.36976 
L 1340.793659 116.40672 
L 1343.651707 116.44368 
L 1346.509756 116.48064 
L 1349.367805 116.48064 
L 1352.225854 116.5176 
L 1355.083902 116.5176 
L 1357.941951 116.55456 
L 1360.8 116.59152 
" clip-path="url(#pf35c47dd67)" style="fill: none; stroke: #482878; stroke-width: 3; stroke-linecap: square"/>
   </g>
   <g id="line2d_71">
    <path d="M 1217.897561 114.37392 
L 1220.75561 114.44784 
L 1223.613659 114.52176 
L 1226.471707 114.59568 
L 1229.329756 114.63264 
L 1232.187805 114.70656 
L 1235.045854 114.78048 
L 1237.903902 114.8544 
L 1240.761951 114.89136 
L 1243.62 114.96528 
L 1246.478049 115.00224 
L 1249.336098 115.07616 
L 1252.194146 115.15008 
L 1255.052195 115.18704 
L 1257.910244 115.26096 
L 1260.768293 115.29792 
L 1263.626341 115.37184 
L 1266.48439 115.4088 
L 1269.342439 115.44576 
L 1272.200488 115.51968 
L 1275.058537 115.55664 
L 1277.916585 115.5936 
L 1280.774634 115.66752 
L 1283.632683 115.70448 
L 1286.490732 115.74144 
L 1289.34878 115.7784 
L 1292.206829 115.81536 
L 1295.064878 115.88928 
L 1297.922927 115.92624 
L 1300.780976 115.9632 
L 1303.639024 116.00016 
L 1306.497073 116.03712 
L 1309.355122 116.07408 
L 1312.213171 116.11104 
L 1315.07122 116.148 
L 1317.929268 116.18496 
L 1320.787317 116.22192 
L 1323.645366 116.22192 
L 1326.503415 116.25888 
L 1329.361463 116.29584 
L 1332.219512 116.3328 
L 1335.077561 116.36976 
L 1337.93561 116.36976 
L 1340.793659 116.40672 
L 1343.651707 116.44368 
L 1346.509756 116.48064 
L 1349.367805 116.48064 
L 1352.225854 116.5176 
L 1355.083902 116.5176 
L 1357.941951 116.55456 
L 1360.8 116.59152 
" clip-path="url(#pf35c47dd67)" style="fill: none; stroke: #31688e; stroke-width: 3; stroke-linecap: square"/>
   </g>
   <g id="line2d_72">
    <path d="M 1217.897561 96.67008 
L 1220.75561 100.66176 
L 1223.613659 103.61856 
L 1226.471707 105.68832 
L 1229.329756 106.83408 
L 1232.187805 107.16672 
L 1235.045854 107.35152 
L 1237.903902 107.49936 
L 1240.761951 107.68416 
L 1243.62 107.90592 
L 1246.478049 108.16464 
L 1249.336098 108.42336 
L 1252.194146 108.756 
L 1255.052195 109.16256 
L 1257.910244 109.64304 
L 1260.768293 110.30832 
L 1263.626341 111.38016 
L 1266.48439 112.15632 
L 1269.342439 112.71072 
L 1272.200488 113.33904 
L 1275.058537 114.1152 
L 1277.916585 114.89136 
L 1280.774634 115.4088 
L 1283.632683 115.66752 
L 1286.490732 115.74144 
L 1289.34878 115.7784 
L 1292.206829 115.81536 
L 1295.064878 115.88928 
L 1297.922927 115.92624 
L 1300.780976 115.9632 
L 1303.639024 116.00016 
L 1306.497073 116.03712 
L 1309.355122 116.07408 
L 1312.213171 116.11104 
L 1315.07122 116.148 
L 1317.929268 116.18496 
L 1320.787317 116.22192 
L 1323.645366 116.22192 
L 1326.503415 116.25888 
L 1329.361463 116.11104 
L 1332.219512 115.7784 
L 1335.077561 115.33488 
L 1337.93561 114.74352 
L 1340.793659 113.96736 
L 1343.651707 113.08032 
L 1346.509756 112.0824 
L 1349.367805 110.93664 
L 1352.225854 109.71696 
L 1355.083902 108.34944 
L 1357.941951 106.908 
L 1360.8 105.35568 
" clip-path="url(#pf35c47dd67)" style="fill: none; stroke: #1f9e89; stroke-width: 3; stroke-linecap: square"/>
   </g>
   <g id="line2d_73">
    <path d="M 1217.897561 96.67008 
L 1220.75561 100.66176 
L 1223.613659 103.61856 
L 1226.471707 105.68832 
L 1229.329756 106.83408 
L 1232.187805 107.16672 
L 1235.045854 107.35152 
L 1237.903902 107.49936 
L 1240.761951 107.68416 
L 1243.62 107.90592 
L 1246.478049 108.16464 
L 1249.336098 108.42336 
L 1252.194146 108.756 
L 1255.052195 109.16256 
L 1257.910244 109.64304 
L 1260.768293 110.30832 
L 1263.626341 111.38016 
L 1266.48439 112.15632 
L 1269.342439 112.71072 
L 1272.200488 113.33904 
L 1275.058537 114.1152 
L 1277.916585 114.89136 
L 1280.774634 115.4088 
L 1283.632683 115.66752 
L 1286.490732 115.74144 
L 1289.34878 115.7784 
L 1292.206829 115.81536 
L 1295.064878 115.88928 
L 1297.922927 115.92624 
L 1300.780976 115.9632 
L 1303.639024 116.00016 
L 1306.497073 116.03712 
L 1309.355122 116.07408 
L 1312.213171 116.11104 
L 1315.07122 116.148 
L 1317.929268 116.18496 
L 1320.787317 116.22192 
L 1323.645366 116.22192 
L 1326.503415 116.25888 
L 1329.361463 116.11104 
L 1332.219512 115.7784 
L 1335.077561 115.33488 
L 1337.93561 114.74352 
L 1340.793659 113.96736 
L 1343.651707 113.08032 
L 1346.509756 112.0824 
L 1349.367805 110.93664 
L 1352.225854 109.71696 
L 1355.083902 108.34944 
L 1357.941951 106.908 
L 1360.8 105.35568 
" clip-path="url(#pf35c47dd67)" style="fill: none; stroke: #6ece58; stroke-width: 3; stroke-linecap: square"/>
   </g>
   <g id="LineCollection_7">
    <path d="M 1289.34878 145 
L 1289.34878 -1 
" clip-path="url(#pf35c47dd67)" style="fill: none; stroke-dasharray: 5.55,2.4; stroke-dashoffset: 0; stroke: #cb1b4f; stroke-width: 1.5"/>
   </g>
   <g id="patch_33">
    <path d="M 1217.897561 128.16 
L 1217.897561 17.28 
" style="fill: none; stroke: #000000; stroke-width: 0.8; stroke-linejoin: miter; stroke-linecap: square"/>
   </g>
   <g id="patch_34">
    <path d="M 1360.8 128.16 
L 1360.8 17.28 
" style="fill: none; stroke: #000000; stroke-width: 0.8; stroke-linejoin: miter; stroke-linecap: square"/>
   </g>
   <g id="patch_35">
    <path d="M 1217.897561 128.16 
L 1360.8 128.16 
" style="fill: none; stroke: #000000; stroke-width: 0.8; stroke-linejoin: miter; stroke-linecap: square"/>
   </g>
   <g id="patch_36">
    <path d="M 1217.897561 17.28 
L 1360.8 17.28 
" style="fill: none; stroke: #000000; stroke-width: 0.8; stroke-linejoin: miter; stroke-linecap: square"/>
   </g>
  </g>
 </g>
 <defs>
  <clipPath id="pf1d36c8979">
   <rect x="189" y="17.28" width="142.902439" height="110.88"/>
  </clipPath>
  <clipPath id="p8b905568e5">
   <rect x="360.482927" y="17.28" width="142.902439" height="110.88"/>
  </clipPath>
  <clipPath id="p9a2fce686a">
   <rect x="531.965854" y="17.28" width="142.902439" height="110.88"/>
  </clipPath>
  <clipPath id="p98a92e85b9">
   <rect x="703.44878" y="17.28" width="142.902439" height="110.88"/>
  </clipPath>
  <clipPath id="pbe66ed742c">
   <rect x="874.931707" y="17.28" width="142.902439" height="110.88"/>
  </clipPath>
  <clipPath id="p766687266a">
   <rect x="1046.414634" y="17.28" width="142.902439" height="110.88"/>
  </clipPath>
  <clipPath id="pf35c47dd67">
   <rect x="1217.897561" y="17.28" width="142.902439" height="110.88"/>
  </clipPath>
 </defs>
</svg>
